<?xml version="1.0" encoding="UTF-8"?>
<svg id="Lag_4" data-name="Lag 4" xmlns="http://www.w3.org/2000/svg" viewBox="0 0 809.19 1301">
  <defs>
    <style>
      .cls-1 {
        fill: #be9daf;
      }

      .cls-1, .cls-2 {
        stroke: #dbdadc;
        stroke-miterlimit: 10;
      }

      .cls-3, .cls-4, .cls-5 {
        fill: #231f20;
      }

      .cls-6 {
        letter-spacing: 0em;
      }

      .cls-4 {
        font-family: AnticDidone-Regular, 'Antic Didone';
        font-size: 15px;
      }

      .cls-7 {
        letter-spacing: 0em;
      }

      .cls-2 {
        fill: #efc3d8;
      }

      .cls-8 {
        letter-spacing: -.11em;
      }

      .cls-9 {
        letter-spacing: -.11em;
      }

      .cls-10 {
        letter-spacing: -.07em;
      }

      .cls-11 {
        letter-spacing: -.09em;
      }

      .cls-12 {
        letter-spacing: -.08em;
      }

      .cls-13 {
        letter-spacing: -.09em;
      }

      .cls-14 {
        letter-spacing: -.09em;
      }

      .cls-15 {
        letter-spacing: -.09em;
      }

      .cls-16 {
        letter-spacing: -.07em;
      }

      .cls-17 {
        letter-spacing: -.07em;
      }

      .cls-18 {
        letter-spacing: -.07em;
      }

      .cls-19 {
        letter-spacing: -.07em;
      }

      .cls-20 {
        letter-spacing: -.08em;
      }

      .cls-21 {
        letter-spacing: -.08em;
      }

      .cls-22 {
        letter-spacing: -.07em;
      }

      .cls-23 {
        letter-spacing: -.06em;
      }

      .cls-24 {
        letter-spacing: -.06em;
      }

      .cls-25 {
        letter-spacing: -.06em;
      }

      .cls-26 {
        letter-spacing: -.06em;
      }

      .cls-27 {
        letter-spacing: -.06em;
      }

      .cls-28 {
        letter-spacing: -.06em;
      }

      .cls-29 {
        letter-spacing: -.06em;
      }

      .cls-30 {
        letter-spacing: -.13em;
      }

      .cls-31 {
        letter-spacing: -.16em;
      }

      .cls-32 {
        letter-spacing: -.12em;
      }

      .cls-33 {
        letter-spacing: -.12em;
      }

      .cls-34 {
        letter-spacing: -.02em;
      }

      .cls-35 {
        letter-spacing: -.02em;
      }

      .cls-36 {
        letter-spacing: -.03em;
      }

      .cls-37 {
        letter-spacing: -.02em;
      }

      .cls-38 {
        letter-spacing: -.03em;
      }

      .cls-39 {
        letter-spacing: -.02em;
      }

      .cls-40 {
        letter-spacing: -.02em;
      }

      .cls-41 {
        letter-spacing: -.02em;
      }

      .cls-42 {
        letter-spacing: -.02em;
      }

      .cls-43 {
        letter-spacing: -.02em;
      }

      .cls-44 {
        letter-spacing: -.04em;
      }

      .cls-45 {
        letter-spacing: -.05em;
      }

      .cls-46 {
        letter-spacing: -.05em;
      }

      .cls-47 {
        letter-spacing: -.05em;
      }

      .cls-48 {
        letter-spacing: -.05em;
      }

      .cls-49 {
        letter-spacing: -.05em;
      }

      .cls-50 {
        letter-spacing: -.05em;
      }

      .cls-51 {
        letter-spacing: -.04em;
      }

      .cls-52 {
        letter-spacing: -.04em;
      }

      .cls-53 {
        letter-spacing: -.04em;
      }

      .cls-54 {
        letter-spacing: -.04em;
      }

      .cls-55 {
        letter-spacing: -.04em;
      }

      .cls-56 {
        letter-spacing: -.05em;
      }

      .cls-57 {
        letter-spacing: -.04em;
      }

      .cls-58 {
        letter-spacing: -.04em;
      }

      .cls-59 {
        letter-spacing: -.05em;
      }

      .cls-60 {
        letter-spacing: -.03em;
      }

      .cls-61 {
        letter-spacing: -.03em;
      }

      .cls-62 {
        letter-spacing: -.03em;
      }

      .cls-63 {
        letter-spacing: -.03em;
      }

      .cls-64 {
        letter-spacing: -.03em;
      }

      .cls-65 {
        letter-spacing: -.03em;
      }

      .cls-66 {
        letter-spacing: 0em;
      }

      .cls-67 {
        letter-spacing: 0em;
      }

      .cls-5 {
        font-family: Agraham-PersonalUse, Agraham;
        font-size: 21px;
      }

      .cls-68 {
        letter-spacing: .01em;
      }
    </style>
  </defs>
  <path class="cls-2" d="M662.09,662.89s4.33,6.38,5.18,7.22,6.26,5.42,7.22,6.26,2.41,2.41,3.37,4.09,2.65,6.26,2.89,7.1,2.05,11.68,2.29,13.12,1.2,6.86,2.65,9.75,1.93,3.61,3.97,6.38,4.15,6.26,5.51,9.15,2.2,5.06,2.8,7.47,6.62,17.81,7.93,18.82,7.56,3.97,7.56,3.97l-9.3-2.22-4.26-3.11s-1.75-2.25-2.17-3.22-2.46-5.57-2.57-5.89-1.93-3.75-1.93-3.75c0,0,.75,7.39,1.39,8.15s0,1.5.75,3.75,2.57,5.94,3.11,6.29,3.97,2.71,4.29,3.57-1.23-1.07-2.86-1.5-5.5-.11-6.68-.96-2.04-7.82-2.14-8.47-.86-3.54-1.29-5.79-.54-7.93-.75-9.32-1.04-1.71-1.27-2.89-4.3-6.86-5.48-9.32-2.36-6.14-3.11-10.09-2.04-10.59-2.68-12.09-4.5-9-4.72-9.91-7.5-13.02-8.04-13.56-1.07-7.53-1.18-8.43-4.82-5.82-4.82-5.82l4.34,1.25Z"/>
  <path class="cls-1" d="M630.79,655.43s1.81-1,2.53-1.82,8.19-2.75,8.19-2.75c0,0,3.73,2.02,4.09,3.12s6.62,3.86,6.62,3.86l4.21,2.77s3.25-.6,5.42,1.08,3.73,5.78,3.73,5.78c0,0-2.17-2.41-4.09-2.77s-6.98-1.93-9.27-1.32-4.94-1.44-6.62-2.29-3.97-5.54-4.94-5.3-8.91,1.69-8.91,1.69l-.96-2.05Z"/>
  <path class="cls-2" d="M642.59,682.04l-3.2.42-6.91.91s-16.74-4.09-17.94-5.06-7.1-4.82-7.83-5.66-3.13-9.39-3.13-10.23,1.2-4.58,1.44-5.42,1.57-2.65,4.46-3.25,9.03.96,9.03.96l5.54,1.2-1.69,2.41s-6.26.96-6.74.96-2.17.24-2.77.6-1.2,2.53-.6,3.37,3.49,2.41,4.94,2.77,3.37.96,3.73,1.81,1.32,4.47,2.17,5,2.41,2.1,2.89,2.46,2.89,4.21,5.9,5.06,16.01-.6,16.01-.6l-5.3,2.29Z"/>
  <path class="cls-1" d="M699.9,700.82l-7.95,1.08s-9.51-3.61-10.48-4.46-3.97-4.21-5.3-5.06-7.83-3.49-8.67-3.97-8.55-3.25-8.55-3.25c0,0-8.67-3.73-10.48-3.49s-7.34,1.69-10.36,1.2c0,0,3.61-1.32,5.18-2.53s1.93-3.13,4.21-3.25,6.26-.12,8.55,0,8.31,1.57,9.63,2.65,9.15,6.74,9.99,7.71,8.19,5.54,9.63,6.02,3.01,4.33,4.46,5.06,10.11,2.29,10.11,2.29Z"/>
  <path class="cls-1" d="M681.98,617.38s1.85,6.65,5.91,8.5,5.85-.83,6.81,0,8.71.67,8.71.67c0,0,0-3.99-10.72-6.58l-10.72-2.59Z"/>
  <path class="cls-2" d="M661.06,536.45s-3.62,5.59-4.34,7.35-1.37,3.72-3.03,6.05-12.46,12.02-13.56,12.91-5.07,9.91-7.66,9.54-7.39,1.85-7.39,1.85c0,0-3.7,7.76-3.33,9.61s1.48,7.39,1.85,8.5,2.22,1.48,2.96,4.44,1.11,5.91,2.59,8.13,7.02,7.02,9.98,7.39,26.61,3.7,26.61,3.7c0,0,1.85,1.85,7.39,2.22s14.78,7.76,14.78,7.76l-2.22-8.5s-1.85-8.5-8.5-9.61-13.9-2.59-13.9-2.59c0,0-10.53-1.48-12.73-1.11s-5.15,4.8-8.11-2.59-3.33-11.83-2.96-13.68,2.22-4.43,2.22-6.65.7-11.24,2.38-11.91,4.03-2.14,6-3.99,6.78-3.7,8.99-9.61,1.99-19.21,1.99-19.21Z"/>
  <path class="cls-1" d="M653.36,513.72s-1.44,6.28-1.11,6.61,3,5.44,3.44,6.1,4.7,4.58,5.14,5.24,2.2,9.26,2.42,10.36-1.54,6.83-1.98,7.71-1.76-4.41-1.76-5.51-4.26-5.68-6.76-6.81-6.03-.03-6.8-3.99-2.6-10.36-1.57-11.46,8.98-8.26,8.98-8.26Z"/>
  <path class="cls-2" d="M569.14,443.11l11.9.83s8.98,5.54,9.39,5.49,2.92,1.4,4.8,3.28,7.72,5.22,13.15,7.72,15.45,8.56,16.28,8.98,6.47,1.25,7.1,6.47,4.38,13.36,4.38,13.36c0,0-.25,9.48,0,11.31s1.71,6.92,5.35,8.74c1.72.86,3.45,1.4,4.94,1.88,1.66.53,3.04,1,3.8,1.77,1.46,1.46-12.02,1.46-13.12,1.46s-2.55-1.09-3.28-2.91-4.74-6.56-5.47-9.11-.73-9.2-.73-10.97-.54-9.59-1.82-10.16-7.79-4.31-16.08-8.02c-7.6-3.4-12.33-6.02-12.33-6.02,0,0-4.61-4.35-10.57-6.73-3.36-1.34-2.91-3.64-8.02-11.04-3.01-4.37-9.69-6.32-9.69-6.32Z"/>
  <path class="cls-1" d="M519.04,428.43s-.83,5.91,0,6.95,2.9,2.71,2.9,2.71h4.37c.66,0,6.09.83,6.09.83l6.26,3.13,9.39,5.75s8.14,1.97,9.18,1.55,4.99-2.3,4.99-2.3c0,0,18.18-3.13,18.81-3.13s-5.01-1.88-6.89-2.3-13.36,0-13.99,0-7.1.63-7.72.83-3.76-1.25-5.43-2.5-9.73-5.22-10.09-5.64-5.78-1.46-5.78-1.46c-1.88.83-2.99,2.09-4.84,1.88s-.15.16-2.26-1.25-5.01-5.08-5.01-5.08Z"/>
  <path class="cls-2" d="M431.82,384.77l4.59,6.54,13.04,2.12s7.92.11,8.66.63,6.55,4.22,7.6,4.86,8.45,4.22,11.93,6.55,6.23,3.27,8.66,5.91,4.22,3.59,6.65,6.02,1.69,5.06,3.71,7.49,6.58,5.03,7.34,6.19,7.72,0,7.72,0l-7.72-4.63s-1.84-4.92-2.13-6.37-1.45-8.69-2.61-10.43-10.72-8.4-12.74-9.85-8.98-3.76-8.98-3.76c0,0-3.19-4.2-4.05-3.98s-1.36.36-4.01,0-9.31-.26-11.05-1.61-9.56-2.08-11-2.88-1.67,0-6.57,0-9.04-2.79-9.04-2.79Z"/>
  <path class="cls-2" d="M188.65,871.75l-8.79,4.14s-2.06,1.18-2.14,1.5-.96,2.16-.88,2.96-4.93,11.89-4.93,11.89c0,0-5.13,5.94-5.94,6.74s-7.28,5.67-9.44,6.74-15.92,2.43-15.92,2.43c0,0-10.79,4.86-13.49,9.17s-4.59,6.21-6.48,7.82-8.04,6.21-8.04,6.21l-3.76,8.9,5.32-5.67s1.35-.54,3.51-2.16,1.39-1.62,4.87-3.24,5.92-3.51,5.92-3.51c0,0,.54,1.62-.27,3.78s-8.9,5.94-9.98,7.28-5.28,4.05-5.61,5.4-1.12,7.01-1.12,7.01c0,0,1.06-2.7,2.41-4.32s3.51-3.78,3.51-3.78c0,0,3.81-2.97,5.14-3.24s2.41-.54,4.84-1.08,5.13-1.62,6.48-3.24,1.67-11.33,1.67-11.33c0,0,2.38-3.78,4-4.86s2.64-3.24,7.39-3.51,10.96-1.6,14.19-1.74,14.3-5,15.38-6.35,3.24-18.08,4.59-23.47c1.15-4.61,6.19-9.17,7.63-10.4.06-.05,0-.14-.07-.11Z"/>
  <path class="cls-2" d="M129.62,760.22s3.01,4.52,5.77,6.58,10.96,3.93,10.96,3.93h7.3s7.64.65,8.99,1.64,8.99,5.58,8.99,5.58c0,0,6.96,10.46,9.66,13.15s6.1,13.18,10.69,17.04,10.21,20.93,10.21,23.4.93,6.96.67,8.76-7.64,10.56-7.64,10.56c0,0,1.57-.67,4.04-2.47s5.62-3.59,7.19-5.17,4.49-8.31,3.82-10.11-5.84-9.21-5.84-12.58-1.83-10.43-1.83-10.43c0,0-2.94-4.4-4.82-9.12s-11.32-19.32-11.77-20.44-17.75-9.21-17.75-9.21c0,0-5.62-1.95-6.52-3.11s-7.41-3-9.66-3.43-10.33,0-10.33,0c0,0-1.47-.42-5.17-.99s-6.96-3.58-6.96-3.58Z"/>
  <path class="cls-1" d="M112.62,764.79s3.88-3.01,4.38-3.51-.5-1.06,2.17-1.45,6.02,0,6.02,0l4.85,3.97s4.51,2.5,5.35,3-2.17-2.29-2.51-3.57-3.51-5.46-3.68-6.3-4.18-2.89-4.18-2.89c0,0-3.68-1.05-4.85,0s-2.51,3.22-3.34,4.4-4.21,3.51-4.21,3.51v2.84Z"/>
  <path class="cls-1" d="M104.46,761.53v-3.03s1.5-1.26,2.15-2.12,2.69,0,3.06,0,1.87,1.5,1.87,1.5l1.07,1.93-2.95,3.99-5.21-2.27Z"/>
  <path class="cls-1" d="M54.84,790.32l.78-4.93,1.92.35s.78.09,1.13-.35,2.53-.7,2.53-.7c0,0,1.4.52,2.09,1.48s.87,2.44,1.13,2.97.96,4.27.96,4.27l-6.37,1.05-4.19-4.14Z"/>
  <path class="cls-2" d="M91.04,786.56l-16.39,1.28-8.71,3.26-5.38,3.9s8.71-1.02,9.73,0,11.01-3.9,11.01-3.9l9.73-4.55Z"/>
  <path class="cls-1" d="M189.1,764.79s-7.17,8.19-8.19,9.73-2.92,4.94-5.94,6.82-9.94,5.21-9.94,5.21c0,0-7.68.77-9.99,1.28s-7.94,2.82-9.99,3.07-14.6.26-15.88,0-14.58-.38-14.58-.38l-19.48-1.66-20.48-1.02s3.33-1.28,6.4-2.05,9.73-1.79,12.03-2.05,9.73.26,11.01.51,21.25.51,21.25.51c0,0,3.84,1.79,8.19,1.02s11.27-1.54,13.06-1.79,5.89-1.54,7.68-2.3,8.45-3.07,10.5-5.12,9.71-1.76,12.41-4.21,11.91-7.57,11.91-7.57Z"/>
  <path class="cls-1" d="M179.84,712.82l-2.64,1.01s-.93.09-1.2,1.92,0,6.59,0,6.59c0,0,3.29,3.11,3.48,3.75s5.4,2.75,5.67,2.56,3.96-3.75,3.96-3.75l-9.27-12.08Z"/>
  <path class="cls-2" d="M183.51,724.52s5.59-2.65,10.79,2.75c.73.76,3.94,5.58,3.41,7.74l-.89,7.74-.72,12.41-3.66,8.99s-9.18,6.66-9.96,8.09,6.45-10.43,6.62-11.33,3.09-5.94,1-10.79,0-9.71,0-9.71c0,0,0-6.87-2.09-9.53-3.75-4.77-4.5-6.35-4.5-6.35Z"/>
  <path class="cls-2" d="M177.19,710.77s8.14-1.52,8.87-1.34,3.04,2.11,3.04,2.11l.43.82s-1.84,3.77-1.66,4.04,2.07.8,2.35,1.35,1.24,2.75,1.24,2.75c0,0-1.78,3.94-2.36,4.39s-5.61,1.19-5.61,1.19l-1.56-1.01-4.75-14.31Z"/>
  <path class="cls-1" d="M143.91,653.07s6.49,9.62,8.79,10.36,6.37,3.33,6.37,3.33c0,0,12.2,4.76,14.42,6.26s8.51,2.98,10.36,5.2,4.44,7.77,5.18,9.99-4.07,13.31-4.07,13.31c0,0-1.11,4.07-1.85,8.51s-1.11,13.68-1.11,13.68c0,0-4.07-10.72-4.81-12.94s-1.11-9.99-.37-12.2,4.44-5.92,4.81-8.51-3.7-8.88-3.7-8.88c0,0-3.7-3.33-4.81-2.59s-14.42,0-14.42,0c0,0-8.51-5.55-11.46-13.31s-3.33-12.2-3.33-12.2Z"/>
  <path class="cls-1" d="M59.46,579.18l-5.99.82-3.99,1.33s-1.57,2.15-1.37,3.52-.02,4.7-.02,4.7l2.56,1.37,4.5,1.17h3.33l3.91-6.46-2.94-6.46Z"/>
  <path class="cls-1" d="M43.8,567.44s8.22,3.13,8.81,3.13,3.72,1.96,3.72,1.96c0,0,2.15,1.37,2.94,2.15s2.15,3.33,2.15,4.31-2.15,4.89-2.15,4.89l-1.96-5.48-7.05-3.91-6.46-7.05Z"/>
  <path class="cls-2" d="M119.38,475.49l-2.3,1.19s-1.2,1.28-.89,3.16,3.19,6.05,3.19,6.05c0,0,1.73,1.44,3.02.86s3.02-.86,3.31-1.73l.29-.86,4.17-4.75-6.04-3.49-4.75-.43Z"/>
  <polygon class="cls-1" points="209.65 516.32 210.24 513.11 204.03 510.14 198.85 512.38 199.5 520.71 209.65 516.32"/>
  <path class="cls-1" d="M361.95,496.09s-5.52-.41-7.37-.13-6.59,1.38-7.91-.09-8.44-2.01-10.28-1.74-9.23,1.11-10.55,1.21-6.06,0-6.06,0l11.34-4.87s2.37-1.82,3.69-2.51,8.96-2.27,10.55-1.61,10.81,4.42,11.86,4.12,13.13-1.09,13.13-1.09l-8.4,6.72Z"/>
  <path class="cls-1" d="M367.99,479.81l-7.3,5.22s-2.29,1.55,1.01,4.6.25,6.46.25,6.46l6.33-.27,5.34-6.8-5.63-9.21Z"/>
  <path class="cls-1" d="M377.57,487.25l-5.84,4.58s1.76-10.16,1.9-10.34,7.06-9.62,7.06-9.62c0,0,3.02-10.13,3.99-11.29s11.2-12.75,11.2-12.75l-13.83,36.02-4.48,3.41Z"/>
  <path class="cls-2" d="M407.93,359.34s-2.08-.66-7.07,4.78-7.16,12.6-7.45,16.48-.49,8.36,0,9.85,4.41,11.3,4.41,11.3c0,0,1.56,3.14,0,4.71s-4.9,6.67-4.41,9.03-.49,5.89,0,8.64-2.65,16.09-2.65,16.09c0,0-.39,5.1,0,6.28s-2.37,10.55-2.58,14.47-8.37,21.41-8.76,22.59-5.53,6.91-5.53,6.91c0,0,6.28-3.53,8.24-4.71s15.8-12.95,16.93-15.7,8.11-34.18,5.41-37.31-2.89-7.48-3.19-7.85.02-12.15.45-13.72,1.61-10.6,2.39-13.74,1.96-12.17,1.57-14.13-2.48-21.88,2.25-23.95Z"/>
  <path class="cls-1" d="M310.41,387.56s16.48-2.11,17.06-2.49,9.18-3.45,10.25-4.03,17.29-7.69,17.82-7.85,9.89.96,12.19-1.83,24.92-6.62,24.92-6.62l5.18-7.48s-6.33,2.01-7.86,2.06-8.05,2.71-9.01,2.43-3.07-.68-5.56,0-.96-1.64-5.75,0-6.71,1.04-7.67,2.01-9.2,4.23-12.08,5.57-14.38,2.49-16.87,3.07-4.22,1.34-5.56,2.49-1.34,1.92-3.83,3.26-9.2,4.6-12.08,5.75-1.15,3.64-1.15,3.64Z"/>
  <path class="cls-2" d="M401.27,354.39s-5.75-.76-10.74-2.1-7.86-1.15-9.01-2.11-3.26-1.67-4.22-2.75-4.79-5.11-7.09-6.07-7.09-2.49-7.67-2.68-4.03.96-8.43,0-9.2-1.73-10.93-1.53-16.48,2.68-17.06,2.3-15.72-1.53-17.83-1.53-6.9-.77-9.2.38-11.88,7.46-11.88,7.46c0,0-2.11,4.77-3.26,5.75s-9.58,7.4-9.78,7.83.96,7.33,1.53,9.82,2.99,8.05,3.22,8.63-.42-.77,0,2.3,1.19,6.13,2.15,7.09,7.09,1.34,8.82,1.15,10.16-.67,11.69.05,11.5,2.06,11.5,2.06l9.39-4.6s-8.24-1.73-10.93-1.92-8.24-1.15-8.24-1.15l-4.03-5.75s-2.88-2.49-5.18-3.64-3.45.01-3.83-2.01-1.34-4.73-.77-7.59,3.45-11.72,3.45-12.27,2.68-5.08,4.22-5.59,9.58-1.66,9.58-1.66c0,0,7.86-.76,8.82,0s3.64,3.06,4.98,4.21,5.75,6.11,7.86,5.93,12.65-.37,13.42-.95,5.75-3.07,7.67-3.07,10.54,1.3,11.12,1.13,3.07,2.68,5.37,2.89,9.2,1.16,10.54,1.74,6.9,2.32,7.48,2.02,4.89-4.79,5.71-3.7,8.1,2.82,8.1,2.82l3.45-2.89Z"/>
  <path class="cls-1" d="M534.19,331.98s.48,5.89,0,6.84-7.19,8.35-7.57,8.61-6.69,1.37-8.59,1.85-6.65,2.22-6.65,2.22l-7.37,2.95,12.12,2.19,15.92-2.19,7.83-13.73-5.7-8.75Z"/>
  <path class="cls-2" d="M426.83,338.74s-1.32-2.65,3.31-5.03,16.42-7.02,16.42-7.02l10.64-6.87s7.13-4.51,10.22-4.75,13.78-1.43,13.78-1.43c0,0,3.09,1.19,4.28,0s4.99-3.09,4.99-3.09c0,0,3.8-1.43,4.51-1.43s12.59,1.19,12.59,1.19l16.87,1.19c3.8.48,5.23.95,7.6,2.38s5.7,3.8,7.37,7.37-1.66,11.41-1.43,13.07,1.17,2.14,1.89,6.42-5.93,10.78-5.93,10.78c0,0,4.99-15.29.71-16.96s-5.23-2.29-5.94-4.23-2.85-5.75-2.85-5.75l-5.94-2.38s-8.55.48-10.22,1.19-4.51.95-7.37,2.61-1.43,6.42-12.83,7.13-21.79-2.33-27.8-.48-34.88,6.09-34.88,6.09Z"/>
  <path class="cls-1" d="M407.93,354.45s-6.5-3.18,0-6.96,9.43-5.73,9.43-5.73l6.61-4.39,1.46-.69,2.67-1.26,14.3-1.65s22.85-1.24,24.31-1.73-10.47,2.2-11,2.46-8.34,4.77-9.27,5.69-4.77,2.25-4.77,2.25c0,0-3.66-3.05-4.54-1.72s-1.41,3.31-1.55,3.71-1.06,3.35-2.78,3-4.37-.05-5.56,0-4.9,1.24-5.43,1.64-2.38,1.96-3.97,2.44-9.89,2.95-9.89,2.95Z"/>
  <path class="cls-1" d="M403.15,352.46l-4.1-.96-5.65,5.16s2.1,3.06,2.87,4.01c.76.96,2.67,3.06,4.58,3.44,1.91.38,9.17,3.06,9.17,3.06l-6.88-14.71Z"/>
  <path class="cls-2" d="M526.31,355.24s-12.8,2.71-13.31,3.05-8.92,4.8-15.27,5.66-12.69.69-16.47,0-9.61-3.43-10.63-3.6-6.35-1.68-7.89-1.68-1.89,0-3.26,0-8.41,1.77-9.61.83-2.92-3.47-5.15-2.85-5.32,2.85-6.69,2.85-11.39-1.51-11.39-1.51l-6.85-1.34-7.14.62,7.89-5.76,3.42-2.64s4.24,1.43,6.53,0,5.83,1.54,6.69,1.89,4.97.86,6.17,0,3.09-1.29,5.49-2.27,11.15-2.56,11.15-2.56c0,0,3.6-.21,4.12,0s.86.09,4.29,1.52,6.52-.06,7.72,0,5.66-2.86,7.72-3.12,11.83.19,12.35,1.6,4.14,3.64,7.82,4.49,22.3,4.84,22.3,4.84Z"/>
  <polygon class="cls-2" points="377.02 476.72 365.25 476.72 363.68 484.18 366.06 488.29 367.6 495.95 371.92 495.95 377.02 476.72"/>
  <path class="cls-2" d="M344.17,486.33c-5.46,1.61-5.93,3.56-7.78,7.78s-5.01,8.96-5.01,8.96c0,0-8.52,6.77-9.4,8.92s-7.48,7.95-7.48,7.95c0,0-7.65,3.16-11.86,4.48s-9.23,1.32-16.87,1.32-12.92-.26-17.93-1.05-21.62-3.16-22.41-2.9-28.09-9.98-28.09-9.98l-8.88,3.77,7.35-9.38c7.66-2.04,11.23.91,16.33,2.49s7.14,0,7.14,0c0,0,4.08,1.47,6.63,0s6.63-1.59,11.74,0,22.46,4.65,25.52,4.65,12.76-1.53,14.29-2.04,12.14-9.43,17.61-13.68,21.61-10.3,21.61-10.3l7.48-1Z"/>
  <path class="cls-2" d="M206.22,516.7s-3.85-2.39-5.47-.45-2.45,4.01-1.49,5.07,1.24-.54,3.62,2.12,1.95,1,4.82,1.28,3.76-3.02,3.76-3.02l4.12-4.13-2.19-5.07-7.17,4.2Z"/>
  <path class="cls-1" d="M205.5,518.74s1.71-13.58-2.96-15.81l6.87,3.27.82,6.91-4.73,5.63Z"/>
  <path class="cls-1" d="M121.6,475.49h-4.6s-.72,2.45-1.15,3.16-1.01,1.58-.58,2.16,1.15,2.59,1.58,3.02,2.82,2.27,2.82,2.27l2.44-7.81-.51-2.8Z"/>
  <g>
    <path class="cls-2" d="M141.35,490.79c-.12-.44-.78-1.7,0,0h0Z"/>
    <path class="cls-1" d="M137.2,479.51c-.32-.32-1.27-1.21-2.38-2.24l-7.75-.92-3.27-.47c2.55,1.91,4.75,4.51,4.75,4.51,0,0,6.23.17,6.87.81s3.14,2.45,3.99,2.87c.85.43,1.47,6.53,1.9,6.85-.85-1.59-.95-6.89-1.63-8.47-.68-1.58-1.58-2.03-2.48-2.93Z"/>
    <path class="cls-2" d="M199.04,501h-9.48s-8.72.43-12.76,0-13.82,0-13.82,0l-6.38-2.34s-2.24-2.97-3.57-6.06c-1.32-3.08-2.39-4.78-2.39-4.78l-4.04-4.04c-.85-.85-7.02-5.95-7.02-5.95l-4.79-.57c1.11,1.03,2.07,1.93,2.38,2.24.9.9,1.81,1.35,2.48,2.93.68,1.58.78,6.88,1.63,8.47.07.05.07,0,.04-.12-.78-1.7-.12-.44,0,0,.18.4.44.94.81,1.71,2.34,4.89,2.34,5.74,3.19,7.44.85,1.7-1.28.38,2.13,3.27,3.4,2.89-1.06,2.47,7.02,5.45,8.08,2.98,21.05,1.76,21.05,1.76,0,0,4.89-1.55,5.74-1.98.85-.43,6.83.44,6.83.44,0,0,2.52.2,2.95-.44.43-.64,5.95-2.12,5.95-2.12,0,0,2.9-.47,4.04,0,1.55.64,6.91-.82,6.91-.82l-8.92-4.5Z"/>
  </g>
  <path class="cls-2" d="M121.32,480.8l-8.49-1.51s-2.88,1.81-4.12,2.05-17.21-7.05-17.21-7.05c0,0-5.51-1.65-6.06-1.79s-4.41,0-4.41,0c0,0-7.57-.4-7.98-.06s-11.64,1.59-12.71,3.06-11.75,7.01-12.82,7.71-12.82,7.16-12.82,7.16c0,0-10.95,8.23-10.95,10.64s-1.6,8.12-1.6,9.67v8.07c0,4.7,1.87,11.64,2.94,13.25s4.81,10.68,5.61,13.89,1.34,9.88,1.6,12.02,12.82,16.29,12.82,16.29c0,0,6.41,1.6,8.28,2.4s-4.01-7.48-6.95-10.42-4.81-9.88-4.81-11.22-3.47-16.03-3.21-18.43,0-3.21-1.6-8.01-2.14-8.01-1.6-10.95,2.94-10.68,3.47-12.82,4.73-9.79,4.64-10.77,5.25-8.46,7.65-8.99,9.62-1.87,10.95-.8,7.48-.97,7.48-.97l10.15-2.4,5.34.39,10.42,4.91s7.21.83,8.01.78,8.55-.55,8.55-.55l7.02-3.13,1.71-.19.69-2.21Z"/>
  <g>
    <path class="cls-1" d="M69.35,595.59l-8.7-5.81s-.29,2.4.77,5.04c.25.63.64,1.38,1.1,2.18,1.92-.29,5.71-.88,5.8-1.11.03-.07.43-.17,1.03-.29Z"/>
    <path class="cls-2" d="M148.75,657.31c0-3.36.56-12.32.56-15.68s-7.52-14.56-7.96-16.8-7.37-15.12-11.19-15.68c-3.82-.56-21.92-2.8-23.51-2.24-1.59.56-16.15-3.92-16.15-3.92l-8.4-7.11h-12.32l-.44-.29c-.6.12-1.01.22-1.03.29-.09.23-3.88.82-5.8,1.11,1.45,2.53,3.57,5.48,4.19,6.18.81.92,11.23,8.36,11.23,8.36h15.93l15.68,8.26s8.05-.56,9.06,0c1.02.56,8.3,5.04,8.3,5.04,0,0,7.41,8.27,7.91,10.57s4.49,8.11,2.74,11.27c-1.76,3.15,3.43,13.44,3.43,13.44l11.73,12.91s-3.95-12.35-3.95-15.71Z"/>
  </g>
  <path class="cls-2" d="M61.42,581.14l-3.45,4.5-7.31,5.28,4.59,4.7s1.28.59,2.85,0,3.25-3.03,5.25-4.25,3.36-1.42,3.36-1.42c0,0-.2-2.94,0-4.31s-5.28-4.5-5.28-4.5Z"/>
  <g>
    <text class="cls-4" transform="translate(256.76 438.27)"><tspan class="cls-23" x="0" y="0">2</tspan><tspan class="cls-18" x="7.7" y="0">0</tspan><tspan class="cls-52" x="17.15" y="0">2</tspan><tspan x="25.08" y="0">3-</tspan><tspan class="cls-23" x="42.48" y="0">2</tspan><tspan class="cls-17" x="50.18" y="0">0</tspan><tspan class="cls-34" x="59.63" y="0">2</tspan><tspan x="67.88" y="0">5</tspan></text>
    <text class="cls-4" transform="translate(263.01 452.83)"><tspan class="cls-29" x="0" y="0">M</tspan><tspan class="cls-53" x="11.43" y="0">u</tspan><tspan class="cls-29" x="20.56" y="0">l</tspan><tspan class="cls-48" x="24.27" y="0">t</tspan><tspan class="cls-53" x="28.77" y="0">i</tspan><tspan class="cls-29" x="32.91" y="0">m</tspan><tspan x="45.65" y="0">e</tspan><tspan class="cls-53" x="53.23" y="0">d</tspan><tspan x="61.32" y="0">iede</tspan><tspan class="cls-36" x="89.92" y="0">s</tspan><tspan class="cls-55" x="95.86" y="0">ig</tspan><tspan x="107.82" y="0">n</tspan><tspan class="cls-39" x="0" y="18">S</tspan><tspan class="cls-61" x="7.6" y="18">t</tspan><tspan class="cls-47" x="12.4" y="18">u</tspan><tspan class="cls-53" x="21.38" y="18">d</tspan><tspan x="29.46" y="18">i</tspan><tspan class="cls-39" x="34.2" y="18">e</tspan><tspan x="41.49" y="18">l</tspan><tspan class="cls-66" x="46.09" y="18">e</tspan><tspan class="cls-51" x="53.53" y="18">g</tspan><tspan class="cls-29" x="61.4" y="18">a</tspan><tspan x="68.58" y="18">t </tspan><tspan class="cls-29" x="78.31" y="18">f</tspan><tspan class="cls-39" x="82.81" y="18">r</tspan><tspan x="89.17" y="18">a </tspan><tspan class="cls-43" x="101.74" y="18">H</tspan><tspan x="111.73" y="18">K</tspan></text>
  </g>
  <g>
    <text class="cls-4" transform="translate(76.84 424.07)"><tspan class="cls-23" x="0" y="0">2</tspan><tspan class="cls-13" x="7.7" y="0">0</tspan><tspan class="cls-12" x="16.8" y="0">1</tspan><tspan x="22.92" y="0">7-</tspan><tspan class="cls-23" x="40.38" y="0">2</tspan><tspan class="cls-18" x="48.08" y="0">0</tspan><tspan class="cls-35" x="57.53" y="0">2</tspan><tspan x="65.78" y="0">5</tspan></text>
    <text class="cls-4" transform="translate(83.73 446.34)"><tspan class="cls-61" x="0" y="0">Un</tspan><tspan x="19.47" y="0">d</tspan><tspan class="cls-39" x="28.15" y="0">e</tspan><tspan x="35.44" y="0">r</tspan><tspan class="cls-38" x="42.1" y="0">v</tspan><tspan class="cls-36" x="50.94" y="0">i</tspan><tspan x="55.3" y="0">s</tspan><tspan class="cls-39" x="61.62" y="0">e</tspan><tspan x="68.91" y="0">r, </tspan><tspan class="cls-59" x="81.7" y="0">S</tspan><tspan class="cls-25" x="88.9" y="0">yh</tspan><tspan class="cls-55" x="106.44" y="0">o</tspan><tspan x="114.31" y="0">ld </tspan><tspan class="cls-54" x="0" y="18">f</tspan><tspan class="cls-53" x="4.79" y="18">o</tspan><tspan x="12.66" y="18">r </tspan><tspan class="cls-60" x="23.8" y="18">U</tspan><tspan class="cls-10" x="34.27" y="18">n</tspan><tspan x="42.61" y="18">g</tspan><tspan class="cls-39" x="51.03" y="18">I</tspan><tspan class="cls-54" x="55.26" y="18">A</tspan><tspan class="cls-29" x="64.69" y="18">a</tspan><tspan class="cls-46" x="71.88" y="18">r</tspan><tspan class="cls-29" x="77.79" y="18">h</tspan><tspan class="cls-36" x="86.31" y="18">u</tspan><tspan x="95.67" y="18">s</tspan></text>
  </g>
  <g>
    <text class="cls-4" transform="translate(59.73 533.45)"><tspan class="cls-23" x="0" y="0">2</tspan><tspan class="cls-13" x="7.7" y="0">0</tspan><tspan class="cls-11" x="16.8" y="0">1</tspan><tspan x="22.82" y="0">6</tspan><tspan class="cls-35" x="31.83" y="0">-</tspan><tspan class="cls-29" x="40.5" y="0">N</tspan><tspan x="50.09" y="0">u</tspan></text>
    <g>
      <path class="cls-3" d="M70.27,557.15c.74,0,1.39-.22,1.95-.65.56-.44.84-1.1.84-1.99,0-.4-.1-.74-.29-1.03-.19-.28-.45-.5-.77-.66-.32-.16-.67-.29-1.05-.41-.38-.11-.76-.24-1.14-.37-.38-.13-.73-.29-1.05-.47-.32-.18-.58-.44-.77-.77-.2-.33-.29-.72-.29-1.18,0-.8.28-1.46.83-1.97.55-.51,1.28-.76,2.21-.76s1.8.1,2.64.31l.17,1.88-.29.12-.15-1.18c-.74-.55-1.44-.83-2.08-.83s-1.2.2-1.64.59c-.44.4-.66.99-.66,1.78,0,.46.19.82.56,1.09s.82.48,1.34.63c.52.15,1.05.32,1.57.51.53.19.97.51,1.34.96s.55,1.04.55,1.75c0,.97-.34,1.7-1.03,2.19-.69.49-1.6.74-2.73.74s-2.11-.31-2.94-.92l.02-1.59.29-.07.03.85c.27.38.64.71,1.11,1,.47.28.96.43,1.46.43Z"/>
      <path class="cls-3" d="M78.32,557.15l.58-.03.04.15s-.08.02-.21.04c-.3.07-.63.1-1,.1-.34-.02-.65-.08-.93-.17-.28-.09-.54-.29-.78-.6-.24-.3-.36-.7-.36-1.18v-5.27h-.77l.12-.12.66-.13.12-1.44.84-.08v1.5h1.81v.27h-1.81v5.01c0,.76.16,1.27.48,1.54.32.27.72.4,1.2.4Z"/>
      <path class="cls-3" d="M84.59,556.87h-.04c-.9.42-1.78.63-2.62.63-1.33,0-2.04-.52-2.12-1.58,0-.07-.01-.13-.01-.19,0-.77.5-1.28,1.51-1.54.6-.13,1.68-.29,3.24-.47v-1.32c0-.42-.05-.78-.15-1.08-.1-.3-.21-.52-.33-.67-.12-.14-.28-.26-.46-.34-.24-.1-.51-.15-.8-.15s-.63.07-1.01.23c-.55.23-1.04.52-1.47.87l-.06,1.17-.29.07v-1.81l.15-.06c.78-.34,1.37-.54,1.78-.61s.71-.11.9-.11c.19,0,.37,0,.55,0,.17,0,.4.05.68.13.28.08.52.19.73.34.21.15.38.36.53.65.15.29.22.63.22,1.03v4.59c0,.31.08.46.24.46l.92.04v.23c-.58.08-1.08.12-1.51.12-.12-.01-.25-.07-.38-.19-.13-.12-.2-.27-.2-.46ZM82.19,557.26c.74,0,1.53-.26,2.36-.78v-2.48c-1.5.05-2.44.14-2.83.26s-.65.32-.79.58c-.14.27-.22.53-.22.79v.15c.03.52.18.9.46,1.12.28.23.62.34,1.02.34Z"/>
      <path class="cls-3" d="M89.09,550.55v1.2c.79-1.16,1.56-1.75,2.33-1.77h.18l.84.1-.39.9c-.19-.19-.44-.28-.74-.28-.73,0-1.47.49-2.22,1.46v4.98l1.28.07s0,.08-.02.23l-3.15.02c0-.09,0-.16.01-.21l.78-.1c.08-.01.12-.08.12-.21v-6.51c-.02-.07-.05-.1-.09-.1l-.9-.03v-.21c.55-.09.96-.13,1.25-.13s.47.06.57.19c.1.13.15.27.15.42Z"/>
      <path class="cls-3" d="M96.5,557.15l.58-.03.04.15s-.08.02-.21.04c-.3.07-.64.1-1,.1-.34-.02-.65-.08-.93-.17-.28-.09-.54-.29-.78-.6-.24-.3-.36-.7-.36-1.18v-5.27h-.76l.12-.12.66-.13.12-1.44.84-.08v1.5h1.82v.27h-1.82v5.01c0,.76.16,1.27.48,1.54.32.27.72.4,1.2.4Z"/>
      <path class="cls-3" d="M98.72,553.99c0,2.16.84,3.24,2.52,3.24.44,0,.91-.05,1.41-.14.5-.09.82-.18.96-.26l.11.15c-.23.15-.61.27-1.13.38-.53.1-1,.15-1.44.15s-.82-.04-1.17-.14c-.34-.09-.7-.25-1.06-.48-.36-.23-.65-.59-.86-1.08-.21-.49-.32-1.09-.32-1.8,0-1.32.34-2.33,1.02-3.03.71-.73,1.54-1.1,2.47-1.1s1.66.26,2.15.78c.5.52.74,1.25.74,2.19,0,.2-.02.42-.04.65h-5.36c0,.11-.01.27-.01.49ZM103.25,552.74c0-.75-.17-1.36-.5-1.84-.33-.47-.78-.71-1.35-.71-.74,0-1.36.33-1.88.98-.41.51-.67,1.19-.76,2.04h4.47c0-.11.02-.26.02-.46Z"/>
      <path class="cls-3" d="M108.46,557.15l.58-.03.04.15s-.08.02-.21.04c-.3.07-.64.1-1,.1-.34-.02-.65-.08-.93-.17-.28-.09-.54-.29-.78-.6-.24-.3-.36-.7-.36-1.18v-5.27h-.76l.12-.12.66-.13.12-1.44.84-.08v1.5h1.82v.27h-1.82v5.01c0,.76.16,1.27.48,1.54.32.27.72.4,1.2.4Z"/>
      <path class="cls-3" d="M118.19,557.15l.58-.03.04.15s-.08.02-.21.04c-.3.07-.64.1-1,.1-.34-.02-.65-.08-.93-.17-.28-.09-.54-.29-.78-.6-.24-.3-.36-.7-.36-1.18v-5.27h-.76l.12-.12.66-.13.12-1.44.84-.08v1.5h1.82v.27h-1.82v5.01c0,.76.16,1.27.48,1.54.32.27.72.4,1.2.4Z"/>
      <path class="cls-3" d="M121.1,556.64c-.67-.65-1.01-1.59-1.01-2.81s.34-2.19,1.03-2.9c.68-.71,1.52-1.06,2.51-1.06s1.79.24,2.4.72l.63-.78.29.23-.65.79c.61.66.92,1.58.92,2.77s-.34,2.13-1.03,2.83c-.68.71-1.52,1.06-2.5,1.06s-1.75-.21-2.33-.63l-.54.67-.27-.24.54-.66ZM123.73,550.15c-.77,0-1.41.33-1.91.98s-.75,1.48-.75,2.5.17,1.82.51,2.42l4-4.9c-.47-.66-1.09-.99-1.86-.99ZM126.25,553.6c0-.85-.15-1.56-.45-2.13l-4,4.89c.46.58,1.07.87,1.82.87s1.38-.32,1.88-.98c.5-.65.75-1.53.75-2.65Z"/>
      <path class="cls-3" d="M130.84,557.44v-7c-.02-.08-.05-.12-.09-.12l-.92-.03.02-.21c.63-.09,1.05-.13,1.27-.13.4,0,.62.18.68.52h.01v7.05c0,.39-.08.78-.23,1.18-.15.4-.33.74-.55,1.02-.46.59-.88,1.02-1.26,1.28l-.22.17-.11-.12c.41-.47.75-1.06,1-1.77.26-.71.39-1.32.39-1.83ZM131.3,547.93c-.2,0-.36-.06-.47-.19-.12-.12-.17-.29-.17-.5s.06-.37.18-.5c.12-.12.28-.19.48-.19s.36.06.48.19c.12.12.18.29.18.51s-.06.38-.19.5c-.12.12-.29.17-.49.17Z"/>
      <path class="cls-3" d="M140.77,549.94s0,.08.01.23l-1.2.13-2.88,7.14h-.9l-2.61-7.02c-.06-.09-.13-.15-.22-.17l-.78-.07v-.23s3.15-.02,3.15-.02c0,.01,0,.08.01.23l-1.11.07,2.36,6.89,2.46-6.65s.01-.1-.05-.14-.13-.07-.2-.08l-.78-.07v-.23s2.75-.02,2.75-.02Z"/>
      <path class="cls-3" d="M143.38,550.55v6.58l1.12.07s0,.08-.02.23l-3,.02c0-.09,0-.16.02-.21l.78-.1c.06,0,.1-.05.12-.14v-6.58c-.02-.07-.05-.1-.09-.1l-.9-.03.02-.21c.54-.09.95-.13,1.23-.13s.47.06.57.19c.1.13.15.27.15.42ZM142.87,547.93c-.2,0-.35-.06-.46-.19s-.17-.29-.17-.5.06-.37.17-.5c.11-.12.27-.19.47-.19s.36.06.49.19.19.29.19.51-.07.38-.2.5c-.13.12-.29.17-.5.17Z"/>
      <path class="cls-3" d="M147.37,550.55v1.2c.79-1.16,1.56-1.75,2.33-1.77h.18l.84.1-.39.9c-.19-.19-.44-.28-.74-.28-.73,0-1.47.49-2.22,1.46v4.98l1.28.07s0,.08-.02.23l-3.15.02c0-.09,0-.16.01-.21l.78-.1c.08-.01.12-.08.12-.21v-6.51c-.02-.07-.05-.1-.09-.1l-.9-.03v-.21c.55-.09.96-.13,1.25-.13s.47.06.57.19c.1.13.15.27.15.42Z"/>
      <path class="cls-3" d="M151.54,557.45v-.21s.79-.1.79-.1c.07-.01.11-.06.13-.15v-10.26c0-.11-.03-.17-.09-.17l-.92-.03v-.21c.64-.09,1.08-.13,1.31-.13s.41.06.51.19c.11.13.16.27.16.42v10.33l1.12.07s0,.08-.01.23l-3.01.02ZM158.69,557.21s0,.08-.01.23h-1.89l-3.35-3.99,2.58-2.98c0-.13-.04-.2-.12-.21l-.78-.1s-.02-.12-.02-.21l3.15.02s0,.08.01.23l-1.71.1-2.52,2.74,3.62,4.11,1.03.07Z"/>
      <path class="cls-3" d="M161.65,557.26c.06,0,.12,0,.18-.01.52-.01.96-.17,1.3-.49.35-.31.53-.78.53-1.39s-.47-1.04-1.41-1.31c-.39-.11-.78-.23-1.17-.36s-.72-.33-1-.62c-.28-.28-.41-.65-.41-1.09,0-.64.25-1.15.74-1.54.49-.38,1.11-.58,1.86-.58.56,0,1.12.1,1.69.3l.27.1v1.72l-.29.1-.06-1.27c-.58-.46-1.06-.69-1.46-.69-.55,0-.98.16-1.3.49-.32.33-.48.76-.48,1.3,0,.31.14.56.41.75s.61.34,1,.45c.39.11.78.23,1.17.37.39.13.72.35,1,.66s.41.7.41,1.19c0,.66-.25,1.18-.74,1.57-.5.39-1.2.58-2.11.58s-1.67-.21-2.26-.65v-1.73l.27-.1.08,1.27c.14.26.39.49.76.68.36.19.71.28,1.03.28Z"/>
      <path class="cls-3" d="M169.62,557.5c-1.05,0-1.89-.3-2.54-.9-.65-.6-.97-1.52-.97-2.75s.34-2.21,1.03-2.91,1.55-1.06,2.59-1.06,1.88.3,2.54.9c.65.6.97,1.52.97,2.75s-.34,2.21-1.03,2.91c-.69.71-1.55,1.06-2.59,1.06ZM169.72,550.15c-.75,0-1.38.33-1.88.98s-.75,1.53-.75,2.65.24,1.97.71,2.56c.47.6,1.09.89,1.84.89s1.37-.32,1.88-.98c.5-.65.75-1.53.75-2.64s-.24-1.96-.71-2.56c-.48-.6-1.09-.9-1.84-.9Z"/>
      <path class="cls-3" d="M177.98,550.22c-.6,0-1.25.23-1.95.66v6.26l1.12.07s0,.08-.01.23l-3,.02c0-.09,0-.16.01-.21l.78-.1c.06,0,.1-.05.12-.14v-6.58c-.02-.07-.05-.1-.09-.1l-.9-.03.02-.21c.54-.09.95-.13,1.23-.13s.47.06.57.19c.1.13.15.27.15.42v.18c.83-.52,1.59-.8,2.28-.84.95,0,1.59.27,1.94.81.87-.5,1.69-.77,2.46-.81.7,0,1.23.15,1.59.44.17.13.32.33.44.61s.19.6.19.98v5.22l1.12.07s0,.08-.01.23l-3,.02c0-.09,0-.16.01-.21l.78-.1c.06,0,.1-.05.12-.14v-4.71c0-.4-.05-.74-.15-1.03-.1-.29-.21-.49-.33-.62s-.27-.23-.45-.3c-.2-.08-.42-.12-.64-.12-.62,0-1.3.25-2.03.71.13.28.2.61.2.99v5.22l1.12.07s0,.08-.02.23l-3.01.02v-.21s.79-.1.79-.1c.07-.01.12-.06.13-.15v-4.71c0-.49-.06-.89-.19-1.21-.13-.31-.31-.52-.53-.62-.3-.15-.59-.22-.87-.22Z"/>
      <path class="cls-3" d="M189.14,553.09h4.53v.27h-4.53v-.27Z"/>
      <path class="cls-3" d="M69.56,564.8v4.06c1.31-.9,2.5-1.18,3.55-.84.24.07.45.17.62.31.17.14.33.34.46.61s.2.6.2.98v5.22l1.12.07s0,.08-.01.23l-3,.02c0-.09,0-.16.01-.21l.78-.1c.06,0,.1-.05.12-.14v-4.69c0-.39-.05-.73-.16-1.01-.1-.29-.23-.49-.37-.62-.14-.13-.31-.23-.5-.3-.26-.1-.49-.14-.69-.12-.65.02-1.36.29-2.14.79v6.09l1.12.07s0,.08-.01.23l-3,.02c0-.09,0-.16.01-.21l.78-.1c.08-.01.12-.08.12-.21v-10.2c0-.11-.03-.17-.09-.17l-.9-.03v-.21c.55-.09.96-.13,1.25-.13s.47.06.57.19c.1.13.15.27.15.42Z"/>
      <path class="cls-3" d="M76.87,571.99c0,2.16.84,3.24,2.52,3.24.44,0,.91-.05,1.41-.14.5-.09.82-.18.96-.26l.1.15c-.23.15-.61.27-1.13.38-.53.1-1.01.15-1.44.15s-.83-.04-1.17-.14c-.34-.09-.7-.25-1.06-.48-.36-.23-.64-.59-.85-1.08-.21-.49-.32-1.09-.32-1.8,0-1.32.34-2.33,1.02-3.03.71-.73,1.54-1.1,2.48-1.1s1.66.26,2.15.78.74,1.25.74,2.19c0,.2-.01.42-.04.65h-5.35c-.01.11-.02.27-.02.49ZM81.4,570.74c0-.75-.17-1.36-.5-1.84-.33-.47-.78-.71-1.35-.71-.74,0-1.37.33-1.88.98-.41.51-.67,1.19-.77,2.04h4.47c0-.11.01-.26.01-.46Z"/>
      <path class="cls-3" d="M89.6,564.8v9.85c0,.31.08.46.24.46l.9.04v.23c-.5.08-1,.12-1.51.12-.11-.01-.23-.07-.35-.17-.12-.1-.2-.23-.22-.39-.57.36-1.23.54-1.98.54s-1.41-.21-2.03-.62c-.35-.23-.63-.59-.85-1.09s-.32-1.1-.32-1.81c0-1.31.33-2.31,1-3,.71-.74,1.52-1.11,2.43-1.11.56,0,1.13.15,1.71.44v-3.58c0-.11-.03-.17-.09-.17l-.92-.03.02-.21c.63-.09,1.06-.13,1.3-.13s.41.06.51.19c.1.13.16.27.16.42ZM86.87,575.23c.61,0,1.2-.14,1.75-.41v-6.27c-.44-.27-.88-.41-1.3-.41-.86,0-1.55.33-2.08.99-.53.66-.79,1.6-.79,2.83,0,2.17.81,3.25,2.42,3.25Z"/>
      <path class="cls-3" d="M67.3,588.22c0-1.65.42-2.96,1.27-3.94.84-.98,1.9-1.47,3.16-1.47,2.95,0,4.42,1.8,4.42,5.41,0,1.66-.42,2.97-1.26,3.92s-1.9,1.43-3.17,1.43c-2.95,0-4.42-1.78-4.42-5.35ZM68.32,588.19c0,3.39,1.13,5.08,3.41,5.08.98,0,1.79-.45,2.44-1.35.64-.9.97-2.15.97-3.73,0-3.39-1.14-5.08-3.41-5.08-.97,0-1.78.46-2.43,1.36-.65.91-.98,2.15-.98,3.72Z"/>
      <path class="cls-3" d="M77.51,586.18l-.02-.23,2.03-.02v5.22c0,.39.05.73.17,1.01.11.29.23.49.37.62s.29.23.47.3c.28.1.51.14.71.12.61,0,1.3-.32,2.08-.94v-5.81c-.04-.12-.12-.19-.25-.21l-.78-.07c0-.06-.01-.14-.01-.23l2.02-.02v6.81c.02.25.1.38.24.38l.9.04-.02.23c-.48.08-.98.12-1.5.12-.12-.01-.25-.08-.39-.2s-.21-.28-.21-.47v-.27c-.91.61-1.77.92-2.58.92-.34,0-.74-.08-1.2-.25-.3-.11-.54-.32-.72-.62-.18-.3-.27-.69-.27-1.15v-4.98s-.03-.1-.08-.14-.11-.07-.17-.08l-.78-.07Z"/>
      <path class="cls-3" d="M89.45,593.15l.58-.03.04.15s-.08.02-.21.04c-.3.07-.63.1-1,.1-.34-.02-.65-.08-.93-.17-.28-.09-.54-.29-.78-.6-.24-.3-.36-.7-.36-1.18v-5.27h-.77l.12-.12.66-.13.12-1.44.84-.08v1.5h1.81v.27h-1.81v5.01c0,.76.16,1.27.48,1.54.32.27.72.4,1.2.4Z"/>
      <path class="cls-3" d="M91.28,588.22c0-1.65.42-2.96,1.27-3.94s1.9-1.47,3.16-1.47c2.95,0,4.43,1.8,4.43,5.41,0,1.66-.42,2.97-1.26,3.92s-1.89,1.43-3.17,1.43c-2.95,0-4.42-1.78-4.42-5.35ZM92.3,588.19c0,3.39,1.13,5.08,3.4,5.08.98,0,1.79-.45,2.44-1.35.65-.9.97-2.15.97-3.73,0-3.39-1.13-5.08-3.41-5.08-.97,0-1.78.46-2.43,1.36-.65.91-.97,2.15-.97,3.72Z"/>
      <path class="cls-3" d="M100.88,593.45l.02-.21.78-.1c.09-.01.13-.08.13-.21v-6.72h-.76l.12-.12.64-.13v-1.83c0-.69.23-1.19.68-1.49.45-.3.97-.46,1.57-.46.4,0,.74.06,1.02.17l-.04.1c-.24-.03-.45-.04-.62-.04s-.34.02-.51.08c-.17.05-.34.14-.52.27-.4.29-.6.86-.6,1.72v1.47h1.81v.27h-1.81v6.93l1.27.07s0,.08-.01.23l-3.17.02Z"/>
      <path class="cls-3" d="M106.25,583.16v-.23h2l3.58,7.6,3.52-7.6h1.98s0,.06.01.1c0,.05,0,.09,0,.12l-.79.09c-.1.01-.16.08-.18.19v9.71l1.11.06s0,.08-.02.23l-3.01.02v-.21s.79-.1.79-.1c.1-.01.16-.07.18-.18v-9.48l-3.42,7.4-.3.6h-.34l-3.79-8.01v9.66l1.71.09s0,.08-.02.23l-3.01.02v-.21s.79-.1.79-.1c.1-.01.16-.08.18-.2v-9.5c-.02-.12-.08-.18-.18-.19l-.79-.09Z"/>
      <path class="cls-3" d="M119.95,597.19l-.03-.21,1.4-.18c.07,0,.11-.08.13-.21l.5-3.15h-.5l-2.5-6.98-.02-.02c-.05-.12-.13-.19-.24-.21l-.67-.06c-.01-.06-.02-.14-.02-.23l3.15-.02s0,.08.01.23l-1.17.09,2.22,6.79,2.79-6.6c.03-.06.01-.11-.05-.15-.07-.04-.13-.06-.2-.07l-.66-.04c0-.06-.01-.14-.01-.23l2.75-.02s0,.08.01.23l-1.33.13-3.15,7.14-.57,3.44,1.3.07c.02.14.03.22.03.23l-3.17.02Z"/>
      <path class="cls-3" d="M136.7,582.94s0,.08.01.23l-.94.1v9.88l1.09.06s0,.08-.01.23l-3,.02c0-.09,0-.16.01-.21l.78-.1c.1-.01.16-.08.18-.2v-4.56h-5.12v4.77l1.11.06s0,.08-.01.23l-3.02.02.02-.21.78-.1c.1-.01.16-.07.18-.18v-9.51c-.02-.12-.08-.18-.18-.19l-.78-.07-.02-.23,3.02-.02s0,.08.01.23l-1.11.1v4.81h5.12v-4.62c-.02-.13-.08-.2-.18-.21l-.78-.07c0-.06-.01-.14-.01-.23l2.85-.02Z"/>
      <path class="cls-3" d="M142.27,592.87h-.04c-.9.42-1.78.63-2.62.63-1.33,0-2.04-.52-2.12-1.58,0-.07-.01-.13-.01-.19,0-.77.5-1.28,1.51-1.54.6-.13,1.68-.29,3.24-.47v-1.32c0-.42-.05-.78-.15-1.08-.1-.3-.21-.52-.33-.67-.12-.14-.28-.26-.46-.34-.24-.1-.51-.15-.8-.15s-.63.07-1.01.23c-.55.23-1.04.52-1.47.87l-.06,1.17-.29.07v-1.81l.15-.06c.78-.34,1.37-.54,1.78-.61s.71-.11.9-.11c.19,0,.37,0,.55,0,.17,0,.4.05.68.13.28.08.52.19.73.34.21.15.38.36.53.65.15.29.22.63.22,1.03v4.59c0,.31.08.46.24.46l.92.04v.23c-.58.08-1.08.12-1.51.12-.12-.01-.25-.07-.38-.19-.13-.12-.2-.27-.2-.46ZM139.87,593.26c.74,0,1.53-.26,2.36-.78v-2.48c-1.5.05-2.44.14-2.83.26s-.65.32-.79.58c-.14.27-.22.53-.22.79v.15c.03.52.18.9.46,1.12.28.23.62.34,1.02.34Z"/>
      <path class="cls-3" d="M144.88,593.45v-.21s.79-.1.79-.1c.09-.01.13-.08.13-.21v-6.5c-.02-.08-.05-.12-.09-.12l-.92-.03.02-.21c.63-.09,1.05-.13,1.27-.13.4,0,.62.18.67.52h.02v.31c.82-.56,1.6-.85,2.35-.88.73,0,1.29.15,1.67.44.17.13.32.33.46.61.13.27.2.6.2.98v5.22l1.12.07s0,.08-.01.23l-3,.02c0-.09,0-.16.01-.21l.78-.1c.08-.01.12-.08.12-.21v-4.64c0-.4-.05-.74-.16-1.02-.1-.28-.22-.48-.35-.61s-.29-.23-.48-.3c-.22-.08-.45-.12-.69-.12-.6.01-1.27.25-2.02.71v6.2l1.12.07s0,.08-.02.23l-3.01.02Z"/>
      <path class="cls-3" d="M159.85,582.8v9.85c0,.31.08.46.24.46l.9.04-.02.23c-.48.08-.98.12-1.5.12-.11-.01-.23-.07-.35-.17-.12-.1-.2-.23-.22-.39-.57.36-1.23.54-1.98.54s-1.41-.21-2.02-.62c-.35-.23-.63-.59-.85-1.09-.22-.5-.32-1.1-.32-1.81,0-1.31.33-2.31,1.01-3,.71-.74,1.52-1.11,2.43-1.11.56,0,1.13.15,1.71.44v-3.58c0-.11-.03-.17-.09-.17l-.92-.03v-.21c.64-.09,1.08-.13,1.31-.13s.41.06.51.19c.11.13.16.27.16.42ZM157.12,593.23c.61,0,1.19-.14,1.75-.41v-6.27c-.44-.27-.88-.41-1.3-.41-.86,0-1.55.33-2.08.99-.52.66-.79,1.6-.79,2.83,0,2.17.8,3.25,2.42,3.25Z"/>
    </g>
  </g>
  <g>
    <text class="cls-4" transform="translate(191.36 700.46)"><tspan class="cls-63" x="0" y="0">A</tspan><tspan class="cls-61" x="9.54" y="0">p</tspan><tspan class="cls-46" x="17.64" y="0">r</tspan><tspan class="cls-55" x="23.55" y="0">i</tspan><tspan x="27.69" y="0">l-</tspan><tspan class="cls-29" x="41.29" y="0">j</tspan><tspan class="cls-53" x="44.67" y="0">u</tspan><tspan class="cls-29" x="53.8" y="0">n</tspan><tspan x="62.35" y="0">i </tspan><tspan class="cls-23" x="71.58" y="0">2</tspan><tspan class="cls-13" x="79.27" y="0">0</tspan><tspan class="cls-22" x="88.38" y="0">1</tspan><tspan x="94.6" y="0">5</tspan></text>
    <text class="cls-4" transform="translate(197.62 715.01)"><tspan class="cls-53" x="0" y="0">P</tspan><tspan class="cls-39" x="7.53" y="0">r</tspan><tspan class="cls-29" x="13.89" y="0">a</tspan><tspan class="cls-44" x="21.07" y="0">k</tspan><tspan class="cls-46" x="29.13" y="0">t</tspan><tspan class="cls-55" x="33.63" y="0">i</tspan><tspan x="37.77" y="0">k </tspan><tspan class="cls-26" x="50.98" y="0">h</tspan><tspan x="59.56" y="0">os </tspan><tspan class="cls-55" x="78.84" y="0">Mo</tspan><tspan class="cls-29" x="98.44" y="0">lu</tspan><tspan x="110.98" y="0">u</tspan></text>
  </g>
  <g>
    <text class="cls-4" transform="translate(456.55 652.7)"><tspan class="cls-59" x="0" y="0">A</tspan><tspan class="cls-55" x="9.34" y="0">u</tspan><tspan class="cls-65" x="18.48" y="0">g</tspan><tspan class="cls-36" x="26.43" y="0">u</tspan><tspan class="cls-35" x="35.79" y="0">s</tspan><tspan x="41.77" y="0">t </tspan><tspan class="cls-23" x="51.51" y="0">2</tspan><tspan class="cls-14" x="59.21" y="0">0</tspan><tspan class="cls-20" x="68.31" y="0">1</tspan><tspan x="74.45" y="0">9</tspan></text>
    <text class="cls-4" transform="translate(463.74 667.25)"><tspan class="cls-53" x="0" y="0">Gi</tspan><tspan class="cls-46" x="12.75" y="0">f</tspan><tspan x="17.4" y="0">t </tspan><tspan class="cls-29" x="27.13" y="0">m</tspan><tspan x="39.87" y="0">ed </tspan><tspan class="cls-53" x="60.63" y="0">Ji</tspan><tspan x="67.69" y="0">m </tspan><tspan class="cls-62" x="85.81" y="0">A</tspan><tspan class="cls-55" x="95.35" y="0">ll</tspan><tspan class="cls-36" x="103.36" y="0">i</tspan><tspan class="cls-34" x="107.73" y="0">s</tspan><tspan class="cls-58" x="113.71" y="0">t</tspan><tspan class="cls-39" x="118.3" y="0">e</tspan><tspan x="125.59" y="0">r </tspan><tspan class="cls-53" x="0" y="18">P</tspan><tspan x="7.53" y="18">l</tspan><tspan class="cls-63" x="12.13" y="18">o</tspan><tspan class="cls-53" x="20.1" y="18">ug</tspan><tspan class="cls-12" x="37.05" y="18">f</tspan><tspan class="cls-39" x="41.25" y="18">e</tspan><tspan class="cls-28" x="48.54" y="18">l</tspan><tspan x="52.24" y="18">t</tspan></text>
  </g>
  <g>
    <text class="cls-4" transform="translate(678.41 600.14)"><tspan x="0" y="0">S</tspan><tspan class="cls-39" x="7.9" y="0">e</tspan><tspan class="cls-53" x="15.19" y="0">p</tspan><tspan class="cls-58" x="23.14" y="0">t</tspan><tspan class="cls-39" x="27.73" y="0">e</tspan><tspan class="cls-29" x="35.02" y="0">m</tspan><tspan class="cls-66" x="47.76" y="0">b</tspan><tspan class="cls-39" x="56.01" y="0">e</tspan><tspan x="63.3" y="0">r </tspan><tspan class="cls-24" x="74.44" y="0">2</tspan><tspan class="cls-14" x="82.14" y="0">0</tspan><tspan class="cls-20" x="91.24" y="0">1</tspan><tspan x="97.38" y="0">9</tspan></text>
    <text class="cls-4" transform="translate(684.66 614.7)"><tspan class="cls-19" x="0" y="0">F</tspan><tspan class="cls-41" x="6.67" y="0">ø</tspan><tspan class="cls-66" x="15.71" y="0">r</tspan><tspan class="cls-35" x="22.21" y="0">s</tspan><tspan class="cls-58" x="28.2" y="0">t</tspan><tspan x="32.79" y="0">e s</tspan><tspan class="cls-40" x="51.18" y="0">ø</tspan><tspan x="60.21" y="0">n</tspan></text>
  </g>
  <g>
    <text class="cls-4" transform="translate(547.48 524.29)"><tspan class="cls-53" x="0" y="0">J</tspan><tspan class="cls-29" x="2.92" y="0">an</tspan><tspan class="cls-66" x="18.66" y="0">u</tspan><tspan class="cls-29" x="28.24" y="0">a</tspan><tspan x="35.43" y="0">r </tspan><tspan class="cls-23" x="46.57" y="0">2</tspan><tspan class="cls-18" x="54.27" y="0">0</tspan><tspan class="cls-46" x="63.72" y="0">2</tspan><tspan x="71.55" y="0">2</tspan></text>
    <text class="cls-4" transform="translate(553.74 538.84)"><tspan class="cls-19" x="0" y="0">F</tspan><tspan class="cls-41" x="6.67" y="0">ø</tspan><tspan class="cls-66" x="15.71" y="0">r</tspan><tspan class="cls-35" x="22.21" y="0">s</tspan><tspan class="cls-58" x="28.2" y="0">t</tspan><tspan x="32.79" y="0">e </tspan><tspan class="cls-66" x="44.86" y="0">d</tspan><tspan class="cls-29" x="53.4" y="0">a</tspan><tspan class="cls-61" x="60.58" y="0">t</tspan><tspan class="cls-58" x="65.38" y="0">t</tspan><tspan class="cls-39" x="69.98" y="0">e</tspan><tspan x="77.27" y="0">r</tspan></text>
  </g>
  <g>
    <text class="cls-4" transform="translate(524.06 413.66)"><tspan class="cls-63" x="0" y="0">A</tspan><tspan class="cls-61" x="9.54" y="0">p</tspan><tspan class="cls-46" x="17.64" y="0">r</tspan><tspan class="cls-55" x="23.55" y="0">i</tspan><tspan x="27.69" y="0">l </tspan><tspan class="cls-23" x="36.78" y="0">2</tspan><tspan class="cls-17" x="44.47" y="0">0</tspan><tspan class="cls-34" x="53.92" y="0">2</tspan><tspan x="62.17" y="0">5</tspan></text>
    <text class="cls-4" transform="translate(530.31 428.21)"><tspan class="cls-63" x="0" y="0">A</tspan><tspan class="cls-61" x="9.54" y="0">n</tspan><tspan x="18.54" y="0">d</tspan><tspan class="cls-39" x="27.22" y="0">e</tspan><tspan x="34.51" y="0">n </tspan><tspan class="cls-66" x="48.45" y="0">d</tspan><tspan class="cls-29" x="56.98" y="0">a</tspan><tspan class="cls-61" x="64.17" y="0">t</tspan><tspan class="cls-58" x="68.97" y="0">t</tspan><tspan class="cls-39" x="73.56" y="0">e</tspan><tspan x="80.85" y="0">r</tspan></text>
  </g>
  <g>
    <text class="cls-4" transform="translate(19.51 711.48)"><tspan class="cls-23" x="0" y="0">2</tspan><tspan class="cls-13" x="7.7" y="0">0</tspan><tspan class="cls-33" x="16.8" y="0">1</tspan><tspan x="22.26" y="0">4-</tspan><tspan class="cls-23" x="40.28" y="0">2</tspan><tspan class="cls-13" x="47.97" y="0">0</tspan><tspan class="cls-22" x="57.08" y="0">1</tspan><tspan x="63.3" y="0">5</tspan></text>
    <text class="cls-4" transform="translate(27.11 726.04)"><tspan class="cls-38" x="0" y="0">P</tspan><tspan class="cls-42" x="7.73" y="0">B</tspan><tspan x="15.71" y="0">A </tspan><tspan class="cls-64" x="30.24" y="0">F</tspan><tspan class="cls-67" x="37.44" y="0">a</tspan><tspan class="cls-37" x="45.4" y="0">s</tspan><tspan class="cls-28" x="51.34" y="0">h</tspan><tspan x="59.86" y="0">i</tspan><tspan class="cls-55" x="64.6" y="0">o</tspan><tspan x="72.48" y="0">n de</tspan><tspan class="cls-36" x="102.69" y="0">s</tspan><tspan class="cls-53" x="108.63" y="0">ig</tspan><tspan x="120.58" y="0">n</tspan><tspan class="cls-66" x="0" y="18">V</tspan><tspan class="cls-39" x="9.87" y="18">I</tspan><tspan x="14.1" y="18">A </tspan><tspan class="cls-66" x="28.63" y="18">D</tspan><tspan x="37.92" y="18">e</tspan><tspan class="cls-36" x="45.51" y="18">s</tspan><tspan class="cls-53" x="51.45" y="18">ig</tspan><tspan x="63.4" y="18">n &amp; </tspan><tspan class="cls-53" x="94.74" y="18">b</tspan><tspan class="cls-36" x="102.54" y="18">us</tspan><tspan class="cls-53" x="117.84" y="18">i</tspan><tspan class="cls-29" x="121.98" y="18">n</tspan><tspan class="cls-6" x="130.53" y="18">ess</tspan></text>
  </g>
  <g>
    <text class="cls-4" transform="translate(0 810.07)"><tspan class="cls-59" x="0" y="0">A</tspan><tspan class="cls-55" x="9.34" y="0">u</tspan><tspan class="cls-65" x="18.48" y="0">g</tspan><tspan class="cls-36" x="26.43" y="0">u</tspan><tspan class="cls-35" x="35.79" y="0">s</tspan><tspan x="41.77" y="0">t-</tspan><tspan class="cls-55" x="56.02" y="0">o</tspan><tspan class="cls-45" x="63.9" y="0">k</tspan><tspan class="cls-56" x="71.95" y="0">t</tspan><tspan class="cls-53" x="76.52" y="0">o</tspan><tspan class="cls-66" x="84.39" y="0">b</tspan><tspan class="cls-39" x="92.64" y="0">e</tspan><tspan x="99.93" y="0">r </tspan><tspan class="cls-23" x="111.07" y="0">2</tspan><tspan class="cls-13" x="118.77" y="0">0</tspan><tspan class="cls-30" x="127.87" y="0">1</tspan><tspan class="cls-7" x="133.21" y="0">3</tspan></text>
    <text class="cls-4" transform="translate(7.66 824.62)"><tspan class="cls-53" x="0" y="0">P</tspan><tspan class="cls-39" x="7.53" y="0">r</tspan><tspan class="cls-29" x="13.89" y="0">a</tspan><tspan class="cls-44" x="21.07" y="0">k</tspan><tspan class="cls-46" x="29.13" y="0">t</tspan><tspan class="cls-55" x="33.63" y="0">i</tspan><tspan x="37.77" y="0">k </tspan><tspan class="cls-26" x="50.98" y="0">h</tspan><tspan x="59.56" y="0">os La </tspan><tspan class="cls-55" x="99.16" y="0">M</tspan><tspan class="cls-29" x="110.89" y="0">a</tspan><tspan class="cls-36" x="118.08" y="0">i</tspan><tspan class="cls-68" x="122.44" y="0">s</tspan><tspan class="cls-53" x="128.97" y="0">o</tspan><tspan class="cls-7" x="136.84" y="0">n </tspan><tspan class="cls-29" x="0" y="18">J</tspan><tspan class="cls-36" x="2.62" y="18">u</tspan><tspan class="cls-34" x="11.98" y="18">s</tspan><tspan class="cls-46" x="17.97" y="18">t</tspan><tspan class="cls-66" x="22.47" y="18">i</tspan><tspan class="cls-29" x="27.06" y="18">a</tspan><tspan x="34.25" y="18">n </tspan><tspan class="cls-49" x="48.18" y="18">K</tspan><tspan class="cls-53" x="56.47" y="18">u</tspan><tspan class="cls-29" x="65.61" y="18">n</tspan><tspan class="cls-66" x="74.16" y="18">t</tspan><tspan x="79.26" y="18">z</tspan></text>
  </g>
  <g>
    <text class="cls-4" transform="translate(208.77 851.41)"><tspan class="cls-23" x="0" y="0">2</tspan><tspan class="cls-13" x="7.7" y="0">0</tspan><tspan class="cls-9" x="16.8" y="0">1</tspan><tspan x="22.49" y="0">2-</tspan><tspan class="cls-23" x="40.07" y="0">2</tspan><tspan class="cls-13" x="47.76" y="0">0</tspan><tspan class="cls-33" x="56.87" y="0">1</tspan><tspan x="62.33" y="0">4</tspan></text>
    <text class="cls-4" transform="translate(215.03 865.97)"><tspan class="cls-66" x="0" y="0">D</tspan><tspan x="9.29" y="0">e</tspan><tspan class="cls-36" x="16.88" y="0">s</tspan><tspan class="cls-55" x="22.81" y="0">ig</tspan><tspan class="cls-29" x="34.77" y="0">n</tspan><tspan class="cls-57" x="43.32" y="0">t</tspan><tspan class="cls-39" x="47.91" y="0">e</tspan><tspan class="cls-56" x="55.2" y="0">k</tspan><tspan class="cls-26" x="63.24" y="0">n</tspan><tspan class="cls-55" x="71.85" y="0">o</tspan><tspan x="79.72" y="0">l</tspan><tspan class="cls-45" x="84.33" y="0">o</tspan><tspan x="92.13" y="0">g</tspan><tspan class="cls-66" x="0" y="18">TE</tspan><tspan class="cls-52" x="15.63" y="18">K</tspan><tspan x="24.01" y="18">O </tspan></text>
  </g>
  <g>
    <text class="cls-4" transform="translate(214.91 538.73)"><tspan class="cls-66" x="0" y="0">D</tspan><tspan x="9.29" y="0">ec</tspan><tspan class="cls-39" x="24.04" y="0">e</tspan><tspan class="cls-29" x="31.33" y="0">m</tspan><tspan class="cls-66" x="44.07" y="0">b</tspan><tspan class="cls-39" x="52.32" y="0">e</tspan><tspan x="59.61" y="0">r </tspan><tspan class="cls-23" x="70.75" y="0">2</tspan><tspan class="cls-17" x="78.45" y="0">0</tspan><tspan class="cls-15" x="87.9" y="0">2</tspan><tspan x="95.16" y="0">4</tspan></text>
    <text class="cls-4" transform="translate(221.17 553.29)"><tspan class="cls-32" x="0" y="0">V</tspan><tspan class="cls-39" x="8.27" y="0">e</tspan><tspan class="cls-53" x="15.56" y="0">j</tspan><tspan x="19.23" y="0">led</tspan><tspan class="cls-39" x="40.11" y="0">e</tspan><tspan x="47.4" y="0">r, </tspan><tspan class="cls-66" x="60.19" y="0">V</tspan><tspan class="cls-39" x="70.06" y="0">I</tspan><tspan x="74.29" y="0">A de</tspan><tspan class="cls-36" x="105.1" y="0">s</tspan><tspan class="cls-55" x="111.04" y="0">ig</tspan><tspan x="123" y="0">n &amp; </tspan><tspan class="cls-53" x="0" y="18">b</tspan><tspan class="cls-37" x="7.8" y="18">us</tspan><tspan class="cls-53" x="23.1" y="18">i</tspan><tspan class="cls-29" x="27.24" y="18">n</tspan><tspan x="35.79" y="18">ess</tspan></text>
  </g>
  <path class="cls-2" d="M63.3,794.19s-4.19,2.18-4.97,2.27-4.1-1.13-4.1-1.13c0,0-3.66-.87-3.92-1.13s.9-5.49.74-5.54-.57-.65-.13-1.61-1.13-2.27,1.4-2.44,3.84-.87,4.01,0,.66,4.71.46,5.15-1.33.3.32,1.11,2.35,1.42,3.05,1.86,3.14,1.48,3.14,1.48Z"/>
  <path class="cls-1" d="M54.05,786.56l-4.62-2.39-4.1,1.65s-3.66.87-4.97.26-3.23-6.89-3.31-7.33-.78-5.32-.78-5.32c0,0-2.01,4.71-2.44,6.1s-1.22,5.15-1.22,5.15c0,0,1.4,2.79,2.01,3.31s.87,3.18,4.1,2.85,8.98-3.64,8.98-3.64l5.15,1.13,1.22-1.79Z"/>
  <path class="cls-2" d="M33.39,786.18l-1.57-3.49s-1.83-2.7-1.92-4.8-.7-8.02-.7-8.46,5.23-4.46,5.76-4.63,5.84-2.87,6.28-3.13,20.97-3.78,24.16-5.42,3.19-2.63,6.46-3.97,12.25-2.56,13.47-1.75,11.43,3.67,11.43,3.67l6.58,6.45,5.52,2.74-3.53,1.4s-8.16-.79-10.21-2.83-2.04-2.86-4.08-2.86-15.24.82-15.24.82l-6.37,4.87h-8.87s-1.23.08-2.54,0-2.91-.53-3.98,0-5.67,1.49-6.8,1.58-4.43.22-4.78,1.59-4,5.89-5.04,6.24-2.09.43-2.26,1.74-1.78,10.24-1.78,10.24Z"/>
  <path class="cls-2" d="M111.02,758.6l-2.94-2.56s.38-.89,1.59-1.33,2.38-.66,2.38-.66c0,0,.07-.15,1.54.88s1.69,1.03,1.98,1.47-.66,3.08-1.1,4.18-1.57,3.29-1.85,4.21-2.02.92-2.95.7-2.69-.9-2.23-.9c2.05,0,3.58-6,3.58-6Z"/>
  <path class="cls-1" d="M199.23,845.89l-3.36-.94-7.64,1.95-.75,1.8v2.17l1.62,3.38,5.27,1.95s3.59-.45,4.19-1.5-5.21-2.99-5.21-2.99l5.87-5.8Z"/>
  <path class="cls-2" d="M201.41,847.95l-9.73,4.19-2.57,2.1,5.12,3.74s7.49,1.35,7.19.9.75-6.14,1.5-6.89-1.5-4.04-1.5-4.04Z"/>
  <path class="cls-1" d="M197.5,856.48s2.3,2.66,1.73,4.22-3.43,5.11-3.98,5.59-3.27,1.7-3.81,2.11-1.05.34-2.33,3.13-8.36,3.47-9.25,4.36c0,0,3.41-1.98,3.75-2.59s.95-1.74,1.05-2.61,2.35-4.48,2.83-4.51,1.84-1.19,3.41-1.87,4.9-2.25,5.79-3.61.82-4.22.82-4.22Z"/>
  <path class="cls-1" d="M407.93,359.34l13.33-4.95,5.99.06s2.86,5.07,2.99,5.48,1.91,5.17,2.18,5.72,1.91,4.22,2.04,4.63,1.72,8.94,1.47,9.71-.25,6.76.03,7.58,4.9,4.49,4.9,4.49c0,0-5.58-.5-6.12-1.61s-2.86-3.29-3.4-3.83-2.86-3.67-2.86-5.17,1.08-7.18.88-8.21-1.42-10.3-2.38-11.45-9.93-1.84-9.93-1.84l-9.11-.6Z"/>
  <path class="cls-2" d="M399.05,354.06s.87-5,1.98-5.95,5.41-.63,5.41-.63c0,0,4.13,3.78,4.77,5.04s3.66,2.2,3.66,2.2c0,0,4.93,2.2,4.93,3.62s-2.07,3.62-2.54,4.25-5.57,4.57-5.57,4.57c0,0-5.24-.63-5.24-1.57s-.96-2.2-1.76-4.72-2.54-3.36-3.5-3.57-2.14-3.24-2.14-3.24Z"/>
  <path class="cls-1" d="M509.21,429.56l-2.43-1.46s-.48-1.3,1.21-3.22,3.73-4.53,3.73-4.53c2.9-.58,10.22,2.61,10.22,2.61l-5.88,1.96-4.34,6.15-2.51-1.51Z"/>
  <path class="cls-2" d="M508.15,431.51l3.57,5.07s1.16-.65,2.61-1.34,7.54-3.16,7.61-3.14,1.07-1.61,1.94-3.05-1.94-6.08-1.94-6.08l-2.11-2.68-3.76,4.64-3.37,6.15-4.54.43Z"/>
  <path class="cls-1" d="M651.36,513.72c-.57-.28-2.31-.82-2.78-1.14s-2.08-1.5-2.2-1.76-.54-.64-.4-.9.75-2.89.78-3.04.71-1.6.71-1.6c0,0,.61.11.82.28s2.6.28,2.6.28c0,0,.85-.43,1.39-.18s1.57.64,1.85.96-.46,1.82-.85,2.1-1.42.82-1.57,1.42-.36,3.56-.36,3.56Z"/>
  <path class="cls-2" d="M651.4,507.34h3.42s1.28.89,1.42,1.25.53,1.64.46,1.92-.68,4.27-.68,4.27c0,0-1.32,1.03-3.17,1.6s-4.67,1.28-5.31,1.39-3.17-3.21-3.17-3.21c0,0,3.7-.32,4.77-.61s2.46-2.67,2.67-3.45-.43-3.17-.43-3.17Z"/>
  <path class="cls-1" d="M699.76,625.89l-3.6,1.26s-1.73.98-1.98,1.48-1.48,3.12-1.48,3.12c0,0,2.3,1.97,2.47,2.22s.73,2.79,1.06,3.04,4.92-.16,5.75-.82,3.45-3.04,3.61-3.28,3.04-2.95,2.95-4.18-3.36-3.2-3.36-3.2l-5.41.38Z"/>
  <path class="cls-2" d="M705.01,626.98s-.89,5.41-1.59,6.15-2.35,1.89-2.8,2.05-2.58,1.88-2.58,1.88c0,0,.08,1.57.82,1.49s5.09-.49,5.09-.49l4.18-.49s5.17-.25,5.41-1.56.33-6.48,0-7.38-5.74-6.65-5.74-6.65l-4.73,3.53,1.94,1.48Z"/>
  <g>
    <path class="cls-1" d="M713.46,644.68c-.5-.43-.84-.74-.97-.86-.65-.65-6.59-2.81-6.59-2.81v-6.28s-3.98,5.41-2.48,6.71c.59.51,1.77,1.74,2.97,3.04,2.34-.25,4.85-.09,7.07.21Z"/>
    <path class="cls-2" d="M733.49,689.71c-.22-3.25-3.9-16.02-4.11-17.54s-1.08-11.91-1.73-13.64-4.76-6.28-6.06-7.14c-1.06-.7-5.97-4.84-8.13-6.71-2.22-.3-4.74-.46-7.07-.21,1.83,1.97,3.72,4.1,3.72,4.1,0,0,1.08,1.08,1.52,3.46s.65,5.85.87,7.36,4.55,8.44,5.41,9.74c.87,1.3,5.85,11.91,5.85,12.77s-.22,8.01,0,10.18-2.38,5.2-2.38,5.2c0,0-8.23.65-9.74,0s-8.1-1.57-9.31.29c-1.21,1.86-7.14,4.04-7.14,4.04l10.73.87s8.11-1.3,9.19,0,6.09,1.52,8.67,2.16,6.27-.43,7.35-3.03c1.08-2.6,2.6-8.66,2.38-11.91Z"/>
  </g>
  <path class="cls-1" d="M622,654.83l-1.69-3.13s3.01-2.29,3.49-2.53,2.41.46,2.65.83,1.69,1.46,1.69,1.46l.84,5.3s.6,2.29-.6,2.05-4.46-.84-4.46-.84l-1.93-3.13Z"/>
  <path class="cls-2" d="M624.72,650.61s1.49-2.05,1.85-2.17,2.77-1.08,3.49,0,1.44,2.89,1.69,3.61.12,4.94,0,5.42-.6,2.65-1.08,2.53-3.85-1.19-3.85-1.19c0,0,1.57-.14,2.17-2.06s-.84-5.3-.84-5.3l-3.42-.84Z"/>
  <text class="cls-5" transform="translate(150.11 947.54)"><tspan class="cls-21" x="0" y="0">Pr</tspan><tspan class="cls-8" x="30.73" y="0">o</tspan><tspan class="cls-27" x="47.7" y="0">f</tspan><tspan x="59.35" y="0">essi</tspan><tspan class="cls-50" x="116.01" y="0">on</tspan><tspan x="154.92" y="0">elt</tspan></text>
  <text class="cls-5" transform="translate(518.88 755.93)"><tspan class="cls-31" x="0" y="0">P</tspan><tspan x="17.31" y="0">ers</tspan><tspan class="cls-16" x="64.4" y="0">on</tspan><tspan x="102.9" y="0">li</tspan><tspan class="cls-16" x="117.81" y="0">g</tspan><tspan x="137.99" y="0">t</tspan></text>
</svg>