<?xml version="1.0" encoding="UTF-8"?>
<svg id="Lag_4" data-name="Lag 4" xmlns="http://www.w3.org/2000/svg" viewBox="0 0 809.19 1301">
  <defs>
    <style>
      .cls-1 {
        fill: #be9daf;
      }

      .cls-1, .cls-2 {
        stroke: #dbdadc;
        stroke-miterlimit: 10;
      }

      .cls-3 {
        letter-spacing: 0em;
      }

      .cls-4 {
        font-family: AnticDidone-Regular, 'Antic Didone';
        font-size: 12px;
      }

      .cls-4, .cls-5 {
        fill: #231f20;
      }

      .cls-6 {
        letter-spacing: 0em;
      }

      .cls-2 {
        fill: #efc3d8;
      }

      .cls-7 {
        letter-spacing: -.11em;
      }

      .cls-8 {
        letter-spacing: -.11em;
      }

      .cls-9 {
        letter-spacing: -.07em;
      }

      .cls-10 {
        letter-spacing: -.09em;
      }

      .cls-11 {
        letter-spacing: -.08em;
      }

      .cls-12 {
        letter-spacing: -.09em;
      }

      .cls-13 {
        letter-spacing: -.09em;
      }

      .cls-14 {
        letter-spacing: -.09em;
      }

      .cls-15 {
        letter-spacing: -.07em;
      }

      .cls-16 {
        letter-spacing: -.07em;
      }

      .cls-17 {
        letter-spacing: -.07em;
      }

      .cls-18 {
        letter-spacing: -.07em;
      }

      .cls-19 {
        letter-spacing: -.08em;
      }

      .cls-20 {
        letter-spacing: -.08em;
      }

      .cls-21 {
        letter-spacing: -.07em;
      }

      .cls-22 {
        letter-spacing: -.06em;
      }

      .cls-23 {
        letter-spacing: -.06em;
      }

      .cls-24 {
        letter-spacing: -.06em;
      }

      .cls-25 {
        letter-spacing: -.06em;
      }

      .cls-26 {
        letter-spacing: -.06em;
      }

      .cls-27 {
        letter-spacing: -.06em;
      }

      .cls-28 {
        letter-spacing: -.13em;
      }

      .cls-29 {
        letter-spacing: -.16em;
      }

      .cls-30 {
        letter-spacing: -.12em;
      }

      .cls-31 {
        letter-spacing: -.12em;
      }

      .cls-32 {
        letter-spacing: -.02em;
      }

      .cls-33 {
        letter-spacing: -.02em;
      }

      .cls-34 {
        letter-spacing: -.03em;
      }

      .cls-35 {
        letter-spacing: -.02em;
      }

      .cls-36 {
        letter-spacing: -.03em;
      }

      .cls-37 {
        letter-spacing: -.03em;
      }

      .cls-38 {
        letter-spacing: -.02em;
      }

      .cls-39 {
        letter-spacing: -.02em;
      }

      .cls-40 {
        letter-spacing: -.02em;
      }

      .cls-41 {
        letter-spacing: -.02em;
      }

      .cls-42 {
        letter-spacing: -.02em;
      }

      .cls-43 {
        letter-spacing: -.05em;
      }

      .cls-44 {
        letter-spacing: -.05em;
      }

      .cls-45 {
        letter-spacing: -.05em;
      }

      .cls-46 {
        letter-spacing: -.05em;
      }

      .cls-47 {
        letter-spacing: -.05em;
      }

      .cls-48 {
        letter-spacing: -.05em;
      }

      .cls-49 {
        letter-spacing: -.04em;
      }

      .cls-50 {
        letter-spacing: -.04em;
      }

      .cls-51 {
        letter-spacing: -.04em;
      }

      .cls-52 {
        letter-spacing: -.04em;
      }

      .cls-53 {
        letter-spacing: -.04em;
      }

      .cls-54 {
        letter-spacing: -.04em;
      }

      .cls-55 {
        letter-spacing: -.05em;
      }

      .cls-56 {
        letter-spacing: -.05em;
      }

      .cls-57 {
        letter-spacing: -.04em;
      }

      .cls-58 {
        letter-spacing: -.04em;
      }

      .cls-59 {
        letter-spacing: -.05em;
      }

      .cls-60 {
        letter-spacing: -.03em;
      }

      .cls-61 {
        letter-spacing: -.03em;
      }

      .cls-62 {
        letter-spacing: -.03em;
      }

      .cls-63 {
        letter-spacing: -.03em;
      }

      .cls-64 {
        letter-spacing: -.03em;
      }

      .cls-65 {
        letter-spacing: -.03em;
      }

      .cls-66 {
        letter-spacing: -.01em;
      }

      .cls-67 {
        letter-spacing: 0em;
      }

      .cls-68 {
        letter-spacing: 0em;
      }

      .cls-5 {
        font-family: Agraham-PersonalUse, Agraham;
        font-size: 21px;
      }

      .cls-69 {
        letter-spacing: .01em;
      }
    </style>
  </defs>
  <path class="cls-2" d="M662.09,662.89s4.33,6.38,5.18,7.22,6.26,5.42,7.22,6.26,2.41,2.41,3.37,4.09,2.65,6.26,2.89,7.1,2.05,11.68,2.29,13.12,1.2,6.86,2.65,9.75,1.93,3.61,3.97,6.38,4.15,6.26,5.51,9.15,2.2,5.06,2.8,7.47,6.62,17.81,7.93,18.82,7.56,3.97,7.56,3.97l-9.3-2.22-4.26-3.11s-1.75-2.25-2.17-3.22-2.46-5.57-2.57-5.89-1.93-3.75-1.93-3.75c0,0,.75,7.39,1.39,8.15s0,1.5.75,3.75,2.57,5.94,3.11,6.29,3.97,2.71,4.29,3.57-1.23-1.07-2.86-1.5-5.5-.11-6.68-.96-2.04-7.82-2.14-8.47-.86-3.54-1.29-5.79-.54-7.93-.75-9.32-1.04-1.71-1.27-2.89-4.3-6.86-5.48-9.32-2.36-6.14-3.11-10.09-2.04-10.59-2.68-12.09-4.5-9-4.72-9.91-7.5-13.02-8.04-13.56-1.07-7.53-1.18-8.43-4.82-5.82-4.82-5.82l4.34,1.25Z"/>
  <path class="cls-1" d="M630.79,655.43s1.81-1,2.53-1.82,8.19-2.75,8.19-2.75c0,0,3.73,2.02,4.09,3.12s6.62,3.86,6.62,3.86l4.21,2.77s3.25-.6,5.42,1.08,3.73,5.78,3.73,5.78c0,0-2.17-2.41-4.09-2.77s-6.98-1.93-9.27-1.32-4.94-1.44-6.62-2.29-3.97-5.54-4.94-5.3-8.91,1.69-8.91,1.69l-.96-2.05Z"/>
  <path class="cls-2" d="M642.59,682.04l-3.2.42-6.91.91s-16.74-4.09-17.94-5.06-7.1-4.82-7.83-5.66-3.13-9.39-3.13-10.23,1.2-4.58,1.44-5.42,1.57-2.65,4.46-3.25,9.03.96,9.03.96l5.54,1.2-1.69,2.41s-6.26.96-6.74.96-2.17.24-2.77.6-1.2,2.53-.6,3.37,3.49,2.41,4.94,2.77,3.37.96,3.73,1.81,1.32,4.47,2.17,5,2.41,2.1,2.89,2.46,2.89,4.21,5.9,5.06,16.01-.6,16.01-.6l-5.3,2.29Z"/>
  <path class="cls-1" d="M699.9,700.82l-7.95,1.08s-9.51-3.61-10.48-4.46-3.97-4.21-5.3-5.06-7.83-3.49-8.67-3.97-8.55-3.25-8.55-3.25c0,0-8.67-3.73-10.48-3.49s-7.34,1.69-10.36,1.2c0,0,3.61-1.32,5.18-2.53s1.93-3.13,4.21-3.25,6.26-.12,8.55,0,8.31,1.57,9.63,2.65,9.15,6.74,9.99,7.71,8.19,5.54,9.63,6.02,3.01,4.33,4.46,5.06,10.11,2.29,10.11,2.29Z"/>
  <path class="cls-1" d="M681.98,617.38s1.85,6.65,5.91,8.5,5.85-.83,6.81,0,8.71.67,8.71.67c0,0,0-3.99-10.72-6.58l-10.72-2.59Z"/>
  <path class="cls-2" d="M661.06,536.45s-3.62,5.59-4.34,7.35-1.37,3.72-3.03,6.05-12.46,12.02-13.56,12.91-5.07,9.91-7.66,9.54-7.39,1.85-7.39,1.85c0,0-3.7,7.76-3.33,9.61s1.48,7.39,1.85,8.5,2.22,1.48,2.96,4.44,1.11,5.91,2.59,8.13,7.02,7.02,9.98,7.39,26.61,3.7,26.61,3.7c0,0,1.85,1.85,7.39,2.22s14.78,7.76,14.78,7.76l-2.22-8.5s-1.85-8.5-8.5-9.61-13.9-2.59-13.9-2.59c0,0-10.53-1.48-12.73-1.11s-5.15,4.8-8.11-2.59-3.33-11.83-2.96-13.68,2.22-4.43,2.22-6.65.7-11.24,2.38-11.91,4.03-2.14,6-3.99,6.78-3.7,8.99-9.61,1.99-19.21,1.99-19.21Z"/>
  <path class="cls-1" d="M653.36,513.72s-1.44,6.28-1.11,6.61,3,5.44,3.44,6.1,4.7,4.58,5.14,5.24,2.2,9.26,2.42,10.36-1.54,6.83-1.98,7.71-1.76-4.41-1.76-5.51-4.26-5.68-6.76-6.81-6.03-.03-6.8-3.99-2.6-10.36-1.57-11.46,8.98-8.26,8.98-8.26Z"/>
  <path class="cls-2" d="M569.14,443.11l11.9.83s8.98,5.54,9.39,5.49,2.92,1.4,4.8,3.28,7.72,5.22,13.15,7.72,15.45,8.56,16.28,8.98,6.47,1.25,7.1,6.47,4.38,13.36,4.38,13.36c0,0-.25,9.48,0,11.31s1.71,6.92,5.35,8.74c1.72.86,3.45,1.4,4.94,1.88,1.66.53,3.04,1,3.8,1.77,1.46,1.46-12.02,1.46-13.12,1.46s-2.55-1.09-3.28-2.91-4.74-6.56-5.47-9.11-.73-9.2-.73-10.97-.54-9.59-1.82-10.16-7.79-4.31-16.08-8.02c-7.6-3.4-12.33-6.02-12.33-6.02,0,0-4.61-4.35-10.57-6.73-3.36-1.34-2.91-3.64-8.02-11.04-3.01-4.37-9.69-6.32-9.69-6.32Z"/>
  <path class="cls-1" d="M519.04,428.43s-.83,5.91,0,6.95,2.9,2.71,2.9,2.71h4.37c.66,0,6.09.83,6.09.83l6.26,3.13,9.39,5.75s8.14,1.97,9.18,1.55,4.99-2.3,4.99-2.3c0,0,18.18-3.13,18.81-3.13s-5.01-1.88-6.89-2.3-13.36,0-13.99,0-7.1.63-7.72.83-3.76-1.25-5.43-2.5-9.73-5.22-10.09-5.64-5.78-1.46-5.78-1.46c-1.88.83-2.99,2.09-4.84,1.88s-.15.16-2.26-1.25-5.01-5.08-5.01-5.08Z"/>
  <path class="cls-2" d="M431.82,384.77l4.59,6.54,13.04,2.12s7.92.11,8.66.63,6.55,4.22,7.6,4.86,8.45,4.22,11.93,6.55,6.23,3.27,8.66,5.91,4.22,3.59,6.65,6.02,1.69,5.06,3.71,7.49,6.58,5.03,7.34,6.19,7.72,0,7.72,0l-7.72-4.63s-1.84-4.92-2.13-6.37-1.45-8.69-2.61-10.43-10.72-8.4-12.74-9.85-8.98-3.76-8.98-3.76c0,0-3.19-4.2-4.05-3.98s-1.36.36-4.01,0-9.31-.26-11.05-1.61-9.56-2.08-11-2.88-1.67,0-6.57,0-9.04-2.79-9.04-2.79Z"/>
  <path class="cls-2" d="M188.65,871.75l-8.79,4.14s-2.06,1.18-2.14,1.5-.96,2.16-.88,2.96-4.93,11.89-4.93,11.89c0,0-5.13,5.94-5.94,6.74s-7.28,5.67-9.44,6.74-15.92,2.43-15.92,2.43c0,0-10.79,4.86-13.49,9.17s-4.59,6.21-6.48,7.82-8.04,6.21-8.04,6.21l-3.76,8.9,5.32-5.67s1.35-.54,3.51-2.16,1.39-1.62,4.87-3.24,5.92-3.51,5.92-3.51c0,0,.54,1.62-.27,3.78s-8.9,5.94-9.98,7.28-5.28,4.05-5.61,5.4-1.12,7.01-1.12,7.01c0,0,1.06-2.7,2.41-4.32s3.51-3.78,3.51-3.78c0,0,3.81-2.97,5.14-3.24s2.41-.54,4.84-1.08,5.13-1.62,6.48-3.24,1.67-11.33,1.67-11.33c0,0,2.38-3.78,4-4.86s2.64-3.24,7.39-3.51,10.96-1.6,14.19-1.74,14.3-5,15.38-6.35,3.24-18.08,4.59-23.47c1.15-4.61,6.19-9.17,7.63-10.4.06-.05,0-.14-.07-.11Z"/>
  <path class="cls-2" d="M129.62,760.22s3.01,4.52,5.77,6.58,10.96,3.93,10.96,3.93h7.3s7.64.65,8.99,1.64,8.99,5.58,8.99,5.58c0,0,6.96,10.46,9.66,13.15s6.1,13.18,10.69,17.04,10.21,20.93,10.21,23.4.93,6.96.67,8.76-7.64,10.56-7.64,10.56c0,0,1.57-.67,4.04-2.47s5.62-3.59,7.19-5.17,4.49-8.31,3.82-10.11-5.84-9.21-5.84-12.58-1.83-10.43-1.83-10.43c0,0-2.94-4.4-4.82-9.12s-11.32-19.32-11.77-20.44-17.75-9.21-17.75-9.21c0,0-5.62-1.95-6.52-3.11s-7.41-3-9.66-3.43-10.33,0-10.33,0c0,0-1.47-.42-5.17-.99s-6.96-3.58-6.96-3.58Z"/>
  <path class="cls-1" d="M112.62,764.79s3.88-3.01,4.38-3.51-.5-1.06,2.17-1.45,6.02,0,6.02,0l4.85,3.97s4.51,2.5,5.35,3-2.17-2.29-2.51-3.57-3.51-5.46-3.68-6.3-4.18-2.89-4.18-2.89c0,0-3.68-1.05-4.85,0s-2.51,3.22-3.34,4.4-4.21,3.51-4.21,3.51v2.84Z"/>
  <path class="cls-1" d="M104.46,761.53v-3.03s1.5-1.26,2.15-2.12,2.69,0,3.06,0,1.87,1.5,1.87,1.5l1.07,1.93-2.95,3.99-5.21-2.27Z"/>
  <path class="cls-1" d="M54.84,790.32l.78-4.93,1.92.35s.78.09,1.13-.35,2.53-.7,2.53-.7c0,0,1.4.52,2.09,1.48s.87,2.44,1.13,2.97.96,4.27.96,4.27l-6.37,1.05-4.19-4.14Z"/>
  <path class="cls-2" d="M91.04,786.56l-16.39,1.28-8.71,3.26-5.38,3.9s8.71-1.02,9.73,0,11.01-3.9,11.01-3.9l9.73-4.55Z"/>
  <path class="cls-1" d="M189.1,764.79s-7.17,8.19-8.19,9.73-2.92,4.94-5.94,6.82-9.94,5.21-9.94,5.21c0,0-7.68.77-9.99,1.28s-7.94,2.82-9.99,3.07-14.6.26-15.88,0-14.58-.38-14.58-.38l-19.48-1.66-20.48-1.02s3.33-1.28,6.4-2.05,9.73-1.79,12.03-2.05,9.73.26,11.01.51,21.25.51,21.25.51c0,0,3.84,1.79,8.19,1.02s11.27-1.54,13.06-1.79,5.89-1.54,7.68-2.3,8.45-3.07,10.5-5.12,9.71-1.76,12.41-4.21,11.91-7.57,11.91-7.57Z"/>
  <path class="cls-1" d="M179.84,712.82l-2.64,1.01s-.93.09-1.2,1.92,0,6.59,0,6.59c0,0,3.29,3.11,3.48,3.75s5.4,2.75,5.67,2.56,3.96-3.75,3.96-3.75l-9.27-12.08Z"/>
  <path class="cls-2" d="M183.51,724.52s5.59-2.65,10.79,2.75c.73.76,3.94,5.58,3.41,7.74l-.89,7.74-.72,12.41-3.66,8.99s-9.18,6.66-9.96,8.09,6.45-10.43,6.62-11.33,3.09-5.94,1-10.79,0-9.71,0-9.71c0,0,0-6.87-2.09-9.53-3.75-4.77-4.5-6.35-4.5-6.35Z"/>
  <path class="cls-2" d="M177.19,710.77s8.14-1.52,8.87-1.34,3.04,2.11,3.04,2.11l.43.82s-1.84,3.77-1.66,4.04,2.07.8,2.35,1.35,1.24,2.75,1.24,2.75c0,0-1.78,3.94-2.36,4.39s-5.61,1.19-5.61,1.19l-1.56-1.01-4.75-14.31Z"/>
  <path class="cls-1" d="M143.91,653.07s6.49,9.62,8.79,10.36,6.37,3.33,6.37,3.33c0,0,12.2,4.76,14.42,6.26s8.51,2.98,10.36,5.2,4.44,7.77,5.18,9.99-4.07,13.31-4.07,13.31c0,0-1.11,4.07-1.85,8.51s-1.11,13.68-1.11,13.68c0,0-4.07-10.72-4.81-12.94s-1.11-9.99-.37-12.2,4.44-5.92,4.81-8.51-3.7-8.88-3.7-8.88c0,0-3.7-3.33-4.81-2.59s-14.42,0-14.42,0c0,0-8.51-5.55-11.46-13.31s-3.33-12.2-3.33-12.2Z"/>
  <path class="cls-1" d="M59.46,579.18l-5.99.82-3.99,1.33s-1.57,2.15-1.37,3.52-.02,4.7-.02,4.7l2.56,1.37,4.5,1.17h3.33l3.91-6.46-2.94-6.46Z"/>
  <path class="cls-1" d="M43.8,567.44s8.22,3.13,8.81,3.13,3.72,1.96,3.72,1.96c0,0,2.15,1.37,2.94,2.15s2.15,3.33,2.15,4.31-2.15,4.89-2.15,4.89l-1.96-5.48-7.05-3.91-6.46-7.05Z"/>
  <path class="cls-2" d="M119.38,475.49l-2.3,1.19s-1.2,1.28-.89,3.16,3.19,6.05,3.19,6.05c0,0,1.73,1.44,3.02.86s3.02-.86,3.31-1.73l.29-.86,4.17-4.75-6.04-3.49-4.75-.43Z"/>
  <polygon class="cls-1" points="209.65 516.32 210.24 513.11 204.03 510.14 198.85 512.38 199.5 520.71 209.65 516.32"/>
  <path class="cls-1" d="M361.95,496.09s-5.52-.41-7.37-.13-6.59,1.38-7.91-.09-8.44-2.01-10.28-1.74-9.23,1.11-10.55,1.21-6.06,0-6.06,0l11.34-4.87s2.37-1.82,3.69-2.51,8.96-2.27,10.55-1.61,10.81,4.42,11.86,4.12,13.13-1.09,13.13-1.09l-8.4,6.72Z"/>
  <path class="cls-1" d="M367.99,479.81l-7.3,5.22s-2.29,1.55,1.01,4.6.25,6.46.25,6.46l6.33-.27,5.34-6.8-5.63-9.21Z"/>
  <path class="cls-1" d="M377.57,487.25l-5.84,4.58s1.76-10.16,1.9-10.34,7.06-9.62,7.06-9.62c0,0,3.02-10.13,3.99-11.29s11.2-12.75,11.2-12.75l-13.83,36.02-4.48,3.41Z"/>
  <path class="cls-2" d="M407.93,359.34s-2.08-.66-7.07,4.78-7.16,12.6-7.45,16.48-.49,8.36,0,9.85,4.41,11.3,4.41,11.3c0,0,1.56,3.14,0,4.71s-4.9,6.67-4.41,9.03-.49,5.89,0,8.64-2.65,16.09-2.65,16.09c0,0-.39,5.1,0,6.28s-2.37,10.55-2.58,14.47-8.37,21.41-8.76,22.59-5.53,6.91-5.53,6.91c0,0,6.28-3.53,8.24-4.71s15.8-12.95,16.93-15.7,8.11-34.18,5.41-37.31-2.89-7.48-3.19-7.85.02-12.15.45-13.72,1.61-10.6,2.39-13.74,1.96-12.17,1.57-14.13-2.48-21.88,2.25-23.95Z"/>
  <path class="cls-1" d="M310.41,387.56s16.48-2.11,17.06-2.49,9.18-3.45,10.25-4.03,17.29-7.69,17.82-7.85,9.89.96,12.19-1.83,24.92-6.62,24.92-6.62l5.18-7.48s-6.33,2.01-7.86,2.06-8.05,2.71-9.01,2.43-3.07-.68-5.56,0-.96-1.64-5.75,0-6.71,1.04-7.67,2.01-9.2,4.23-12.08,5.57-14.38,2.49-16.87,3.07-4.22,1.34-5.56,2.49-1.34,1.92-3.83,3.26-9.2,4.6-12.08,5.75-1.15,3.64-1.15,3.64Z"/>
  <path class="cls-2" d="M401.27,354.39s-5.75-.76-10.74-2.1-7.86-1.15-9.01-2.11-3.26-1.67-4.22-2.75-4.79-5.11-7.09-6.07-7.09-2.49-7.67-2.68-4.03.96-8.43,0-9.2-1.73-10.93-1.53-16.48,2.68-17.06,2.3-15.72-1.53-17.83-1.53-6.9-.77-9.2.38-11.88,7.46-11.88,7.46c0,0-2.11,4.77-3.26,5.75s-9.58,7.4-9.78,7.83.96,7.33,1.53,9.82,2.99,8.05,3.22,8.63-.42-.77,0,2.3,1.19,6.13,2.15,7.09,7.09,1.34,8.82,1.15,10.16-.67,11.69.05,11.5,2.06,11.5,2.06l9.39-4.6s-8.24-1.73-10.93-1.92-8.24-1.15-8.24-1.15l-4.03-5.75s-2.88-2.49-5.18-3.64-3.45.01-3.83-2.01-1.34-4.73-.77-7.59,3.45-11.72,3.45-12.27,2.68-5.08,4.22-5.59,9.58-1.66,9.58-1.66c0,0,7.86-.76,8.82,0s3.64,3.06,4.98,4.21,5.75,6.11,7.86,5.93,12.65-.37,13.42-.95,5.75-3.07,7.67-3.07,10.54,1.3,11.12,1.13,3.07,2.68,5.37,2.89,9.2,1.16,10.54,1.74,6.9,2.32,7.48,2.02,4.89-4.79,5.71-3.7,8.1,2.82,8.1,2.82l3.45-2.89Z"/>
  <path class="cls-1" d="M534.19,331.98s.48,5.89,0,6.84-7.19,8.35-7.57,8.61-6.69,1.37-8.59,1.85-6.65,2.22-6.65,2.22l-7.37,2.95,12.12,2.19,15.92-2.19,7.83-13.73-5.7-8.75Z"/>
  <path class="cls-2" d="M426.83,338.74s-1.32-2.65,3.31-5.03,16.42-7.02,16.42-7.02l10.64-6.87s7.13-4.51,10.22-4.75,13.78-1.43,13.78-1.43c0,0,3.09,1.19,4.28,0s4.99-3.09,4.99-3.09c0,0,3.8-1.43,4.51-1.43s12.59,1.19,12.59,1.19l16.87,1.19c3.8.48,5.23.95,7.6,2.38s5.7,3.8,7.37,7.37-1.66,11.41-1.43,13.07,1.17,2.14,1.89,6.42-5.93,10.78-5.93,10.78c0,0,4.99-15.29.71-16.96s-5.23-2.29-5.94-4.23-2.85-5.75-2.85-5.75l-5.94-2.38s-8.55.48-10.22,1.19-4.51.95-7.37,2.61-1.43,6.42-12.83,7.13-21.79-2.33-27.8-.48-34.88,6.09-34.88,6.09Z"/>
  <path class="cls-1" d="M407.93,354.45s-6.5-3.18,0-6.96,9.43-5.73,9.43-5.73l6.61-4.39,1.46-.69,2.67-1.26,14.3-1.65s22.85-1.24,24.31-1.73-10.47,2.2-11,2.46-8.34,4.77-9.27,5.69-4.77,2.25-4.77,2.25c0,0-3.66-3.05-4.54-1.72s-1.41,3.31-1.55,3.71-1.06,3.35-2.78,3-4.37-.05-5.56,0-4.9,1.24-5.43,1.64-2.38,1.96-3.97,2.44-9.89,2.95-9.89,2.95Z"/>
  <path class="cls-1" d="M403.15,352.46l-4.1-.96-5.65,5.16s2.1,3.06,2.87,4.01c.76.96,2.67,3.06,4.58,3.44,1.91.38,9.17,3.06,9.17,3.06l-6.88-14.71Z"/>
  <path class="cls-2" d="M526.31,355.24s-12.8,2.71-13.31,3.05-8.92,4.8-15.27,5.66-12.69.69-16.47,0-9.61-3.43-10.63-3.6-6.35-1.68-7.89-1.68-1.89,0-3.26,0-8.41,1.77-9.61.83-2.92-3.47-5.15-2.85-5.32,2.85-6.69,2.85-11.39-1.51-11.39-1.51l-6.85-1.34-7.14.62,7.89-5.76,3.42-2.64s4.24,1.43,6.53,0,5.83,1.54,6.69,1.89,4.97.86,6.17,0,3.09-1.29,5.49-2.27,11.15-2.56,11.15-2.56c0,0,3.6-.21,4.12,0s.86.09,4.29,1.52,6.52-.06,7.72,0,5.66-2.86,7.72-3.12,11.83.19,12.35,1.6,4.14,3.64,7.82,4.49,22.3,4.84,22.3,4.84Z"/>
  <polygon class="cls-2" points="377.02 476.72 365.25 476.72 363.68 484.18 366.06 488.29 367.6 495.95 371.92 495.95 377.02 476.72"/>
  <path class="cls-2" d="M344.17,486.33c-5.46,1.61-5.93,3.56-7.78,7.78s-5.01,8.96-5.01,8.96c0,0-8.52,6.77-9.4,8.92s-7.48,7.95-7.48,7.95c0,0-7.65,3.16-11.86,4.48s-9.23,1.32-16.87,1.32-12.92-.26-17.93-1.05-21.62-3.16-22.41-2.9-28.09-9.98-28.09-9.98l-8.88,3.77,7.35-9.38c7.66-2.04,11.23.91,16.33,2.49s7.14,0,7.14,0c0,0,4.08,1.47,6.63,0s6.63-1.59,11.74,0,22.46,4.65,25.52,4.65,12.76-1.53,14.29-2.04,12.14-9.43,17.61-13.68,21.61-10.3,21.61-10.3l7.48-1Z"/>
  <path class="cls-2" d="M206.22,516.7s-3.85-2.39-5.47-.45-2.45,4.01-1.49,5.07,1.24-.54,3.62,2.12,1.95,1,4.82,1.28,3.76-3.02,3.76-3.02l4.12-4.13-2.19-5.07-7.17,4.2Z"/>
  <path class="cls-1" d="M205.5,518.74s1.71-13.58-2.96-15.81l6.87,3.27.82,6.91-4.73,5.63Z"/>
  <path class="cls-1" d="M121.6,475.49h-4.6s-.72,2.45-1.15,3.16-1.01,1.58-.58,2.16,1.15,2.59,1.58,3.02,2.82,2.27,2.82,2.27l2.44-7.81-.51-2.8Z"/>
  <g>
    <path class="cls-2" d="M141.35,490.79c-.12-.44-.78-1.7,0,0h0Z"/>
    <path class="cls-1" d="M137.2,479.51c-.32-.32-1.27-1.21-2.38-2.24l-7.75-.92-3.27-.47c2.55,1.91,4.75,4.51,4.75,4.51,0,0,6.23.17,6.87.81s3.14,2.45,3.99,2.87c.85.43,1.47,6.53,1.9,6.85-.85-1.59-.95-6.89-1.63-8.47-.68-1.58-1.58-2.03-2.48-2.93Z"/>
    <path class="cls-2" d="M199.04,501h-9.48s-8.72.43-12.76,0-13.82,0-13.82,0l-6.38-2.34s-2.24-2.97-3.57-6.06c-1.32-3.08-2.39-4.78-2.39-4.78l-4.04-4.04c-.85-.85-7.02-5.95-7.02-5.95l-4.79-.57c1.11,1.03,2.07,1.93,2.38,2.24.9.9,1.81,1.35,2.48,2.93.68,1.58.78,6.88,1.63,8.47.07.05.07,0,.04-.12-.78-1.7-.12-.44,0,0,.18.4.44.94.81,1.71,2.34,4.89,2.34,5.74,3.19,7.44.85,1.7-1.28.38,2.13,3.27,3.4,2.89-1.06,2.47,7.02,5.45,8.08,2.98,21.05,1.76,21.05,1.76,0,0,4.89-1.55,5.74-1.98.85-.43,6.83.44,6.83.44,0,0,2.52.2,2.95-.44.43-.64,5.95-2.12,5.95-2.12,0,0,2.9-.47,4.04,0,1.55.64,6.91-.82,6.91-.82l-8.92-4.5Z"/>
  </g>
  <path class="cls-2" d="M121.32,480.8l-8.49-1.51s-2.88,1.81-4.12,2.05-17.21-7.05-17.21-7.05c0,0-5.51-1.65-6.06-1.79s-4.41,0-4.41,0c0,0-7.57-.4-7.98-.06s-11.64,1.59-12.71,3.06-11.75,7.01-12.82,7.71-12.82,7.16-12.82,7.16c0,0-10.95,8.23-10.95,10.64s-1.6,8.12-1.6,9.67v8.07c0,4.7,1.87,11.64,2.94,13.25s4.81,10.68,5.61,13.89,1.34,9.88,1.6,12.02,12.82,16.29,12.82,16.29c0,0,6.41,1.6,8.28,2.4s-4.01-7.48-6.95-10.42-4.81-9.88-4.81-11.22-3.47-16.03-3.21-18.43,0-3.21-1.6-8.01-2.14-8.01-1.6-10.95,2.94-10.68,3.47-12.82,4.73-9.79,4.64-10.77,5.25-8.46,7.65-8.99,9.62-1.87,10.95-.8,7.48-.97,7.48-.97l10.15-2.4,5.34.39,10.42,4.91s7.21.83,8.01.78,8.55-.55,8.55-.55l7.02-3.13,1.71-.19.69-2.21Z"/>
  <g>
    <path class="cls-1" d="M69.35,595.59l-8.7-5.81s-.29,2.4.77,5.04c.25.63.64,1.38,1.1,2.18,1.92-.29,5.71-.88,5.8-1.11.03-.07.43-.17,1.03-.29Z"/>
    <path class="cls-2" d="M148.75,657.31c0-3.36.56-12.32.56-15.68s-7.52-14.56-7.96-16.8-7.37-15.12-11.19-15.68c-3.82-.56-21.92-2.8-23.51-2.24-1.59.56-16.15-3.92-16.15-3.92l-8.4-7.11h-12.32l-.44-.29c-.6.12-1.01.22-1.03.29-.09.23-3.88.82-5.8,1.11,1.45,2.53,3.57,5.48,4.19,6.18.81.92,11.23,8.36,11.23,8.36h15.93l15.68,8.26s8.05-.56,9.06,0c1.02.56,8.3,5.04,8.3,5.04,0,0,7.41,8.27,7.91,10.57s4.49,8.11,2.74,11.27c-1.76,3.15,3.43,13.44,3.43,13.44l11.73,12.91s-3.95-12.35-3.95-15.71Z"/>
  </g>
  <path class="cls-2" d="M61.42,581.14l-3.45,4.5-7.31,5.28,4.59,4.7s1.28.59,2.85,0,3.25-3.03,5.25-4.25,3.36-1.42,3.36-1.42c0,0-.2-2.94,0-4.31s-5.28-4.5-5.28-4.5Z"/>
  <g>
    <text class="cls-4" transform="translate(266.02 442.9)"><tspan class="cls-23" x="0" y="0">2</tspan><tspan class="cls-17" x="6.16" y="0">0</tspan><tspan class="cls-50" x="13.72" y="0">2</tspan><tspan x="20.06" y="0">3-</tspan><tspan class="cls-22" x="33.98" y="0">2</tspan><tspan class="cls-16" x="40.14" y="0">0</tspan><tspan class="cls-32" x="47.7" y="0">2</tspan><tspan x="54.3" y="0">5</tspan></text>
    <text class="cls-4" transform="translate(272.28 457.45)"><tspan class="cls-27" x="0" y="0">M</tspan><tspan class="cls-53" x="9.14" y="0">u</tspan><tspan class="cls-26" x="16.45" y="0">l</tspan><tspan class="cls-46" x="19.42" y="0">t</tspan><tspan class="cls-53" x="23.02" y="0">i</tspan><tspan class="cls-26" x="26.33" y="0">m</tspan><tspan x="36.52" y="0">e</tspan><tspan class="cls-53" x="42.59" y="0">d</tspan><tspan x="49.06" y="0">iede</tspan><tspan class="cls-33" x="71.94" y="0">s</tspan><tspan class="cls-53" x="76.69" y="0">ig</tspan><tspan x="86.25" y="0">n</tspan><tspan class="cls-38" x="0" y="14.4">S</tspan><tspan class="cls-61" x="6.08" y="14.4">t</tspan><tspan class="cls-45" x="9.92" y="14.4">u</tspan><tspan class="cls-53" x="17.1" y="14.4">d</tspan><tspan x="23.57" y="14.4">i</tspan><tspan class="cls-38" x="27.36" y="14.4">e</tspan><tspan x="33.19" y="14.4">l</tspan><tspan class="cls-66" x="36.88" y="14.4">e</tspan><tspan class="cls-49" x="42.83" y="14.4">g</tspan><tspan class="cls-27" x="49.11" y="14.4">a</tspan><tspan x="54.86" y="14.4">t </tspan><tspan class="cls-27" x="62.65" y="14.4">f</tspan><tspan class="cls-39" x="66.25" y="14.4">r</tspan><tspan x="71.34" y="14.4">a </tspan><tspan class="cls-42" x="81.39" y="14.4">H</tspan><tspan x="89.39" y="14.4">K</tspan></text>
  </g>
  <g>
    <text class="cls-4" transform="translate(84.49 441.56)"><tspan class="cls-23" x="0" y="0">2</tspan><tspan class="cls-12" x="6.16" y="0">0</tspan><tspan class="cls-11" x="13.44" y="0">1</tspan><tspan x="18.34" y="0">7-</tspan><tspan class="cls-23" x="32.3" y="0">2</tspan><tspan class="cls-17" x="38.46" y="0">0</tspan><tspan class="cls-32" x="46.02" y="0">2</tspan><tspan x="52.62" y="0">5</tspan></text>
    <text class="cls-4" transform="translate(90.75 456.12)"><tspan class="cls-60" x="0" y="0">Un</tspan><tspan class="cls-6" x="15.58" y="0">d</tspan><tspan class="cls-39" x="22.52" y="0">e</tspan><tspan x="28.36" y="0">r</tspan><tspan class="cls-37" x="33.68" y="0">v</tspan><tspan class="cls-33" x="40.75" y="0">i</tspan><tspan x="44.24" y="0">s</tspan><tspan class="cls-39" x="49.3" y="0">e</tspan><tspan x="55.13" y="0">r, </tspan><tspan class="cls-59" x="65.36" y="0">S</tspan><tspan class="cls-24" x="71.12" y="0">yh</tspan><tspan class="cls-53" x="85.15" y="0">o</tspan><tspan x="91.45" y="0">ld </tspan><tspan class="cls-57" x="105.67" y="0">f</tspan><tspan class="cls-53" x="109.5" y="0">o</tspan><tspan x="115.8" y="0">r </tspan><tspan class="cls-60" x="0" y="14.4">U</tspan><tspan class="cls-9" x="8.38" y="14.4">n</tspan><tspan x="15.05" y="14.4">g</tspan><tspan class="cls-38" x="21.78" y="14.4">I</tspan><tspan class="cls-57" x="25.16" y="14.4">A</tspan><tspan class="cls-26" x="32.71" y="14.4">a</tspan><tspan class="cls-46" x="38.46" y="14.4">r</tspan><tspan class="cls-26" x="43.19" y="14.4">h</tspan><tspan class="cls-33" x="50" y="14.4">u</tspan><tspan x="57.49" y="14.4">s</tspan></text>
  </g>
  <g>
    <text class="cls-4" transform="translate(64.77 558.63)"><tspan class="cls-23" x="0" y="0">2</tspan><tspan class="cls-12" x="6.16" y="0">0</tspan><tspan class="cls-10" x="13.44" y="0">1</tspan><tspan x="18.25" y="0">6</tspan><tspan class="cls-32" x="25.46" y="0">-</tspan><tspan class="cls-26" x="32.4" y="0">N</tspan><tspan x="40.07" y="0">u</tspan></text>
    <text class="cls-4" transform="translate(71.03 573.19)"><tspan class="cls-38" x="0" y="0">S</tspan><tspan class="cls-35" x="6.08" y="0">t</tspan><tspan class="cls-27" x="10" y="0">a</tspan><tspan class="cls-49" x="15.74" y="0">r</tspan><tspan class="cls-58" x="20.63" y="0">t</tspan><tspan class="cls-41" x="24.3" y="0">e</tspan><tspan x="30.19" y="0">t t</tspan><tspan class="cls-40" x="42.18" y="0">ø</tspan><tspan class="cls-17" x="49.4" y="0">j</tspan><tspan class="cls-36" x="51.98" y="0">v</tspan><tspan class="cls-54" x="59.05" y="0">i</tspan><tspan class="cls-44" x="62.36" y="0">r</tspan><tspan class="cls-33" x="67.09" y="0">k</tspan><tspan class="cls-69" x="73.77" y="0">s</tspan><tspan class="cls-53" x="78.99" y="0">o</tspan><tspan class="cls-26" x="85.29" y="0">mh</tspan><tspan x="102.3" y="0">ed</tspan><tspan class="cls-66" x="0" y="14.4">O</tspan><tspan class="cls-27" x="7.92" y="14.4">u</tspan><tspan x="14.99" y="14.4">t</tspan><tspan class="cls-60" x="19.19" y="14.4">O</tspan><tspan x="26.87" y="14.4">f</tspan><tspan class="cls-52" x="31.19" y="14.4">M</tspan><tspan x="40.56" y="14.4">y</tspan><tspan class="cls-53" x="48.4" y="14.4">H</tspan><tspan class="cls-27" x="56.14" y="14.4">a</tspan><tspan class="cls-60" x="61.88" y="14.4">n</tspan><tspan x="69.08" y="14.4">d</tspan></text>
  </g>
  <g>
    <text class="cls-4" transform="translate(191.46 709.23)"><tspan class="cls-62" x="0" y="0">A</tspan><tspan class="cls-61" x="7.63" y="0">p</tspan><tspan class="cls-46" x="14.11" y="0">r</tspan><tspan class="cls-53" x="18.84" y="0">i</tspan><tspan x="22.15" y="0">l-</tspan><tspan class="cls-26" x="33.04" y="0">j</tspan><tspan class="cls-53" x="35.74" y="0">u</tspan><tspan class="cls-27" x="43.04" y="0">n</tspan><tspan x="49.88" y="0">i </tspan><tspan class="cls-23" x="57.26" y="0">2</tspan><tspan class="cls-12" x="63.42" y="0">0</tspan><tspan class="cls-21" x="70.7" y="0">1</tspan><tspan x="75.68" y="0">5</tspan></text>
    <text class="cls-4" transform="translate(197.72 723.79)"><tspan class="cls-53" x="0" y="0">P</tspan><tspan class="cls-38" x="6.02" y="0">r</tspan><tspan class="cls-26" x="11.11" y="0">a</tspan><tspan class="cls-43" x="16.86" y="0">k</tspan><tspan class="cls-46" x="23.3" y="0">t</tspan><tspan class="cls-53" x="26.9" y="0">i</tspan><tspan x="30.22" y="0">k </tspan><tspan class="cls-24" x="40.79" y="0">h</tspan><tspan x="47.65" y="0">os </tspan><tspan class="cls-53" x="63.07" y="0">Mo</tspan><tspan class="cls-27" x="78.75" y="0">lu</tspan><tspan x="88.79" y="0">u</tspan></text>
  </g>
  <g>
    <text class="cls-4" transform="translate(503.75 651.46)"><tspan class="cls-59" x="0" y="0">A</tspan><tspan class="cls-53" x="7.48" y="0">u</tspan><tspan class="cls-65" x="14.78" y="0">g</tspan><tspan class="cls-34" x="21.14" y="0">u</tspan><tspan class="cls-32" x="28.63" y="0">s</tspan><tspan x="33.42" y="0">t </tspan><tspan class="cls-23" x="41.21" y="0">2</tspan><tspan class="cls-12" x="47.36" y="0">0</tspan><tspan class="cls-19" x="54.65" y="0">1</tspan><tspan x="59.56" y="0">9</tspan></text>
    <text class="cls-4" transform="translate(510.01 666.02)"><tspan class="cls-53" x="0" y="0">Gi</tspan><tspan class="cls-46" x="10.2" y="0">f</tspan><tspan x="13.92" y="0">t </tspan><tspan class="cls-26" x="21.71" y="0">m</tspan><tspan x="31.9" y="0">ed </tspan><tspan class="cls-53" x="48.5" y="0">Ji</tspan><tspan class="cls-6" x="54.15" y="0">m </tspan><tspan class="cls-63" x="68.65" y="0">A</tspan><tspan class="cls-53" x="76.28" y="0">ll</tspan><tspan class="cls-33" x="82.69" y="0">i</tspan><tspan class="cls-32" x="86.18" y="0">s</tspan><tspan class="cls-58" x="90.97" y="0">t</tspan><tspan class="cls-39" x="94.64" y="0">e</tspan><tspan x="100.47" y="0">r </tspan><tspan class="cls-53" x="0" y="14.4">P</tspan><tspan x="6.02" y="14.4">l</tspan><tspan class="cls-62" x="9.71" y="14.4">o</tspan><tspan class="cls-53" x="16.08" y="14.4">ug</tspan><tspan class="cls-11" x="29.64" y="14.4">f</tspan><tspan class="cls-38" x="33" y="14.4">e</tspan><tspan class="cls-26" x="38.83" y="14.4">l</tspan><tspan x="41.8" y="14.4">t</tspan></text>
  </g>
  <g>
    <text class="cls-4" transform="translate(678.41 597.89)"><tspan x="0" y="0">S</tspan><tspan class="cls-38" x="6.32" y="0">e</tspan><tspan class="cls-53" x="12.16" y="0">p</tspan><tspan class="cls-58" x="18.52" y="0">t</tspan><tspan class="cls-39" x="22.19" y="0">e</tspan><tspan class="cls-27" x="28.02" y="0">m</tspan><tspan class="cls-66" x="38.21" y="0">b</tspan><tspan class="cls-38" x="44.81" y="0">e</tspan><tspan x="50.64" y="0">r </tspan><tspan class="cls-23" x="59.55" y="0">2</tspan><tspan class="cls-12" x="65.71" y="0">0</tspan><tspan class="cls-19" x="72.99" y="0">1</tspan><tspan x="77.9" y="0">9</tspan></text>
    <text class="cls-4" transform="translate(684.66 612.45)"><tspan class="cls-18" x="0" y="0">F</tspan><tspan class="cls-40" x="5.34" y="0">ø</tspan><tspan class="cls-66" x="12.56" y="0">r</tspan><tspan class="cls-32" x="17.77" y="0">s</tspan><tspan class="cls-58" x="22.56" y="0">t</tspan><tspan class="cls-3" x="26.23" y="0">e s</tspan><tspan class="cls-40" x="40.94" y="0">ø</tspan><tspan x="48.17" y="0">n</tspan></text>
  </g>
  <g>
    <text class="cls-4" transform="translate(547.48 522.04)"><tspan class="cls-53" x="0" y="0">J</tspan><tspan class="cls-27" x="2.34" y="0">an</tspan><tspan class="cls-66" x="14.93" y="0">u</tspan><tspan class="cls-27" x="22.6" y="0">a</tspan><tspan x="28.34" y="0">r </tspan><tspan class="cls-23" x="37.26" y="0">2</tspan><tspan class="cls-17" x="43.41" y="0">0</tspan><tspan class="cls-46" x="50.97" y="0">2</tspan><tspan x="57.24" y="0">2</tspan></text>
    <text class="cls-4" transform="translate(553.74 536.59)"><tspan class="cls-18" x="0" y="0">F</tspan><tspan class="cls-40" x="5.34" y="0">ø</tspan><tspan class="cls-66" x="12.56" y="0">r</tspan><tspan class="cls-32" x="17.77" y="0">s</tspan><tspan class="cls-58" x="22.56" y="0">t</tspan><tspan class="cls-3" x="26.23" y="0">e </tspan><tspan class="cls-67" x="35.89" y="0">d</tspan><tspan class="cls-26" x="42.72" y="0">a</tspan><tspan class="cls-60" x="48.47" y="0">t</tspan><tspan class="cls-58" x="52.31" y="0">t</tspan><tspan class="cls-38" x="55.98" y="0">e</tspan><tspan x="61.81" y="0">r</tspan></text>
  </g>
  <g>
    <text class="cls-4" transform="translate(524.06 411.41)"><tspan class="cls-62" x="0" y="0">A</tspan><tspan class="cls-61" x="7.63" y="0">p</tspan><tspan class="cls-46" x="14.11" y="0">r</tspan><tspan class="cls-53" x="18.84" y="0">i</tspan><tspan x="22.15" y="0">l </tspan><tspan class="cls-23" x="29.42" y="0">2</tspan><tspan class="cls-17" x="35.58" y="0">0</tspan><tspan class="cls-32" x="43.14" y="0">2</tspan><tspan x="49.74" y="0">5</tspan></text>
    <text class="cls-4" transform="translate(530.31 425.96)"><tspan class="cls-62" x="0" y="0">A</tspan><tspan class="cls-61" x="7.63" y="0">n</tspan><tspan x="14.83" y="0">d</tspan><tspan class="cls-38" x="21.78" y="0">e</tspan><tspan x="27.61" y="0">n </tspan><tspan class="cls-66" x="38.76" y="0">d</tspan><tspan class="cls-27" x="45.59" y="0">a</tspan><tspan class="cls-60" x="51.34" y="0">t</tspan><tspan class="cls-58" x="55.18" y="0">t</tspan><tspan class="cls-39" x="58.85" y="0">e</tspan><tspan x="64.68" y="0">r</tspan></text>
  </g>
  <g>
    <text class="cls-4" transform="translate(29.2 716.51)"><tspan class="cls-23" x="0" y="0">2</tspan><tspan class="cls-12" x="6.16" y="0">0</tspan><tspan class="cls-31" x="13.44" y="0">1</tspan><tspan x="17.81" y="0">4-</tspan><tspan class="cls-23" x="32.22" y="0">2</tspan><tspan class="cls-12" x="38.38" y="0">0</tspan><tspan class="cls-21" x="45.66" y="0">1</tspan><tspan x="50.64" y="0">5</tspan></text>
    <text class="cls-4" transform="translate(35.46 731.06)"><tspan class="cls-37" x="0" y="0">P</tspan><tspan class="cls-41" x="6.18" y="0">B</tspan><tspan x="12.56" y="0">A </tspan><tspan class="cls-64" x="24.19" y="0">F</tspan><tspan class="cls-68" x="29.95" y="0">a</tspan><tspan class="cls-33" x="36.32" y="0">s</tspan><tspan class="cls-26" x="41.08" y="0">h</tspan><tspan x="47.89" y="0">i</tspan><tspan class="cls-53" x="51.68" y="0">o</tspan><tspan class="cls-6" x="57.98" y="0">n de</tspan><tspan class="cls-34" x="82.15" y="0">s</tspan><tspan class="cls-53" x="86.9" y="0">ig</tspan><tspan class="cls-6" x="96.47" y="0">n</tspan><tspan class="cls-66" x="0" y="14.4">V</tspan><tspan class="cls-38" x="7.9" y="14.4">I</tspan><tspan x="11.28" y="14.4">A </tspan><tspan class="cls-67" x="22.91" y="14.4">D</tspan><tspan class="cls-3" x="30.34" y="14.4">e</tspan><tspan class="cls-33" x="36.41" y="14.4">s</tspan><tspan class="cls-53" x="41.16" y="14.4">ig</tspan><tspan class="cls-3" x="50.72" y="14.4">n &amp; </tspan><tspan class="cls-54" x="75.79" y="14.4">b</tspan><tspan class="cls-34" x="82.03" y="14.4">us</tspan><tspan class="cls-53" x="94.27" y="14.4">i</tspan><tspan class="cls-27" x="97.58" y="14.4">n</tspan><tspan x="104.42" y="14.4">ess</tspan></text>
  </g>
  <g>
    <text class="cls-4" transform="translate(0 807.82)"><tspan class="cls-59" x="0" y="0">A</tspan><tspan class="cls-53" x="7.48" y="0">u</tspan><tspan class="cls-65" x="14.78" y="0">g</tspan><tspan class="cls-34" x="21.14" y="0">u</tspan><tspan class="cls-32" x="28.63" y="0">s</tspan><tspan x="33.42" y="0">t-</tspan><tspan class="cls-53" x="44.82" y="0">o</tspan><tspan class="cls-43" x="51.12" y="0">k</tspan><tspan class="cls-55" x="57.56" y="0">t</tspan><tspan class="cls-53" x="61.21" y="0">o</tspan><tspan class="cls-66" x="67.51" y="0">b</tspan><tspan class="cls-38" x="74.11" y="0">e</tspan><tspan x="79.94" y="0">r </tspan><tspan class="cls-23" x="88.86" y="0">2</tspan><tspan class="cls-12" x="95.01" y="0">0</tspan><tspan class="cls-28" x="102.3" y="0">1</tspan><tspan x="106.57" y="0">3</tspan></text>
    <text class="cls-4" transform="translate(6.26 822.37)"><tspan class="cls-53" x="0" y="0">P</tspan><tspan class="cls-38" x="6.02" y="0">r</tspan><tspan class="cls-26" x="11.11" y="0">a</tspan><tspan class="cls-43" x="16.86" y="0">k</tspan><tspan class="cls-46" x="23.3" y="0">t</tspan><tspan class="cls-53" x="26.9" y="0">i</tspan><tspan x="30.22" y="0">k </tspan><tspan class="cls-24" x="40.79" y="0">h</tspan><tspan x="47.65" y="0">os La </tspan><tspan class="cls-53" x="79.33" y="0">M</tspan><tspan class="cls-26" x="88.71" y="0">a</tspan><tspan class="cls-33" x="94.46" y="0">i</tspan><tspan class="cls-69" x="97.95" y="0">s</tspan><tspan class="cls-53" x="103.17" y="0">o</tspan><tspan x="109.47" y="0">n </tspan><tspan class="cls-27" x="0" y="14.4">J</tspan><tspan class="cls-34" x="2.1" y="14.4">u</tspan><tspan class="cls-32" x="9.59" y="14.4">s</tspan><tspan class="cls-44" x="14.38" y="14.4">t</tspan><tspan class="cls-67" x="17.98" y="14.4">i</tspan><tspan class="cls-26" x="21.65" y="14.4">a</tspan><tspan x="27.4" y="14.4">n </tspan><tspan class="cls-47" x="38.54" y="14.4">K</tspan><tspan class="cls-53" x="45.18" y="14.4">u</tspan><tspan class="cls-27" x="52.49" y="14.4">n</tspan><tspan class="cls-66" x="59.33" y="14.4">t</tspan><tspan x="63.41" y="14.4">z</tspan></text>
  </g>
  <g>
    <text class="cls-4" transform="translate(208.77 849.16)"><tspan class="cls-23" x="0" y="0">2</tspan><tspan class="cls-12" x="6.16" y="0">0</tspan><tspan class="cls-8" x="13.44" y="0">1</tspan><tspan x="17.99" y="0">2-</tspan><tspan class="cls-22" x="32.05" y="0">2</tspan><tspan class="cls-13" x="38.21" y="0">0</tspan><tspan class="cls-31" x="45.49" y="0">1</tspan><tspan x="49.86" y="0">4</tspan></text>
    <text class="cls-4" transform="translate(215.03 863.72)"><tspan class="cls-66" x="0" y="0">D</tspan><tspan x="7.43" y="0">e</tspan><tspan class="cls-33" x="13.5" y="0">s</tspan><tspan class="cls-53" x="18.25" y="0">ig</tspan><tspan class="cls-27" x="27.82" y="0">n</tspan><tspan class="cls-58" x="34.66" y="0">t</tspan><tspan class="cls-38" x="38.33" y="0">e</tspan><tspan class="cls-56" x="44.16" y="0">k</tspan><tspan class="cls-24" x="50.59" y="0">n</tspan><tspan class="cls-53" x="57.48" y="0">o</tspan><tspan x="63.78" y="0">l</tspan><tspan class="cls-43" x="67.46" y="0">o</tspan><tspan x="73.7" y="0">g</tspan><tspan class="cls-66" x="0" y="14.4">TE</tspan><tspan class="cls-50" x="12.5" y="14.4">K</tspan><tspan x="19.21" y="14.4">O </tspan></text>
  </g>
  <g>
    <text class="cls-4" transform="translate(204.16 538.4)"><tspan class="cls-66" x="0" y="0">D</tspan><tspan x="7.43" y="0">ec</tspan><tspan class="cls-38" x="19.24" y="0">e</tspan><tspan class="cls-27" x="25.07" y="0">m</tspan><tspan class="cls-66" x="35.26" y="0">b</tspan><tspan class="cls-38" x="41.86" y="0">e</tspan><tspan x="47.69" y="0">r </tspan><tspan class="cls-23" x="56.6" y="0">2</tspan><tspan class="cls-17" x="62.76" y="0">0</tspan><tspan class="cls-14" x="70.32" y="0">2</tspan><tspan x="76.13" y="0">4</tspan></text>
    <text class="cls-4" transform="translate(210.42 552.96)"><tspan class="cls-30" x="0" y="0">V</tspan><tspan class="cls-38" x="6.61" y="0">e</tspan><tspan class="cls-53" x="12.44" y="0">j</tspan><tspan x="15.38" y="0">led</tspan><tspan class="cls-39" x="32.09" y="0">e</tspan><tspan class="cls-6" x="37.92" y="0">r, </tspan><tspan class="cls-67" x="48.15" y="0">V</tspan><tspan class="cls-38" x="56.05" y="0">I</tspan><tspan x="59.44" y="0">A de</tspan><tspan class="cls-34" x="84.08" y="0">s</tspan><tspan class="cls-54" x="88.83" y="0">ig</tspan><tspan x="98.4" y="0">n &amp; </tspan><tspan class="cls-53" x="123.47" y="0">b</tspan><tspan class="cls-33" x="129.71" y="0">us</tspan><tspan class="cls-51" x="141.95" y="0">i</tspan><tspan class="cls-27" x="145.26" y="0">n</tspan><tspan x="152.1" y="0">ess</tspan></text>
  </g>
  <path class="cls-2" d="M63.3,794.19s-4.19,2.18-4.97,2.27-4.1-1.13-4.1-1.13c0,0-3.66-.87-3.92-1.13s.9-5.49.74-5.54-.57-.65-.13-1.61-1.13-2.27,1.4-2.44,3.84-.87,4.01,0,.66,4.71.46,5.15-1.33.3.32,1.11,2.35,1.42,3.05,1.86,3.14,1.48,3.14,1.48Z"/>
  <path class="cls-1" d="M54.05,786.56l-4.62-2.39-4.1,1.65s-3.66.87-4.97.26-3.23-6.89-3.31-7.33-.78-5.32-.78-5.32c0,0-2.01,4.71-2.44,6.1s-1.22,5.15-1.22,5.15c0,0,1.4,2.79,2.01,3.31s.87,3.18,4.1,2.85,8.98-3.64,8.98-3.64l5.15,1.13,1.22-1.79Z"/>
  <path class="cls-2" d="M33.39,786.18l-1.57-3.49s-1.83-2.7-1.92-4.8-.7-8.02-.7-8.46,5.23-4.46,5.76-4.63,5.84-2.87,6.28-3.13,20.97-3.78,24.16-5.42,3.19-2.63,6.46-3.97,12.25-2.56,13.47-1.75,11.43,3.67,11.43,3.67l6.58,6.45,5.52,2.74-3.53,1.4s-8.16-.79-10.21-2.83-2.04-2.86-4.08-2.86-15.24.82-15.24.82l-6.37,4.87h-8.87s-1.23.08-2.54,0-2.91-.53-3.98,0-5.67,1.49-6.8,1.58-4.43.22-4.78,1.59-4,5.89-5.04,6.24-2.09.43-2.26,1.74-1.78,10.24-1.78,10.24Z"/>
  <path class="cls-2" d="M111.02,758.6l-2.94-2.56s.38-.89,1.59-1.33,2.38-.66,2.38-.66c0,0,.07-.15,1.54.88s1.69,1.03,1.98,1.47-.66,3.08-1.1,4.18-1.57,3.29-1.85,4.21-2.02.92-2.95.7-2.69-.9-2.23-.9c2.05,0,3.58-6,3.58-6Z"/>
  <path class="cls-1" d="M199.23,845.89l-3.36-.94-7.64,1.95-.75,1.8v2.17l1.62,3.38,5.27,1.95s3.59-.45,4.19-1.5-5.21-2.99-5.21-2.99l5.87-5.8Z"/>
  <path class="cls-2" d="M201.41,847.95l-9.73,4.19-2.57,2.1,5.12,3.74s7.49,1.35,7.19.9.75-6.14,1.5-6.89-1.5-4.04-1.5-4.04Z"/>
  <path class="cls-1" d="M197.5,856.48s2.3,2.66,1.73,4.22-3.43,5.11-3.98,5.59-3.27,1.7-3.81,2.11-1.05.34-2.33,3.13-8.36,3.47-9.25,4.36c0,0,3.41-1.98,3.75-2.59s.95-1.74,1.05-2.61,2.35-4.48,2.83-4.51,1.84-1.19,3.41-1.87,4.9-2.25,5.79-3.61.82-4.22.82-4.22Z"/>
  <path class="cls-1" d="M407.93,359.34l13.33-4.95,5.99.06s2.86,5.07,2.99,5.48,1.91,5.17,2.18,5.72,1.91,4.22,2.04,4.63,1.72,8.94,1.47,9.71-.25,6.76.03,7.58,4.9,4.49,4.9,4.49c0,0-5.58-.5-6.12-1.61s-2.86-3.29-3.4-3.83-2.86-3.67-2.86-5.17,1.08-7.18.88-8.21-1.42-10.3-2.38-11.45-9.93-1.84-9.93-1.84l-9.11-.6Z"/>
  <path class="cls-2" d="M399.05,354.06s.87-5,1.98-5.95,5.41-.63,5.41-.63c0,0,4.13,3.78,4.77,5.04s3.66,2.2,3.66,2.2c0,0,4.93,2.2,4.93,3.62s-2.07,3.62-2.54,4.25-5.57,4.57-5.57,4.57c0,0-5.24-.63-5.24-1.57s-.96-2.2-1.76-4.72-2.54-3.36-3.5-3.57-2.14-3.24-2.14-3.24Z"/>
  <path class="cls-1" d="M509.21,429.56l-2.43-1.46s-.48-1.3,1.21-3.22,3.73-4.53,3.73-4.53c2.9-.58,10.22,2.61,10.22,2.61l-5.88,1.96-4.34,6.15-2.51-1.51Z"/>
  <path class="cls-2" d="M508.15,431.51l3.57,5.07s1.16-.65,2.61-1.34,7.54-3.16,7.61-3.14,1.07-1.61,1.94-3.05-1.94-6.08-1.94-6.08l-2.11-2.68-3.76,4.64-3.37,6.15-4.54.43Z"/>
  <path class="cls-1" d="M651.36,513.72c-.57-.28-2.31-.82-2.78-1.14s-2.08-1.5-2.2-1.76-.54-.64-.4-.9.75-2.89.78-3.04.71-1.6.71-1.6c0,0,.61.11.82.28s2.6.28,2.6.28c0,0,.85-.43,1.39-.18s1.57.64,1.85.96-.46,1.82-.85,2.1-1.42.82-1.57,1.42-.36,3.56-.36,3.56Z"/>
  <path class="cls-2" d="M651.4,507.34h3.42s1.28.89,1.42,1.25.53,1.64.46,1.92-.68,4.27-.68,4.27c0,0-1.32,1.03-3.17,1.6s-4.67,1.28-5.31,1.39-3.17-3.21-3.17-3.21c0,0,3.7-.32,4.77-.61s2.46-2.67,2.67-3.45-.43-3.17-.43-3.17Z"/>
  <path class="cls-1" d="M699.76,625.89l-3.6,1.26s-1.73.98-1.98,1.48-1.48,3.12-1.48,3.12c0,0,2.3,1.97,2.47,2.22s.73,2.79,1.06,3.04,4.92-.16,5.75-.82,3.45-3.04,3.61-3.28,3.04-2.95,2.95-4.18-3.36-3.2-3.36-3.2l-5.41.38Z"/>
  <path class="cls-2" d="M705.01,626.98s-.89,5.41-1.59,6.15-2.35,1.89-2.8,2.05-2.58,1.88-2.58,1.88c0,0,.08,1.57.82,1.49s5.09-.49,5.09-.49l4.18-.49s5.17-.25,5.41-1.56.33-6.48,0-7.38-5.74-6.65-5.74-6.65l-4.73,3.53,1.94,1.48Z"/>
  <g>
    <path class="cls-1" d="M713.46,644.68c-.5-.43-.84-.74-.97-.86-.65-.65-6.59-2.81-6.59-2.81v-6.28s-3.98,5.41-2.48,6.71c.59.51,1.77,1.74,2.97,3.04,2.34-.25,4.85-.09,7.07.21Z"/>
    <path class="cls-2" d="M733.49,689.71c-.22-3.25-3.9-16.02-4.11-17.54s-1.08-11.91-1.73-13.64-4.76-6.28-6.06-7.14c-1.06-.7-5.97-4.84-8.13-6.71-2.22-.3-4.74-.46-7.07-.21,1.83,1.97,3.72,4.1,3.72,4.1,0,0,1.08,1.08,1.52,3.46s.65,5.85.87,7.36,4.55,8.44,5.41,9.74c.87,1.3,5.85,11.91,5.85,12.77s-.22,8.01,0,10.18-2.38,5.2-2.38,5.2c0,0-8.23.65-9.74,0s-8.1-1.57-9.31.29c-1.21,1.86-7.14,4.04-7.14,4.04l10.73.87s8.11-1.3,9.19,0,6.09,1.52,8.67,2.16,6.27-.43,7.35-3.03c1.08-2.6,2.6-8.66,2.38-11.91Z"/>
  </g>
  <path class="cls-1" d="M622,654.83l-1.69-3.13s3.01-2.29,3.49-2.53,2.41.46,2.65.83,1.69,1.46,1.69,1.46l.84,5.3s.6,2.29-.6,2.05-4.46-.84-4.46-.84l-1.93-3.13Z"/>
  <path class="cls-2" d="M624.72,650.61s1.49-2.05,1.85-2.17,2.77-1.08,3.49,0,1.44,2.89,1.69,3.61.12,4.94,0,5.42-.6,2.65-1.08,2.53-3.85-1.19-3.85-1.19c0,0,1.57-.14,2.17-2.06s-.84-5.3-.84-5.3l-3.42-.84Z"/>
  <text class="cls-5" transform="translate(150.11 947.54)"><tspan class="cls-20" x="0" y="0">Pr</tspan><tspan class="cls-7" x="30.73" y="0">o</tspan><tspan class="cls-25" x="47.7" y="0">f</tspan><tspan x="59.35" y="0">essi</tspan><tspan class="cls-48" x="116.01" y="0">on</tspan><tspan x="154.92" y="0">elt</tspan></text>
  <text class="cls-5" transform="translate(518.88 755.93)"><tspan class="cls-29" x="0" y="0">P</tspan><tspan x="17.31" y="0">ers</tspan><tspan class="cls-15" x="64.4" y="0">on</tspan><tspan x="102.9" y="0">li</tspan><tspan class="cls-15" x="117.81" y="0">g</tspan><tspan x="137.99" y="0">t</tspan></text>
</svg>