<?xml version="1.0" encoding="UTF-8"?>
<svg xmlns="http://www.w3.org/2000/svg" viewBox="0 0 1026.65 1446.47">
  <defs>
    <style>
      .cls-1, .cls-2, .cls-3 {
        fill: #231f20;
      }

      .cls-2 {
        font-family: AnticDidone-Regular, 'Antic Didone';
      }

      .cls-2, .cls-3 {
        font-size: 25px;
      }

      .cls-4 {
        letter-spacing: 0em;
      }

      .cls-5 {
        letter-spacing: 0em;
      }

      .cls-6 {
        letter-spacing: 0em;
      }

      .cls-7 {
        fill: #be9cae;
      }

      .cls-7, .cls-8 {
        stroke: #dbdadb;
        stroke-miterlimit: 10;
      }

      .cls-9 {
        letter-spacing: -.11em;
      }

      .cls-10 {
        letter-spacing: -.11em;
      }

      .cls-11 {
        letter-spacing: -.07em;
      }

      .cls-12 {
        letter-spacing: -.09em;
      }

      .cls-13 {
        letter-spacing: -.08em;
      }

      .cls-14 {
        letter-spacing: -.08em;
      }

      .cls-15 {
        letter-spacing: -.09em;
      }

      .cls-16 {
        letter-spacing: -.09em;
      }

      .cls-17 {
        letter-spacing: -.09em;
      }

      .cls-18 {
        letter-spacing: -.07em;
      }

      .cls-19 {
        letter-spacing: -.07em;
      }

      .cls-20 {
        letter-spacing: -.07em;
      }

      .cls-21 {
        letter-spacing: -.07em;
      }

      .cls-22 {
        letter-spacing: -.08em;
      }

      .cls-23 {
        letter-spacing: -.08em;
      }

      .cls-24 {
        letter-spacing: -.08em;
      }

      .cls-25 {
        letter-spacing: -.07em;
      }

      .cls-26 {
        letter-spacing: -.07em;
      }

      .cls-27 {
        letter-spacing: -.06em;
      }

      .cls-28 {
        letter-spacing: -.06em;
      }

      .cls-29 {
        letter-spacing: -.06em;
      }

      .cls-30 {
        letter-spacing: -.06em;
      }

      .cls-31 {
        letter-spacing: -.06em;
      }

      .cls-32 {
        letter-spacing: -.06em;
      }

      .cls-33 {
        letter-spacing: -.06em;
      }

      .cls-34 {
        letter-spacing: -.06em;
      }

      .cls-35 {
        letter-spacing: -.13em;
      }

      .cls-36 {
        letter-spacing: -.16em;
      }

      .cls-37 {
        letter-spacing: -.12em;
      }

      .cls-38 {
        letter-spacing: -.12em;
      }

      .cls-39 {
        letter-spacing: -.12em;
      }

      .cls-40 {
        letter-spacing: -.02em;
      }

      .cls-41 {
        letter-spacing: -.02em;
      }

      .cls-42 {
        letter-spacing: -.03em;
      }

      .cls-43 {
        letter-spacing: -.02em;
      }

      .cls-44 {
        letter-spacing: -.03em;
      }

      .cls-8 {
        fill: #eec3d8;
      }

      .cls-45 {
        letter-spacing: -.02em;
      }

      .cls-46 {
        letter-spacing: -.02em;
      }

      .cls-47 {
        letter-spacing: -.02em;
      }

      .cls-48 {
        letter-spacing: -.01em;
      }

      .cls-49 {
        letter-spacing: -.02em;
      }

      .cls-50 {
        letter-spacing: -.04em;
      }

      .cls-51 {
        letter-spacing: -.05em;
      }

      .cls-52 {
        letter-spacing: -.05em;
      }

      .cls-53 {
        letter-spacing: -.05em;
      }

      .cls-54 {
        letter-spacing: -.05em;
      }

      .cls-55 {
        letter-spacing: -.05em;
      }

      .cls-56 {
        letter-spacing: -.04em;
      }

      .cls-57 {
        letter-spacing: -.04em;
      }

      .cls-58 {
        letter-spacing: -.04em;
      }

      .cls-59 {
        letter-spacing: -.04em;
      }

      .cls-60 {
        letter-spacing: -.04em;
      }

      .cls-61 {
        letter-spacing: -.04em;
      }

      .cls-62 {
        letter-spacing: -.05em;
      }

      .cls-63 {
        letter-spacing: -.05em;
      }

      .cls-64 {
        letter-spacing: -.04em;
      }

      .cls-65 {
        letter-spacing: -.04em;
      }

      .cls-66 {
        letter-spacing: -.04em;
      }

      .cls-67 {
        letter-spacing: -.05em;
      }

      .cls-68 {
        letter-spacing: -.03em;
      }

      .cls-69 {
        letter-spacing: -.03em;
      }

      .cls-70 {
        letter-spacing: -.03em;
      }

      .cls-71 {
        letter-spacing: -.03em;
      }

      .cls-72 {
        letter-spacing: -.03em;
      }

      .cls-3 {
        font-family: Agraham-PersonalUse, Agraham;
      }

      .cls-73 {
        letter-spacing: 0em;
      }

      .cls-74 {
        letter-spacing: 0em;
      }

      .cls-75 {
        letter-spacing: 0em;
      }

      .cls-76 {
        letter-spacing: .01em;
      }
    </style>
  </defs>
  <g id="Lag_1" data-name="Lag 1">
    <g>
      <path class="cls-8" d="M807.82,737.81s5.55,13.48,6.63,15.26,8.02,11.44,9.25,13.22,3.08,5.09,4.32,8.64c1.23,3.56,3.39,13.22,3.7,15s2.62,24.66,2.93,27.71c.31,3.05,1.54,14.49,3.39,20.59s2.47,7.63,5.09,13.48c2.62,5.85,5.31,13.22,7.05,19.32,1.74,6.1,2.82,10.68,3.59,15.76.77,5.09,8.47,37.61,10.15,39.75s9.68,8.39,9.68,8.39l-11.91-4.69-5.45-6.56s-2.23-4.75-2.78-6.79c-.55-2.04-3.16-11.77-3.29-12.45s-2.47-7.92-2.47-7.92c0,0,.96,15.62,1.78,17.2s0,3.17.96,7.92c.96,4.75,3.29,12.54,3.98,13.29s5.08,5.72,5.49,7.53-1.57-2.26-3.67-3.17c-2.1-.91-7.04-.23-8.55-2.04-1.51-1.81-2.61-16.52-2.74-17.88s-1.1-7.47-1.65-12.22c-.55-4.75-.69-16.75-.96-19.69-.27-2.94-1.33-3.62-1.63-6.11s-5.51-14.48-7.02-19.69c-1.51-5.21-3.02-12.97-3.98-21.31-.96-8.34-2.61-22.37-3.43-25.54-.82-3.17-5.76-19-6.04-20.93s-9.61-27.5-10.29-28.63c-.69-1.13-1.37-15.91-1.51-17.8-.14-1.89-6.17-12.3-6.17-12.3l5.56,2.64Z"/>
      <path class="cls-7" d="M767.74,722.05s2.31-2.11,3.24-3.85,10.48-5.81,10.48-5.81c0,0,4.78,4.27,5.24,6.59.46,2.31,8.48,8.16,8.48,8.16l5.4,5.85s4.16-1.27,6.94,2.29c2.77,3.56,4.78,12.2,4.78,12.2,0,0-2.77-5.09-5.24-5.85s-8.94-4.07-11.87-2.8-6.32-3.05-8.48-4.83c-2.16-1.78-5.09-11.7-6.32-11.19s-11.41,3.56-11.41,3.56l-1.23-4.32Z"/>
      <path class="cls-8" d="M782.85,778.24l-4.1.89-8.85,1.91s-21.43-8.64-22.97-10.68-9.1-10.17-10.02-11.95c-.92-1.78-4.01-19.83-4.01-21.61s1.54-9.66,1.85-11.44,2-5.59,5.7-6.86,11.56,2.03,11.56,2.03l7.09,2.54-2.16,5.09s-8.02,2.03-8.63,2.03-2.77.51-3.55,1.27-1.54,5.34-.77,7.12,4.47,5.09,6.32,5.85,4.32,2.03,4.78,3.81,1.7,9.43,2.77,10.56,3.08,4.44,3.7,5.2,3.7,8.9,7.55,10.68,20.5-1.27,20.5-1.27l-6.78,4.83Z"/>
      <path class="cls-7" d="M856.23,817.9l-10.17,2.29s-12.18-7.63-13.41-9.41-5.09-8.9-6.78-10.68-10.02-7.37-11.1-8.39-10.95-6.86-10.95-6.86c0,0-11.1-7.88-13.41-7.37s-9.4,3.56-13.26,2.54c0,0,4.62-2.8,6.63-5.34,2-2.54,2.47-6.61,5.4-6.86s8.02-.25,10.95,0,10.64,3.31,12.33,5.59,11.72,14.24,12.8,16.27,10.48,11.7,12.33,12.71,3.85,9.15,5.7,10.68c1.85,1.53,12.95,4.83,12.95,4.83Z"/>
      <path class="cls-7" d="M833.29,641.71s2.37,14.05,7.57,17.95c5.21,3.9,7.49-1.74,8.72,0,1.23,1.74,11.15,1.41,11.15,1.41,0,0,0-8.43-13.72-13.89l-13.72-5.46Z"/>
      <path class="cls-8" d="M806.49,470.8s-4.63,11.8-5.56,15.52c-.93,3.72-1.76,7.86-3.88,12.77-2.12,4.91-15.95,25.39-17.36,27.25-1.41,1.86-6.49,20.93-9.81,20.15s-9.46,3.9-9.46,3.9c0,0-4.73,16.39-4.26,20.29s1.89,15.61,2.37,17.95,2.84,3.12,3.79,9.37c.95,6.24,1.42,12.49,3.31,17.17,1.89,4.68,8.99,14.83,12.78,15.61s34.07,7.8,34.07,7.8c0,0,2.37,3.9,9.46,4.68s18.93,16.39,18.93,16.39l-2.84-17.95s-2.37-17.95-10.88-20.29-17.8-5.46-17.8-5.46c0,0-13.49-3.12-16.3-2.34s-6.6,10.15-10.38-5.46-4.26-24.97-3.79-28.88c.47-3.9,2.84-9.36,2.84-14.04s.89-23.74,3.05-25.14,5.17-4.52,7.68-8.42c2.52-3.9,8.68-7.8,11.51-20.29,2.83-12.49,2.54-40.57,2.54-40.57Z"/>
      <path class="cls-7" d="M796.64,422.81s-1.85,13.25-1.42,13.95,3.84,11.48,4.4,12.89,6.02,9.68,6.59,11.07,2.82,19.55,3.1,21.87c.28,2.33-1.98,14.43-2.54,16.29s-2.26-9.31-2.26-11.63-5.46-11.99-8.66-14.37c-3.2-2.38-7.72-.05-8.7-8.43-.99-8.38-3.33-21.87-2.01-24.2,1.31-2.33,11.49-17.44,11.49-17.44Z"/>
      <path class="cls-8" d="M688.81,273.71l15.23,1.76s11.49,11.71,12.03,11.58,3.74,2.96,6.15,6.93c2.41,3.97,9.89,11.02,16.84,16.31,6.95,5.29,19.78,18.07,20.85,18.95s8.28,2.64,9.09,13.66c.8,11.02,5.61,28.21,5.61,28.21,0,0-.32,20.03,0,23.87.32,3.85,2.19,14.62,6.85,18.46,2.21,1.82,4.41,2.95,6.32,3.96,2.13,1.13,3.89,2.11,4.87,3.73,1.87,3.08-15.39,3.08-16.79,3.08s-3.27-2.31-4.2-6.15c-.93-3.85-6.06-13.85-7-19.23-.93-5.39-.93-19.42-.93-23.17s-.69-20.25-2.33-21.45-9.98-9.09-20.59-16.93c-9.73-7.17-15.79-12.72-15.79-12.72,0,0-5.9-9.18-13.53-14.21-4.3-2.83-3.73-7.69-10.26-23.31-3.85-9.22-12.41-13.35-12.41-13.35Z"/>
      <path class="cls-7" d="M624.67,242.71s-1.07,12.48,0,14.68c1.07,2.2,3.72,5.73,3.72,5.73h5.59c.85,0,7.8,1.76,7.8,1.76l8.02,6.61,12.03,12.15s10.42,4.16,11.76,3.28,6.39-4.86,6.39-4.86c0,0,23.28-6.6,24.08-6.6s-6.41-3.97-8.82-4.85-17.1,0-17.91,0-9.09,1.32-9.89,1.76-4.81-2.64-6.95-5.29c-2.14-2.64-12.46-11.02-12.91-11.9s-7.4-3.09-7.4-3.09c-2.41,1.76-3.83,4.41-6.19,3.97s-.19.33-2.89-2.64c-2.7-2.97-6.42-10.72-6.42-10.72Z"/>
      <path class="cls-8" d="M495.16,149.58l5.88,13.8,16.69,4.48s27.98,1.16,28.92,2.28,8.38,8.92,9.73,10.26,10.81,8.92,15.27,13.82c4.46,4.9,7.98,6.91,11.08,12.48s5.41,7.58,8.52,12.71c3.11,5.13,2.16,10.69,4.75,15.81,2.6,5.12,8.42,10.62,9.4,13.07s9.88,0,9.88,0l-9.88-9.78s-2.36-10.4-2.73-13.45-1.85-18.35-3.34-22.01-13.72-17.73-16.31-20.79c-2.6-3.06-11.49-7.95-11.49-7.95,0,0-4.08-8.87-5.19-8.41s-1.74.76-5.13,0-11.92-.54-14.15-3.4c-2.22-2.86-30.08-5.33-31.93-7.01s-2.14,0-8.41,0-11.57-5.89-11.57-5.89Z"/>
      <path class="cls-8" d="M275.4,1233.66l-9.5,9.34s-2.19,2.63-2.24,3.31-.82,4.62-.63,6.3-4.11,25.39-4.11,25.39c0,0-5.09,12.86-5.91,14.62s-7.58,12.44-9.91,14.87-17.84,6.21-17.84,6.21c0,0-11.68,10.98-14.21,20.26s-4.44,13.39-6.39,16.94-8.37,13.63-8.37,13.63l-3.16,19.02,5.35-12.31s1.47-1.23,3.72-4.79c2.25-3.56,1.37-3.51,5.15-7.16,3.77-3.65,6.3-7.8,6.3-7.8,0,0,.82,3.37.17,7.98-.65,4.6-9.39,13.12-10.45,16.04-1.06,2.92-5.5,8.89-5.71,11.76s-.39,14.86-.39,14.86c0,0,.87-5.76,2.2-9.26s3.52-8.2,3.52-8.2c0,0,3.97-6.52,5.45-7.18s2.68-1.3,5.38-2.61,5.64-3.76,6.97-7.27.46-24,.46-24c0,0,2.23-8.12,3.94-10.51,1.71-2.39,2.59-7.01,7.98-7.9,5.38-.9,12.29-4.12,15.96-4.65,3.67-.53,15.66-11.52,16.72-14.44,1.06-2.92,1.39-38.32,2.25-49.79.73-9.8,5.89-19.76,7.38-22.45.06-.11-.02-.29-.09-.22Z"/>
      <path class="cls-8" d="M193.95,1002.63s4.01,9.32,7.42,13.48c3.41,4.16,13,7.52,13,7.52l8.32-.5s8.79.84,10.45,2.84,10.95,11.15,10.95,11.15c0,0,9.27,21.57,12.68,27.06,3.42,5.5,8.62,27.36,14.34,35.18s14.29,43.42,14.61,48.63,1.94,14.62,1.88,18.42-7.37,22.78-7.37,22.78c0,0,1.71-1.53,4.3-5.49,2.59-3.96,5.95-7.96,7.54-11.39s4.07-17.83,3.07-21.57-7.83-19.01-8.26-26.12-3.41-21.86-3.41-21.86c0,0-3.9-9.07-6.65-18.89-2.75-9.82-15.36-39.95-16.01-42.28s-21.4-18.2-21.4-18.2c0,0-6.65-3.73-7.82-6.11s-8.83-5.82-11.45-6.56-11.78.71-11.78.71c0,0-1.73-.79-6.02-1.74-4.29-.95-8.39-7.07-8.39-7.07Z"/>
      <path class="cls-7" d="M175.15,1013.45s4.04-6.61,4.55-7.71-.71-2.2,2.29-3.21,6.86-.41,6.86-.41l6.03,8.03s5.46,4.96,6.48,5.96-2.77-4.68-3.31-7.35-4.7-11.27-4.99-13.02-5.13-5.81-5.13-5.81c0,0-4.33-1.96-5.53.33-1.2,2.3-2.45,6.97-3.25,9.49s-4.36,7.69-4.36,7.69l.36,5.99Z"/>
      <path class="cls-7" d="M165.44,1007.13l-.38-6.39s1.55-2.76,2.18-4.61,3.06-.18,3.49-.21,2.33,3.04,2.33,3.04l1.47,4-2.85,8.6-6.22-4.43Z"/>
      <path class="cls-7" d="M112.54,1071.21l.27-10.45,2.23.6s.91.13,1.25-.81,2.79-1.64,2.79-1.64c0,0,1.66,1.01,2.57,2.98s1.3,5.09,1.67,6.17,1.64,8.94,1.64,8.94l-7.12,2.64-5.3-8.43Z"/>
      <path class="cls-8" d="M153.32,1060.8l-18.52,3.82-9.51,7.48-5.63,8.6s9.79-2.76,11.09-.67,12.05-8.99,12.05-8.99l10.51-10.25Z"/>
      <path class="cls-7" d="M262.34,1008.19s-7.13,17.76-8.1,21.07-2.7,10.61-5.9,14.79-10.66,11.67-10.66,11.67c0,0-8.66,2.15-11.22,3.38s-8.69,6.48-10.99,7.16-16.6,1.54-18.1,1.09-16.66.19-16.66.19l-22.41-2.17-23.48-.75s3.63-2.93,7.04-4.76c3.4-1.83,10.86-4.45,13.46-5.14s11.12-.13,12.61.32,24.29-.38,24.29-.38c0,0,4.61,3.51,9.47,1.6,4.86-1.92,12.65-4.01,14.66-4.67s6.52-3.64,8.46-5.38,9.24-7.06,11.32-11.52,10.85-4.37,13.61-9.72,12.62-16.77,12.62-16.77Z"/>
      <path class="cls-7" d="M245.17,899.27l-2.89,2.3s-1.04.26-1.12,4.13.84,13.89.84,13.89c0,0,4.15,6.33,4.44,7.67s6.5,5.42,6.79,5.01,4.04-8.18,4.04-8.18l-12.1-24.83Z"/>
      <path class="cls-8" d="M250.85,923.69s6.04-5.96,12.65,5.06c.93,1.54,5.2,11.48,4.87,16.07l-.04,16.37.76,26.21-3.03,19.21s-9.62,14.66-10.32,17.75,6.03-22.43,6.1-24.34,2.77-12.72-.23-22.82-1.23-20.47-1.23-20.47c0,0-.87-14.49-3.59-19.95-4.88-9.81-5.93-13.07-5.93-13.07Z"/>
      <path class="cls-8" d="M241.9,895.13s9.08-3.77,9.94-3.43,3.74,4.23,3.74,4.23l.6,1.71s-1.62,8.06-1.38,8.63,2.46,1.55,2.85,2.69,1.76,5.72,1.76,5.72c0,0-1.53,8.42-2.13,9.42s-6.24,2.89-6.24,2.89l-1.9-2.02-7.23-29.84Z"/>
      <path class="cls-7" d="M196.63,775.81s8.62,19.82,11.34,21.22c2.72,1.4,7.68,6.58,7.68,6.58,0,0,14.52,9.2,17.24,12.21s10.07,5.7,12.46,10.25,6.04,16.06,7.17,20.69c1.12,4.63-2.95,28.34-2.95,28.34,0,0-.75,8.65-1.03,18.06s.47,28.92.47,28.92c0,0-6-22.33-7.12-26.95s-2.53-20.97-1.97-25.7,4.31-12.78,4.4-18.26-5.34-18.45-5.34-18.45c0,0-4.64-6.76-5.81-5.13s-16.44.99-16.44.99c0,0-10.4-11.11-14.76-27.27-4.36-16.17-5.34-25.5-5.34-25.5Z"/>
      <path class="cls-7" d="M90.99,625.86l-6.73,2.15-4.38,3.08s-1.51,4.65-1.11,7.52.58,9.9.58,9.9l3.09,2.71,5.28,2.17,3.79-.23,3.64-13.88-4.17-13.41Z"/>
      <path class="cls-7" d="M71.65,602.19s9.77,6.04,10.44,6,4.49,3.87,4.49,3.87c0,0,2.63,2.74,3.62,4.34s2.88,6.86,3,8.93-1.83,10.46-1.83,10.46l-2.93-11.42-8.53-7.77-8.26-14.41Z"/>
      <path class="cls-8" d="M146.11,403.2l-2.47,2.66s-1.2,2.78-.61,6.71c.59,3.94,4.4,12.53,4.4,12.53,0,0,2.15,2.91,3.55,1.61s3.33-2.03,3.55-3.87l.22-1.84,4.15-10.29-7.32-6.94-5.47-.58Z"/>
      <polygon class="cls-7" points="254.2 483.04 254.46 476.25 247.01 470.41 241.39 475.49 243.19 493 254.2 483.04"/>
      <path class="cls-7" d="M425.22,429.94s-6.34-.48-8.41.22-7.34,3.37-9.03.34-9.87-3.65-11.94-2.96-10.38,2.97-11.87,3.28-6.91.42-6.91.42l12.3-11.05s2.47-4.01,3.89-5.54,9.93-5.41,11.82-4.12,12.88,8.57,14.05,7.87,14.83-3.19,14.83-3.19l-8.72,14.73Z"/>
      <path class="cls-7" d="M430.04,395.21l-7.65,11.49s-2.41,3.43,1.73,9.63,1.1,13.61,1.1,13.61l7.19-1.01,5.23-14.69-7.59-19.03Z"/>
      <path class="cls-7" d="M441.9,410.25l-6.08,10.05s.71-21.54.85-21.92,6.82-20.76,6.82-20.76c0,0,2.15-21.55,3.12-24.08.96-2.53,11.14-27.65,11.14-27.65l-11.18,76.88-4.67,7.49Z"/>
      <path class="cls-8" d="M485.93,87.59s-3.39-1.12-10.66,10.17c-7.27,11.29-9.86,25.74-9.85,33.48,0,7.74.22,16.67,1.18,19.58s8.36,22.05,8.36,22.05c0,0,2.85,6.1.56,9.37s-6.99,13.74-5.92,18.38-.08,11.76,1.03,17.17-2.27,32.26-2.27,32.26c0,0-.01,10.19.75,12.49s-2.5,21.2-2.37,29.02c.13,7.83-10.72,43.38-11.21,45.76s-7.96,14.26-7.96,14.26c0,0,9.55-7.63,12.52-10.16,2.98-2.53,23.53-27.27,25-32.84,1.46-5.57,8.79-68.74,4.11-74.7-4.67-5.96-5.48-14.59-6.01-15.31s-1.43-24.17-.94-27.33,1.28-21.23,2.15-27.55c.87-6.32,1.66-24.39.8-28.25-.86-3.87-6.55-43.28.71-47.85Z"/>
      <path class="cls-7" d="M338.63,156.76s23.59-4.2,24.41-4.96,13.14-6.87,14.66-8.02,24.74-15.31,25.49-15.64,14.15,1.91,17.44-3.64c3.29-5.55,35.66-13.19,35.66-13.19l7.41-14.89s-9.05,4.01-11.25,4.1-11.52,5.39-12.89,4.84-4.39-1.36-7.95,0c-3.57,1.36-1.37-3.27-8.23,0-6.86,3.27-9.6,2.07-10.97,4s-13.17,8.43-17.28,11.1-20.57,4.96-24.14,6.11-6.03,2.67-7.95,4.96-1.92,3.82-5.49,6.49-13.17,9.16-17.28,11.46-1.65,7.26-1.65,7.26Z"/>
      <path class="cls-8" d="M468.64,90.68s-8.23-1.51-15.36-4.18-11.25-2.29-12.89-4.2-4.66-3.32-6.03-5.48-6.86-10.18-10.15-12.08-10.15-4.96-10.97-5.35-5.76,1.91-12.07,0-13.17-3.44-15.63-3.05-23.59,5.35-24.41,4.58-22.49-3.05-25.51-3.05-9.87-1.53-13.17.76-17.01,14.85-17.01,14.85c0,0-3.02,9.5-4.66,11.45s-13.71,14.74-13.99,15.6,1.37,14.61,2.19,19.57,4.28,16.04,4.61,17.18-.6-1.53,0,4.58c.6,6.11,1.7,12.22,3.07,14.13s10.15,2.67,12.62,2.29,14.54-1.34,16.73.1,16.46,4.1,16.46,4.1l13.44-9.16s-11.79-3.44-15.63-3.82-11.79-2.29-11.79-2.29l-5.76-11.46s-4.11-4.96-7.41-7.26c-3.29-2.29-4.94.02-5.49-4s-1.92-9.43-1.1-15.12c.82-5.7,4.94-23.35,4.94-24.45s3.84-10.11,6.03-11.14,13.71-3.32,13.71-3.32c0,0,11.25-1.52,12.62,0s5.21,6.1,7.13,8.39,8.23,12.18,11.25,11.82,18.1-.74,19.2-1.89,8.23-6.11,10.97-6.11,15.09,2.59,15.91,2.25,4.39,5.35,7.68,5.75,13.17,2.31,15.09,3.46,9.87,4.63,10.7,4.03,7-9.55,8.16-7.36,11.58,5.62,11.58,5.62l4.94-5.75Z"/>
      <path class="cls-7" d="M658.83,46.04s.68,11.74,0,13.63c-.68,1.89-10.29,16.63-10.83,17.15s-9.57,2.74-12.29,3.68c-2.72.95-9.52,4.43-9.52,4.43l-10.54,5.87,17.34,4.37,22.78-4.37,11.21-27.35-8.15-17.42Z"/>
      <path class="cls-8" d="M505.22,59.5s-1.89-5.28,4.74-10.02,23.5-13.98,23.5-13.98l15.22-13.69s10.2-8.99,14.62-9.47,19.72-2.84,19.72-2.84c0,0,4.42,2.37,6.12,0,1.7-2.37,7.14-6.15,7.14-6.15,0,0,5.44-2.84,6.46-2.84s18.02,2.37,18.02,2.37l24.14,2.37c5.44.95,7.48,1.89,10.88,4.73,3.4,2.84,8.16,7.57,10.54,14.67s-2.38,22.72-2.04,26.04c.34,3.31,1.68,4.26,2.71,12.78,1.03,8.52-8.49,21.47-8.49,21.47,0,0,7.14-30.47,1.02-33.78-6.12-3.31-7.48-4.56-8.5-8.44s-4.08-11.45-4.08-11.45l-8.5-4.73s-12.24.95-14.62,2.37-6.46,1.89-10.54,5.21c-4.08,3.31-2.04,12.78-18.36,14.2-16.32,1.42-31.18-4.64-39.78-.95-8.6,3.69-49.91,12.14-49.91,12.14Z"/>
      <path class="cls-7" d="M478.17,90.8s-9.3-6.34,0-13.87c9.3-7.52,13.49-11.41,13.49-11.41l9.46-8.75,2.08-1.37,3.82-2.52,20.46-3.3s32.7-2.47,34.79-3.44-14.99,4.38-15.74,4.9-11.94,9.5-13.26,11.34c-1.33,1.85-6.82,4.48-6.82,4.48,0,0-5.24-6.07-6.5-3.43s-2.02,6.6-2.21,7.39-1.52,6.67-3.98,5.97-6.25-.09-7.96,0-7.01,2.47-7.77,3.26-3.41,3.9-5.68,4.85-14.16,5.87-14.16,5.87Z"/>
      <path class="cls-7" d="M471.33,86.83l-5.86-1.9-8.08,10.27s3.01,6.09,4.1,7.99c1.09,1.9,3.83,6.09,6.56,6.85,2.73.76,13.12,6.09,13.12,6.09l-9.84-29.3Z"/>
      <path class="cls-8" d="M647.56,92.38s-18.31,5.39-19.05,6.08-12.76,9.57-21.84,11.28c-9.08,1.71-18.16,1.37-23.56,0-5.4-1.37-13.74-6.83-15.22-7.18s-9.08-3.34-11.29-3.35-2.7,0-4.66-.02-12.03,3.53-13.74,1.66-4.17-6.9-7.36-5.67c-3.19,1.23-7.61,5.67-9.57,5.67s-16.3-3-16.3-3l-9.81-2.67-10.22,1.23,11.29-11.48,4.89-5.27s6.07,2.85,9.34,0c3.28-2.85,8.34,3.08,9.57,3.76s7.12,1.71,8.84,0,4.42-2.56,7.85-4.53,15.95-5.11,15.95-5.11c0,0,5.15-.41,5.89,0s1.23.19,6.14,3.03c4.91,2.85,9.33-.11,11.04,0s8.1-5.7,11.04-6.21,16.93.38,17.67,3.18,5.93,7.24,11.19,8.95,31.91,9.64,31.91,9.64Z"/>
      <polygon class="cls-8" points="439.94 388.08 426.52 388.89 425.67 404.72 428.92 413.23 431.64 429.27 436.57 428.97 439.94 388.08"/>
      <path class="cls-8" d="M403.71,410.61c-6.02,3.77-6.31,7.92-7.88,16.94s-4.57,19.24-4.57,19.24c0,0-8.85,14.85-9.58,19.45s-7.51,17.28-7.51,17.28c0,0-8.31,7.19-12.95,10.26s-10.35,3.41-19.07,3.94-14.76.33-20.57-.99-25.05-5.18-25.91-4.57-33.28-19.1-33.28-19.1l-9.64,8.55,7.19-20.27c8.47-4.83,12.91,1.14,18.93,4.14s8.14-.49,8.14-.49c0,0,4.84,2.82,7.56-.46s7.36-3.8,13.38-.81,26.19,8.26,29.68,8.05,14.35-4.1,16.03-5.28,12.63-20.71,18.33-30.04c5.7-9.32,23.33-23.19,23.33-23.19l8.4-2.63Z"/>
      <path class="cls-8" d="M250.34,484.09s-4.69-4.77-6.3-.58-2.28,8.62-1.06,10.8,1.35-1.22,4.4,4.22,2.35,1.96,5.66,2.36c3.31.4,3.91-6.63,3.91-6.63l4.17-8.99-3.14-10.53-7.64,9.35Z"/>
      <path class="cls-7" d="M249.78,488.44s.23-28.75-5.38-33.12l8.25,6.42,1.82,14.51-4.68,12.19Z"/>
      <path class="cls-7" d="M148.64,403.04l-5.25.32s-.51,5.2-.91,6.75-.95,3.4-.38,4.59,1.64,5.38,2.19,6.26,3.5,4.58,3.5,4.58l1.79-16.63-.94-5.86Z"/>
      <g>
        <path class="cls-8" d="M173.11,433.93c-.19-.92-1.11-3.53,0,0h0Z"/>
        <path class="cls-7" d="M166.93,410.43c-.4-.64-1.61-2.47-3-4.57l-8.95-1.41-3.78-.76c3.15,3.86,5.99,9.17,5.99,9.17,0,0,7.12-.07,7.93,1.23s3.89,4.94,4.92,5.78c1.02.84,2.51,13.67,3.03,14.31-1.17-3.29-1.96-14.45-2.93-17.74-.97-3.28-2.06-4.17-3.2-6.01Z"/>
        <path class="cls-8" d="M240.16,451.5l-10.8.65s-9.88,1.49-14.54.88-15.75.95-15.75.95l-7.57-4.49s-2.93-6.12-4.83-12.52c-1.9-6.41-3.33-9.92-3.33-9.92l-5.12-8.24c-1.08-1.73-8.75-12.07-8.75-12.07l-5.53-.87c1.39,2.1,2.6,3.92,3,4.57,1.14,1.84,2.23,2.73,3.2,6.01.97,3.28,1.76,14.44,2.93,17.74.09.11.08-.02.04-.25-1.11-3.53-.19-.92,0,0,.26.82.62,1.95,1.14,3.55,3.29,10.15,3.39,11.94,4.58,15.46,1.19,3.53-1.41.88,2.84,6.75,4.24,5.87-.9,5.28,8.69,11,9.59,5.72,24.21,2.27,24.21,2.27,0,0,5.38-3.61,6.29-4.56.92-.95,7.84.46,7.84.46,0,0,2.9.25,3.3-1.13.4-1.37,6.52-4.87,6.52-4.87,0,0,3.25-1.19,4.6-.28,1.85,1.24,7.78-2.2,7.78-2.2l-10.74-8.88Z"/>
      </g>
      <path class="cls-8" d="M149.01,414.24l-9.87-2.59s-3.06,4-4.44,4.6-20.51-13.69-20.51-13.69c0,0-6.49-3.1-7.13-3.36s-5.02.3-5.02.3c0,0-8.68-.32-9.11.42s-13.06,4.15-14.1,7.32c-1.03,3.16-12.51,15.58-13.64,17.13s-13.71,15.97-13.71,15.97c0,0-11.44,18.11-11.13,23.18s-.8,17.22-.6,20.49l1.03,17.02c.6,9.9,3.61,24.41,5.03,27.72s6.84,22.19,8.16,28.89c1.32,6.7,2.78,20.74,3.35,25.23s16.68,33.46,16.68,33.46c0,0,7.51,2.94,9.74,4.5,2.23,1.56-5.52-15.49-9.24-21.48s-6.74-20.5-6.91-23.32-5.99-33.54-5.99-38.63-.41-6.76-2.84-16.78c-2.44-10.02-3.45-16.74-3.22-22.97s1.99-22.72,2.33-27.26c.34-4.54,4.15-20.97,3.92-23.03s4.91-18.19,7.58-19.48,10.72-4.6,12.38-2.44,8.4-2.56,8.4-2.56l11.26-5.77,6.14.46,12.5,9.64s8.33,1.25,9.23,1.1,9.67-1.75,9.67-1.75l7.6-7.09,1.93-.52.51-4.71Z"/>
      <g>
        <path class="cls-7" d="M104.34,659.77l-10.66-11.65s-.02,5.09,1.52,10.56c.37,1.31.91,2.87,1.53,4.52,2.16-.74,6.4-2.26,6.47-2.74.02-.14.47-.39,1.14-.68Z"/>
        <path class="cls-8" d="M202.69,784.42c-.43-7.08-.93-26.01-1.35-33.09s-10.42-30.18-11.2-34.87-10.32-31.37-14.74-32.28c-4.42-.92-25.34-4.4-27.08-3.11-1.74,1.29-18.91-7.15-18.91-7.15l-10.48-14.4-14.04.85-.53-.58c-.67.3-1.12.54-1.14.68-.07.49-4.32,2-6.47,2.74,1.97,5.24,4.77,11.31,5.56,12.74,1.04,1.87,13.86,16.84,13.86,16.84l18.16-1.09,18.92,16.33s9.1-1.73,10.33-.62c1.23,1.11,10.1,10.05,10.1,10.05,0,0,9.5,16.92,10.35,21.75.86,4.83,6.15,16.79,4.55,23.56-1.61,6.77,5.61,28.1,5.61,28.1l15.01,26.41s-6.08-25.76-6.5-32.84Z"/>
      </g>
      <path class="cls-8" d="M93.47,629.85l-3.36,9.72-7.66,11.64,5.83,9.58s1.53,1.15,3.24-.2,3.32-6.61,5.44-9.33,3.65-3.23,3.65-3.23c0,0-.6-6.17-.55-9.08s-6.59-9.12-6.59-9.12Z"/>
      <path class="cls-8" d="M122.67,1078.8s-4.49,4.88-5.38,5.12-4.82-2.11-4.82-2.11c0,0-4.29-1.59-4.62-2.12s.32-11.64.14-11.73-.73-1.33-.35-3.38-1.58-4.7,1.28-5.24c2.86-.54,4.26-2.1,4.57-.28s1.35,9.88,1.18,10.81-1.48.72.51,2.32,2.86,2.83,3.71,3.7,3.77,2.91,3.77,2.91Z"/>
      <path class="cls-7" d="M111.17,1063.34l-5.57-4.72-4.46,3.76s-4.06,2.09-5.63.89-4.55-14.3-4.71-15.21-1.57-11.16-1.57-11.16c0,0-1.69,10.06-2.01,13.04s-.74,10.93-.74,10.93c0,0,1.94,5.79,2.71,6.85s1.4,6.64,5.03,5.73c3.64-.91,9.78-8.29,9.78-8.29l6.01,2.04,1.16-3.86Z"/>
      <path class="cls-8" d="M87.57,1063.95l-2.24-7.26s-2.43-5.57-2.8-9.98c-.37-4.41-1.81-16.86-1.87-17.78s5.4-9.77,5.97-10.16,6.3-6.45,6.76-7.03,23.42-9.41,26.85-13.08,3.3-5.77,6.86-8.81c3.55-3.04,13.63-6.24,15.13-4.6s13.5,6.96,13.5,6.96l8.31,13.15,6.64,5.39-3.84,3.19s-9.41-1.11-11.99-5.27-2.69-5.88-5.01-5.74-17.26,2.77-17.26,2.77l-6.64,10.71-10.1.61s-1.4.24-2.89.17-3.39-.92-4.53.27-6.28,3.53-7.55,3.79-5.03.76-5.25,3.67-3.81,12.69-4.95,13.49-2.32,1.06-2.36,3.82-.73,21.71-.73,21.71Z"/>
      <path class="cls-8" d="M172.54,1000.5l-3.67-5.19s.32-1.9,1.64-2.91,2.63-1.56,2.63-1.56c0,0,.07-.31,1.87,1.75s2.05,2.05,2.44,2.96-.36,6.54-.72,8.89-1.38,7.04-1.58,9.01-2.19,2.09-3.27,1.69-3.18-1.71-2.66-1.74c2.34-.14,3.32-12.89,3.32-12.89Z"/>
      <path class="cls-7" d="M284.17,1178.44l-3.95-1.74-8.46,4.63-.63,3.84.27,4.56,2.28,7,6.25,3.74s4.04-1.19,4.59-3.44-6.32-5.95-6.32-5.95l5.96-12.63Z"/>
      <path class="cls-8" d="M286.92,1182.62l-10.56,9.51-2.66,4.6,6.31,7.54s8.71,2.33,8.31,1.4.07-12.99.83-14.62-2.22-8.42-2.22-8.42Z"/>
      <path class="cls-7" d="M283.55,1200.87s2.96,5.44,2.51,8.78-3.26,11-3.82,12.05-3.51,3.81-4.08,4.71-1.15.79-2.26,6.77c-1.1,5.97-9.09,7.9-9.99,9.82,0,0,3.63-4.4,3.94-5.71s.86-3.73.87-5.56,2.11-9.6,2.65-9.71,1.95-2.64,3.65-4.18,5.31-5.08,6.14-8.01c.84-2.93.4-8.96.4-8.96Z"/>
      <path class="cls-7" d="M478.17,100.53l19.08-9.85,8.57.13s3.66,10.35,4.28,10.91c5,4.51,5.47,6.07,3.12,11.39-1.52,3.43-4.93,8.4-8.72,13.49-.5.67-4.73,13.55-5.08,15.08s-.35,13.47.04,15.09,10.12,8.92,10.12,8.92c0,0-11.09-.98-11.87-3.19s-3.75-6.09-4.53-7.17-4.43-7.78-4.43-10.76,1.54-14.29,1.26-16.36,16.78-20.51,15.42-22.81-14.21-3.66-14.21-3.66l-13.04-1.19Z"/>
      <path class="cls-8" d="M465.47,90.02s1.24-9.97,2.83-11.85,7.75-1.25,7.75-1.25c0,0,5.91,7.53,6.82,10.04s5.23,4.39,5.23,4.39c0,0,7.06,4.39,7.06,7.22s-2.96,7.22-3.64,8.47-7.97,9.1-7.97,9.1c0,0-7.49-1.25-7.5-3.14s-1.37-4.39-2.51-9.41c-1.14-5.02-3.64-6.69-5.01-7.11s-3.06-6.45-3.06-6.45Z"/>
      <path class="cls-7" d="M612.08,245.11l-3.11-3.08s-.62-2.75,1.55-6.8c2.17-4.05,4.77-9.56,4.77-9.56,3.71-1.22,13.09,5.5,13.09,5.5l-7.53,4.14-5.56,12.98-3.22-3.19Z"/>
      <path class="cls-8" d="M610.73,249.21l4.57,10.7s1.49-1.38,3.34-2.83,9.66-6.68,9.75-6.62,1.37-3.39,2.49-6.45c1.11-3.06-2.49-12.84-2.49-12.84l-2.71-5.65-4.82,9.79-4.32,12.98-5.81.92Z"/>
      <path class="cls-7" d="M794.08,422.81c-.73-.6-2.96-1.73-3.56-2.41s-2.67-3.16-2.82-3.73-.69-1.35-.51-1.9.96-6.11,1-6.41.91-3.38.91-3.38c0,0,.78.23,1.05.6s3.33.6,3.33.6c0,0,1.09-.9,1.78-.38s2.01,1.35,2.37,2.03-.59,3.84-1.09,4.44-1.82,1.73-2.01,3.01-.46,7.52-.46,7.52Z"/>
      <path class="cls-8" d="M794.13,409.35h4.38s1.64,1.88,1.82,2.63.68,3.46.59,4.06-.87,9.02-.87,9.02c0,0-1.69,2.18-4.06,3.38s-5.97,2.71-6.79,2.93-4.06-6.77-4.06-6.77c0,0,4.74-.68,6.11-1.28s3.15-5.64,3.42-7.29-.55-6.69-.55-6.69Z"/>
      <path class="cls-7" d="M856.05,659.66l-4.61,2.66s-2.22,2.08-2.53,3.12c-.32,1.04-1.9,6.58-1.9,6.58,0,0,2.95,4.16,3.16,4.68s.94,5.89,1.36,6.41,6.31-.35,7.36-1.73c1.05-1.39,4.41-6.41,4.62-6.93s3.89-6.24,3.78-8.84-4.31-6.76-4.31-6.76l-6.93.81Z"/>
      <path class="cls-8" d="M862.77,661.97s-1.14,11.43-2.04,12.99c-.9,1.56-3.01,3.98-3.58,4.33s-3.31,3.96-3.31,3.96c0,0,.11,3.31,1.05,3.14s6.51-1.04,6.51-1.04l5.36-1.04s6.62-.52,6.93-3.29.42-13.69,0-15.59c-.42-1.91-7.35-14.04-7.35-14.04l-6.06,7.45,2.49,3.12Z"/>
      <g>
        <path class="cls-7" d="M873.59,699.35c-.63-.91-1.08-1.57-1.24-1.82-.83-1.37-8.44-5.94-8.44-5.94v-13.26s-5.09,11.43-3.18,14.17c.76,1.09,2.26,3.68,3.8,6.42,2.99-.53,6.21-.19,9.05.43Z"/>
        <path class="cls-8" d="M899.23,794.44c-.28-6.86-4.99-33.83-5.27-37.03s-1.39-25.14-2.22-28.8-6.1-13.26-7.76-15.09c-1.35-1.49-7.65-10.22-10.4-14.18-2.84-.62-6.06-.97-9.05-.43,2.34,4.17,4.77,8.67,4.77,8.67,0,0,1.39,2.29,1.94,7.31.55,5.03.83,12.34,1.11,15.54.28,3.2,5.82,17.83,6.93,20.57,1.11,2.74,7.48,25.14,7.48,26.97s-.28,16.91,0,21.49-3.05,10.97-3.05,10.97c0,0-10.53,1.37-12.47,0s-10.37-3.32-11.92.61c-1.55,3.93-9.15,8.53-9.15,8.53l13.73,1.83s10.38-2.74,11.77,0c1.39,2.74,7.79,3.2,11.1,4.57s8.02-.91,9.41-6.4c1.39-5.49,3.33-18.29,3.05-25.14Z"/>
      </g>
      <path class="cls-7" d="M756.48,720.77l-2.16-6.61s3.85-4.83,4.47-5.34,3.08.97,3.39,1.76,2.16,3.07,2.16,3.07l1.08,11.19s.77,4.83-.77,4.32-5.7-1.78-5.7-1.78l-2.47-6.61Z"/>
      <path class="cls-8" d="M759.97,711.88s1.91-4.32,2.37-4.58,3.55-2.29,4.47,0,1.85,6.1,2.16,7.63.15,10.42,0,11.44-.77,5.59-1.39,5.34-4.93-2.51-4.93-2.51c0,0,2-.29,2.77-4.36s-1.08-11.19-1.08-11.19l-4.37-1.78Z"/>
    </g>
  </g>
  <g id="Lag_2" data-name="Lag 2">
    <g>
      <text class="cls-2" transform="translate(458.71 385.25)"><tspan class="cls-27" x="0" y="0">2</tspan><tspan class="cls-20" x="12.83" y="0">0</tspan><tspan class="cls-58" x="28.58" y="0">2</tspan><tspan x="41.8" y="0">3-</tspan><tspan class="cls-28" x="70.8" y="0">2</tspan><tspan class="cls-19" x="83.62" y="0">0</tspan><tspan class="cls-41" x="99.38" y="0">2</tspan><tspan x="113.13" y="0">5</tspan></text>
      <text class="cls-2" transform="translate(466.11 408.41)"><tspan class="cls-33" x="0" y="0">M</tspan><tspan class="cls-61" x="19.05" y="0">u</tspan><tspan class="cls-34" x="34.27" y="0">l</tspan><tspan class="cls-51" x="40.45" y="0">t</tspan><tspan class="cls-60" x="47.95" y="0">i</tspan><tspan class="cls-33" x="54.85" y="0">m</tspan><tspan x="76.08" y="0">e</tspan><tspan class="cls-61" x="88.73" y="0">d</tspan><tspan x="102.2" y="0">iede</tspan><tspan class="cls-42" x="149.88" y="0">s</tspan><tspan class="cls-61" x="159.77" y="0">ig</tspan><tspan x="179.7" y="0">n</tspan><tspan class="cls-45" x="0" y="30">S</tspan><tspan class="cls-68" x="12.68" y="30">t</tspan><tspan class="cls-53" x="20.68" y="30">u</tspan><tspan class="cls-61" x="35.62" y="30">d</tspan><tspan x="49.1" y="30">i</tspan><tspan class="cls-45" x="57" y="30">e</tspan><tspan x="69.15" y="30">l</tspan><tspan class="cls-73" x="76.83" y="30">e</tspan><tspan class="cls-56" x="89.23" y="30">g</tspan><tspan class="cls-33" x="102.33" y="30">a</tspan><tspan x="114.3" y="30">t </tspan><tspan class="cls-33" x="130.52" y="30">f</tspan><tspan class="cls-45" x="138.02" y="30">r</tspan><tspan x="148.62" y="30">a </tspan><tspan class="cls-49" x="0" y="60">H</tspan><tspan x="16.65" y="60">K</tspan></text>
    </g>
    <g>
      <text class="cls-2" transform="translate(69.73 330.51)"><tspan class="cls-27" x="0" y="0">2</tspan><tspan class="cls-16" x="12.83" y="0">0</tspan><tspan class="cls-14" x="28" y="0">1</tspan><tspan x="38.2" y="0">7-</tspan><tspan class="cls-27" x="67.3" y="0">2</tspan><tspan class="cls-19" x="80.13" y="0">0</tspan><tspan class="cls-41" x="95.88" y="0">2</tspan><tspan x="109.63" y="0">5</tspan></text>
      <text class="cls-2" transform="translate(79.03 352.78)"><tspan class="cls-68" x="0" y="0">Un</tspan><tspan x="32.45" y="0">d</tspan><tspan class="cls-45" x="46.92" y="0">e</tspan><tspan x="59.07" y="0">r</tspan><tspan class="cls-44" x="70.17" y="0">v</tspan><tspan class="cls-42" x="84.9" y="0">i</tspan><tspan x="92.17" y="0">s</tspan><tspan class="cls-45" x="102.7" y="0">e</tspan><tspan x="114.85" y="0">r, </tspan><tspan class="cls-67" x="136.17" y="0">S</tspan><tspan class="cls-30" x="148.17" y="0">yh</tspan><tspan class="cls-59" x="177.4" y="0">o</tspan><tspan x="190.52" y="0">ld </tspan><tspan class="cls-64" x="0" y="30">f</tspan><tspan class="cls-61" x="7.98" y="30">o</tspan><tspan x="21.1" y="30">r </tspan><tspan class="cls-68" x="39.67" y="30">U</tspan><tspan class="cls-11" x="57.12" y="30">n</tspan><tspan x="71.02" y="30">g</tspan><tspan class="cls-46" x="85.05" y="30">I</tspan><tspan class="cls-64" x="92.1" y="30">A</tspan><tspan class="cls-33" x="107.82" y="30">a</tspan><tspan class="cls-52" x="119.8" y="30">r</tspan><tspan class="cls-32" x="129.65" y="30">h</tspan><tspan class="cls-42" x="143.85" y="30">u</tspan><tspan class="cls-6" x="159.45" y="30">s</tspan></text>
    </g>
    <g>
      <text class="cls-2" transform="translate(1.03 706.42)"><tspan class="cls-27" x="0" y="0">2</tspan><tspan class="cls-16" x="12.83" y="0">0</tspan><tspan class="cls-12" x="28" y="0">1</tspan><tspan x="38.03" y="0">6</tspan><tspan class="cls-41" x="53.05" y="0">-</tspan><tspan class="cls-33" x="67.5" y="0">N</tspan><tspan x="83.48" y="0">u</tspan></text>
      <g>
        <path class="cls-1" d="M5.95,732.61c1.23,0,2.32-.36,3.25-1.09.93-.73,1.4-1.83,1.4-3.31,0-.67-.16-1.24-.49-1.71-.32-.48-.75-.84-1.29-1.1-.53-.26-1.12-.48-1.75-.67-.63-.19-1.27-.4-1.9-.61-.63-.22-1.22-.48-1.75-.77s-.96-.73-1.29-1.27c-.33-.55-.49-1.21-.49-1.98,0-1.33.46-2.42,1.38-3.27s2.14-1.27,3.68-1.27,3,.17,4.4.52l.27,3.12-.48.2-.25-1.97c-1.23-.92-2.39-1.38-3.48-1.38s-1.99.33-2.72.99c-.73.66-1.1,1.65-1.1,2.96,0,.77.31,1.38.92,1.83.62.45,1.36.8,2.24,1.05s1.75.53,2.62.85c.88.32,1.62.85,2.24,1.6.62.75.92,1.73.92,2.92,0,1.62-.57,2.83-1.72,3.65-1.15.82-2.67,1.23-4.55,1.23s-3.52-.51-4.9-1.52l.02-2.65.48-.12.05,1.42c.45.63,1.07,1.19,1.85,1.66.78.48,1.59.71,2.43.71Z"/>
        <path class="cls-1" d="M19.38,732.61l.97-.05.08.25s-.13.02-.35.07c-.5.12-1.06.18-1.67.18-.57-.03-1.08-.13-1.55-.29-.47-.16-.9-.49-1.3-1-.4-.51-.6-1.16-.6-1.96v-8.77h-1.27l.2-.2,1.1-.23.2-2.4,1.4-.12v2.5h3.02v.45h-3.02v8.35c0,1.27.27,2.12.8,2.56.53.44,1.2.66,2,.66Z"/>
        <path class="cls-1" d="M29.83,732.14h-.08c-1.5.7-2.96,1.05-4.38,1.05-2.22,0-3.39-.88-3.52-2.62-.02-.12-.02-.23-.02-.33,0-1.28.84-2.14,2.52-2.57,1-.22,2.8-.48,5.4-.78v-2.2c0-.7-.08-1.3-.25-1.8s-.35-.87-.55-1.11c-.2-.24-.46-.43-.77-.56-.4-.17-.85-.25-1.34-.25s-1.05.12-1.69.38c-.92.38-1.73.87-2.45,1.45l-.1,1.95-.48.12v-3.02l.25-.1c1.3-.57,2.29-.91,2.98-1.02.68-.12,1.18-.18,1.5-.19.32,0,.62,0,.91.01.29.02.67.09,1.14.22.47.13.87.32,1.21.56.34.24.64.6.89,1.09s.38,1.06.38,1.72v7.65c0,.52.13.77.4.77l1.52.07-.02.38c-.93.13-1.77.2-2.5.2-.2-.02-.41-.12-.62-.31-.22-.19-.33-.45-.33-.76ZM25.83,732.79c1.23,0,2.54-.43,3.92-1.3v-4.12c-2.5.08-4.07.23-4.71.44-.64.21-1.08.53-1.32.98-.24.44-.36.88-.36,1.31v.25c.05.87.31,1.49.77,1.88.47.38,1.03.58,1.7.58Z"/>
        <path class="cls-1" d="M37.33,721.61v2c1.32-1.93,2.61-2.92,3.88-2.95h.3l1.4.17-.65,1.5c-.32-.32-.73-.48-1.23-.48-1.22.02-2.45.83-3.7,2.43v8.3l2.12.12s0,.14-.02.38l-5.25.02c0-.15,0-.27.02-.35l1.3-.17c.13-.02.2-.13.2-.35v-10.85c-.03-.12-.08-.17-.15-.17l-1.5-.05.02-.35c.9-.15,1.58-.23,2.05-.23s.78.11.95.33.25.45.25.7Z"/>
        <path class="cls-1" d="M49.68,732.61l.97-.05.08.25s-.13.02-.35.07c-.5.12-1.06.18-1.67.18-.57-.03-1.08-.13-1.55-.29-.47-.16-.9-.49-1.3-1-.4-.51-.6-1.16-.6-1.96v-8.77h-1.27l.2-.2,1.1-.23.2-2.4,1.4-.12v2.5h3.02v.45h-3.02v8.35c0,1.27.27,2.12.8,2.56.53.44,1.2.66,2,.66Z"/>
        <path class="cls-1" d="M53.38,727.34c0,3.6,1.4,5.4,4.2,5.4.73,0,1.52-.08,2.35-.24.83-.16,1.37-.3,1.6-.44l.18.25c-.38.25-1.01.46-1.89.62s-1.67.25-2.4.25-1.38-.08-1.95-.23c-.57-.15-1.16-.42-1.76-.8-.6-.38-1.08-.98-1.43-1.8-.35-.82-.52-1.82-.52-3,0-2.2.57-3.88,1.7-5.05,1.18-1.22,2.56-1.83,4.12-1.83s2.76.43,3.59,1.3c.82.87,1.24,2.08,1.24,3.65,0,.33-.02.69-.07,1.07h-8.93c-.02.18-.02.46-.02.83ZM60.92,725.26c0-1.25-.27-2.27-.82-3.06-.55-.79-1.3-1.19-2.25-1.19-1.23,0-2.27.54-3.12,1.62-.68.85-1.11,1.98-1.27,3.4h7.45c.02-.18.02-.44.02-.78Z"/>
        <path class="cls-1" d="M69.6,732.61l.97-.05.08.25s-.13.02-.35.07c-.5.12-1.06.18-1.67.18-.57-.03-1.08-.13-1.55-.29-.47-.16-.9-.49-1.3-1-.4-.51-.6-1.16-.6-1.96v-8.77h-1.27l.2-.2,1.1-.23.2-2.4,1.4-.12v2.5h3.02v.45h-3.02v8.35c0,1.27.27,2.12.8,2.56.53.44,1.2.66,2,.66Z"/>
        <path class="cls-1" d="M85.83,732.61l.97-.05.08.25s-.13.02-.35.07c-.5.12-1.06.18-1.67.18-.57-.03-1.08-.13-1.55-.29-.47-.16-.9-.49-1.3-1-.4-.51-.6-1.16-.6-1.96v-8.77h-1.27l.2-.2,1.1-.23.2-2.4,1.4-.12v2.5h3.02v.45h-3.02v8.35c0,1.27.27,2.12.8,2.56.53.44,1.2.66,2,.66Z"/>
        <path class="cls-1" d="M90.68,731.76c-1.12-1.08-1.67-2.65-1.67-4.69s.57-3.65,1.71-4.82c1.14-1.18,2.54-1.76,4.19-1.76s2.98.4,4,1.2l1.05-1.3.47.38-1.07,1.33c1.02,1.1,1.52,2.64,1.52,4.61s-.57,3.55-1.71,4.73c-1.14,1.18-2.53,1.76-4.16,1.76s-2.92-.35-3.88-1.05l-.9,1.12-.45-.4.9-1.1ZM95.05,720.94c-1.28,0-2.34.54-3.17,1.62-.83,1.08-1.25,2.47-1.25,4.16s.28,3.04.85,4.04l6.67-8.17c-.78-1.1-1.82-1.65-3.1-1.65ZM99.25,726.69c0-1.42-.25-2.6-.75-3.55l-6.67,8.15c.77.97,1.78,1.45,3.04,1.45s2.3-.54,3.14-1.62c.83-1.08,1.25-2.56,1.25-4.42Z"/>
        <path class="cls-1" d="M106.9,733.09v-11.67c-.03-.13-.08-.2-.15-.2l-1.53-.05.03-.35c1.05-.15,1.76-.23,2.12-.23.67,0,1.04.29,1.12.88h.02v11.75c0,.65-.12,1.31-.38,1.98-.25.67-.56,1.23-.93,1.7-.77.98-1.47,1.69-2.1,2.12l-.38.28-.18-.2c.68-.78,1.24-1.77,1.68-2.95.43-1.18.65-2.2.65-3.05ZM107.68,717.24c-.33,0-.6-.1-.79-.31-.19-.21-.29-.48-.29-.82s.1-.62.3-.83c.2-.21.47-.31.8-.31s.6.1.8.31c.2.21.3.49.3.85s-.1.63-.31.82c-.21.19-.48.29-.81.29Z"/>
        <path class="cls-1" d="M123.45,720.59s0,.14.02.38l-2,.23-4.8,11.9h-1.5l-4.35-11.7c-.1-.15-.23-.24-.38-.27l-1.3-.12-.02-.38,5.27-.02s0,.14.02.38l-1.85.12,3.93,11.48,4.1-11.08c.05-.08.02-.16-.09-.24-.11-.08-.22-.12-.34-.14l-1.3-.12-.03-.38,4.6-.02Z"/>
        <path class="cls-1" d="M127.8,721.61v10.98l1.88.12s0,.14-.02.38l-5,.02c0-.15,0-.27.02-.35l1.3-.17c.1,0,.17-.08.2-.23v-10.98c-.03-.12-.08-.17-.15-.17l-1.5-.05.02-.35c.9-.15,1.58-.23,2.05-.23s.78.11.95.33.25.45.25.7ZM126.95,717.24c-.33,0-.59-.1-.77-.31-.18-.21-.27-.48-.27-.82s.1-.62.29-.83c.19-.21.45-.31.79-.31s.6.1.81.31c.21.21.31.49.31.85s-.11.63-.33.82c-.22.19-.49.29-.83.29Z"/>
        <path class="cls-1" d="M134.45,721.61v2c1.32-1.93,2.61-2.92,3.88-2.95h.3l1.4.17-.65,1.5c-.32-.32-.73-.48-1.23-.48-1.22.02-2.45.83-3.7,2.43v8.3l2.12.12s0,.14-.02.38l-5.25.02c0-.15,0-.27.02-.35l1.3-.17c.13-.02.2-.13.2-.35v-10.85c-.03-.12-.08-.17-.15-.17l-1.5-.05.02-.35c.9-.15,1.58-.23,2.05-.23s.78.11.95.33.25.45.25.7Z"/>
        <path class="cls-1" d="M141.4,733.11l.03-.35,1.3-.17c.12-.02.19-.1.22-.25v-17.1c0-.18-.05-.27-.15-.27l-1.53-.05.03-.35c1.05-.15,1.77-.23,2.16-.23s.67.11.85.33c.18.22.26.45.26.7v17.23l1.88.12s0,.14-.02.38l-5.03.02ZM153.32,732.71s0,.14-.02.38h-3.15l-5.58-6.65,4.3-4.98c0-.22-.07-.33-.2-.35l-1.3-.17c-.02-.08-.02-.2-.02-.35l5.25.02s0,.14.02.38l-2.85.18-4.2,4.57,6.03,6.85,1.72.12Z"/>
        <path class="cls-1" d="M157.98,725.84h7.55v.45h-7.55v-.45Z"/>
        <path class="cls-1" d="M4.55,762.79c.1,0,.2,0,.3-.03.87-.02,1.59-.29,2.17-.81s.88-1.3.88-2.31-.78-1.72-2.35-2.17c-.65-.18-1.3-.38-1.95-.6-.65-.22-1.2-.56-1.66-1.02-.46-.47-.69-1.08-.69-1.83,0-1.07.41-1.92,1.23-2.56.82-.64,1.85-.96,3.1-.96.93,0,1.88.17,2.82.5l.45.18v2.88l-.48.17-.1-2.12c-.97-.77-1.77-1.15-2.42-1.15-.92,0-1.64.27-2.18.81-.53.54-.8,1.26-.8,2.16,0,.52.23.93.69,1.25.46.32,1.01.57,1.66.75s1.3.39,1.95.61c.65.22,1.2.59,1.66,1.1.46.51.69,1.17.69,1.99,0,1.1-.41,1.97-1.24,2.61-.83.64-2,.96-3.51.96s-2.77-.36-3.77-1.08v-2.88l.45-.17.12,2.12c.23.43.65.81,1.26,1.12.61.32,1.18.48,1.71.48Z"/>
        <path class="cls-1" d="M17.84,763.19c-1.74,0-3.15-.5-4.23-1.5-1.07-1-1.61-2.53-1.61-4.59s.57-3.68,1.71-4.85,2.58-1.76,4.31-1.76,3.14.5,4.23,1.5c1.08,1,1.62,2.53,1.62,4.59s-.57,3.67-1.71,4.85c-1.14,1.18-2.58,1.76-4.33,1.76ZM18,750.94c-1.25,0-2.29.54-3.12,1.62-.83,1.08-1.25,2.55-1.25,4.41s.4,3.28,1.19,4.27c.79.99,1.81,1.49,3.06,1.49s2.29-.54,3.12-1.62c.83-1.08,1.25-2.55,1.25-4.4s-.4-3.28-1.19-4.28c-.79-1-1.81-1.5-3.06-1.5Z"/>
        <path class="cls-1" d="M31.77,751.06c-1,.02-2.08.38-3.25,1.1v10.42l1.88.12s0,.14-.02.38l-5,.02c0-.15,0-.27.02-.35l1.3-.17c.1,0,.17-.08.2-.23v-10.97c-.03-.12-.08-.17-.15-.17l-1.5-.05.02-.35c.9-.15,1.58-.22,2.05-.22s.78.11.95.33.25.45.25.7v.3c1.38-.87,2.65-1.33,3.8-1.4,1.58,0,2.66.45,3.22,1.35,1.45-.83,2.82-1.28,4.1-1.35,1.17,0,2.05.24,2.65.72.28.22.53.55.74,1.01.21.46.31,1,.31,1.64v8.7l1.88.12s0,.14-.02.38l-5,.02c0-.15,0-.27.02-.35l1.3-.17c.1,0,.17-.08.2-.23v-7.85c0-.67-.08-1.24-.25-1.71-.17-.47-.35-.82-.55-1.04-.2-.22-.45-.38-.75-.5-.33-.13-.69-.2-1.07-.2-1.03.02-2.16.41-3.38,1.17.22.47.32,1.02.32,1.65v8.7l1.88.12s0,.14-.02.38l-5.02.02.02-.35,1.3-.17c.12-.02.19-.1.22-.25v-7.85c0-.82-.11-1.49-.32-2.01-.22-.53-.51-.87-.88-1.04-.5-.25-.98-.38-1.45-.38Z"/>
        <path class="cls-1" d="M50,745.36v6.77c2.18-1.5,4.16-1.97,5.93-1.4.4.12.75.29,1.04.51.29.23.55.56.76,1.01.22.45.33.99.33,1.62v8.7l1.88.12s0,.14-.03.38l-5,.02c0-.15,0-.27.03-.35l1.3-.17c.1,0,.17-.08.2-.23v-7.82c0-.65-.09-1.21-.26-1.69-.17-.48-.38-.82-.61-1.04-.23-.22-.51-.38-.83-.5-.43-.17-.82-.23-1.15-.2-1.08.03-2.27.48-3.58,1.33v10.15l1.88.12s0,.14-.02.38l-5,.02c0-.15,0-.27.02-.35l1.3-.17c.13-.02.2-.13.2-.35v-17c0-.18-.05-.27-.15-.27l-1.5-.05.02-.35c.9-.15,1.58-.23,2.05-.23s.78.11.95.33.25.45.25.7Z"/>
        <path class="cls-1" d="M62.17,757.34c0,3.6,1.4,5.4,4.2,5.4.73,0,1.52-.08,2.35-.24.83-.16,1.37-.3,1.6-.44l.18.25c-.38.25-1.01.46-1.89.62-.88.17-1.67.25-2.4.25s-1.38-.08-1.95-.22c-.57-.15-1.16-.42-1.76-.8-.6-.38-1.08-.98-1.43-1.8-.35-.82-.52-1.82-.52-3,0-2.2.57-3.88,1.7-5.05,1.18-1.22,2.56-1.83,4.12-1.83s2.76.43,3.59,1.3c.82.87,1.24,2.08,1.24,3.65,0,.33-.02.69-.07,1.08h-8.93c-.02.18-.02.46-.02.83ZM69.72,755.26c0-1.25-.27-2.27-.82-3.06-.55-.79-1.3-1.19-2.25-1.19-1.23,0-2.27.54-3.12,1.62-.68.85-1.11,1.98-1.27,3.4h7.45c.02-.18.02-.44.02-.78Z"/>
        <path class="cls-1" d="M83.4,745.36v16.43c0,.52.13.77.4.77l1.5.08-.02.38c-.8.13-1.63.2-2.5.2-.18-.02-.38-.11-.59-.28-.21-.17-.33-.38-.36-.65-.95.6-2.05.9-3.3.9s-2.34-.34-3.38-1.02c-.58-.38-1.05-.99-1.41-1.81-.36-.83-.54-1.83-.54-3.01,0-2.18.56-3.85,1.67-5,1.18-1.23,2.53-1.85,4.05-1.85.93,0,1.88.24,2.85.73v-5.98c0-.18-.05-.27-.15-.27l-1.52-.05.02-.35c1.05-.15,1.77-.23,2.16-.23s.68.11.85.33.26.45.26.7ZM78.85,762.74c1.02,0,1.99-.22,2.93-.67v-10.45c-.73-.45-1.46-.67-2.18-.67-1.43,0-2.59.55-3.46,1.65-.88,1.1-1.31,2.67-1.31,4.72,0,3.62,1.34,5.42,4.02,5.42Z"/>
        <path class="cls-1" d="M1,784.39c0-2.75.7-4.94,2.11-6.58,1.41-1.63,3.16-2.45,5.26-2.45,4.92,0,7.38,3.01,7.38,9.03,0,2.77-.7,4.95-2.1,6.54-1.4,1.59-3.16,2.39-5.27,2.39-4.92,0-7.38-2.97-7.38-8.92ZM2.7,784.34c0,5.65,1.89,8.47,5.67,8.47,1.63,0,2.99-.75,4.06-2.25s1.61-3.58,1.61-6.22c0-5.65-1.89-8.48-5.67-8.48-1.62,0-2.97.76-4.05,2.28-1.08,1.52-1.62,3.58-1.62,6.2Z"/>
        <path class="cls-1" d="M18.02,780.99l-.02-.38,3.38-.02v8.7c0,.65.09,1.21.27,1.69.18.47.39.82.61,1.04.22.22.49.38.79.5.47.17.86.23,1.18.2,1.02-.02,2.17-.54,3.48-1.58v-9.67c-.07-.2-.21-.32-.43-.35l-1.3-.12c-.02-.1-.02-.22-.02-.38l3.38-.02v11.35c.03.42.17.62.4.62l1.5.08-.02.38c-.8.13-1.63.2-2.5.2-.2-.02-.42-.13-.65-.34-.23-.21-.35-.47-.35-.79v-.45c-1.52,1.02-2.95,1.53-4.3,1.53-.57,0-1.23-.14-2-.43-.5-.18-.9-.53-1.2-1.04-.3-.51-.45-1.15-.45-1.91v-8.3c0-.08-.05-.16-.14-.24s-.19-.12-.29-.14l-1.3-.12Z"/>
        <path class="cls-1" d="M37.92,792.61l.97-.05.08.25s-.13.03-.35.08c-.5.12-1.06.17-1.67.17-.57-.03-1.08-.13-1.55-.29s-.9-.49-1.3-1-.6-1.16-.6-1.96v-8.77h-1.27l.2-.2,1.1-.23.2-2.4,1.4-.12v2.5h3.02v.45h-3.02v8.35c0,1.27.27,2.12.8,2.56.53.44,1.2.66,2,.66Z"/>
        <path class="cls-1" d="M40.97,784.39c0-2.75.7-4.94,2.11-6.58,1.41-1.63,3.16-2.45,5.26-2.45,4.92,0,7.38,3.01,7.38,9.03,0,2.77-.7,4.95-2.1,6.54-1.4,1.59-3.16,2.39-5.27,2.39-4.92,0-7.38-2.97-7.38-8.92ZM42.67,784.34c0,5.65,1.89,8.47,5.67,8.47,1.63,0,2.99-.75,4.06-2.25s1.61-3.58,1.61-6.22c0-5.65-1.89-8.48-5.67-8.48-1.62,0-2.97.76-4.05,2.28-1.08,1.52-1.62,3.58-1.62,6.2Z"/>
        <path class="cls-1" d="M56.97,793.11l.02-.35,1.3-.17c.15-.02.22-.13.22-.35v-11.2h-1.27l.2-.2,1.07-.23v-3.05c0-1.15.38-1.98,1.12-2.49.75-.51,1.62-.76,2.62-.76.67,0,1.23.09,1.7.28l-.08.17c-.4-.05-.75-.08-1.04-.08s-.58.04-.85.12c-.27.08-.56.23-.86.45-.67.48-1,1.44-1,2.88v2.45h3.03v.45h-3.03v11.55l2.12.12s0,.14-.02.38l-5.27.02Z"/>
        <path class="cls-1" d="M65.92,775.96l.02-.38h3.3l5.98,12.67,5.88-12.67h3.3s0,.09.03.17c.02.08.02.15,0,.2l-1.33.15c-.17.02-.27.12-.3.33v16.17l1.85.1s0,.14-.02.38l-5.02.02.02-.35,1.3-.17c.17-.02.27-.12.3-.3v-15.8l-5.7,12.33-.5,1h-.57l-6.33-13.35v16.1l2.85.15s0,.14-.02.38l-5.02.02.02-.35,1.3-.17c.17-.02.27-.12.3-.33v-15.83c-.03-.2-.13-.31-.3-.33l-1.32-.15Z"/>
        <path class="cls-1" d="M88.75,799.34l-.05-.35,2.32-.3c.12-.02.19-.13.23-.35l.83-5.25h-.83l-4.17-11.62-.03-.03c-.08-.2-.22-.32-.4-.35l-1.12-.1c-.02-.1-.02-.22-.02-.38l5.25-.02s0,.14.02.38l-1.95.15,3.7,11.33,4.65-11c.05-.1.02-.18-.09-.25-.11-.07-.22-.11-.34-.12l-1.1-.08c-.02-.1-.02-.22-.02-.38l4.58-.02s0,.14.02.38l-2.23.22-5.25,11.9-.95,5.72,2.18.12c.03.23.05.36.05.38l-5.27.03Z"/>
        <path class="cls-1" d="M116.67,775.59s0,.14.02.38l-1.58.17v16.47l1.83.1s0,.14-.02.38l-5,.02c0-.15,0-.27.02-.35l1.3-.17c.17-.02.27-.12.3-.33v-7.6h-8.52v7.95l1.85.1s0,.14-.02.38l-5.02.02.02-.35,1.3-.17c.17-.02.27-.12.3-.3v-15.85c-.03-.2-.13-.31-.3-.33l-1.3-.12-.02-.38,5.02-.02s0,.14.02.38l-1.85.17v8.03h8.52v-7.7c-.03-.22-.13-.33-.3-.35l-1.3-.12c-.02-.1-.02-.22-.02-.38l4.75-.02Z"/>
        <path class="cls-1" d="M125.95,792.14h-.08c-1.5.7-2.96,1.05-4.38,1.05-2.22,0-3.39-.88-3.52-2.62-.02-.12-.02-.22-.02-.33,0-1.28.84-2.14,2.52-2.57,1-.22,2.8-.48,5.4-.78v-2.2c0-.7-.08-1.3-.25-1.8s-.35-.87-.55-1.11-.46-.43-.77-.56c-.4-.17-.85-.25-1.34-.25s-1.05.12-1.69.38c-.92.38-1.73.87-2.45,1.45l-.1,1.95-.48.12v-3.02l.25-.1c1.3-.57,2.29-.91,2.98-1.02.68-.12,1.18-.18,1.5-.19.32,0,.62,0,.91.01.29.02.67.09,1.14.22.47.13.87.32,1.21.56.34.24.64.6.89,1.09s.38,1.06.38,1.72v7.65c0,.52.13.77.4.77l1.52.08-.02.38c-.93.13-1.77.2-2.5.2-.2-.02-.41-.12-.62-.31-.22-.19-.33-.45-.33-.76ZM121.95,792.79c1.23,0,2.54-.43,3.92-1.3v-4.12c-2.5.08-4.07.23-4.71.44-.64.21-1.08.53-1.32.98-.24.44-.36.88-.36,1.31v.25c.05.87.31,1.49.77,1.88s1.03.58,1.7.58Z"/>
        <path class="cls-1" d="M130.3,793.11l.02-.35,1.3-.17c.15-.02.22-.13.22-.35v-10.82c-.03-.13-.08-.2-.15-.2l-1.52-.05.02-.35c1.05-.15,1.76-.22,2.12-.22.67,0,1.04.29,1.12.88h.02v.52c1.37-.93,2.68-1.42,3.93-1.47,1.22,0,2.14.24,2.77.72.28.22.54.55.76,1.01.22.46.34,1,.34,1.64v8.7l1.88.12s0,.14-.02.38l-5,.02c0-.15,0-.27.02-.35l1.3-.17c.13-.02.2-.13.2-.35v-7.72c0-.67-.09-1.23-.26-1.7-.18-.47-.37-.81-.59-1.02s-.48-.38-.8-.5c-.37-.13-.75-.2-1.15-.2-1,.02-2.12.41-3.38,1.17v10.33l1.88.12s0,.14-.02.38l-5.02.02Z"/>
        <path class="cls-1" d="M155.25,775.36v16.43c0,.52.13.77.4.77l1.5.08-.02.38c-.8.13-1.63.2-2.5.2-.18-.02-.38-.11-.59-.28-.21-.17-.33-.38-.36-.65-.95.6-2.05.9-3.3.9s-2.34-.34-3.38-1.02c-.58-.38-1.05-.99-1.41-1.81-.36-.83-.54-1.83-.54-3.01,0-2.18.56-3.85,1.67-5,1.18-1.23,2.53-1.85,4.05-1.85.93,0,1.88.24,2.85.73v-5.98c0-.18-.05-.27-.15-.27l-1.52-.05.02-.35c1.05-.15,1.77-.22,2.16-.22s.67.11.85.33.26.45.26.7ZM150.7,792.74c1.02,0,1.99-.22,2.92-.67v-10.45c-.73-.45-1.46-.67-2.17-.67-1.43,0-2.59.55-3.46,1.65-.88,1.1-1.31,2.67-1.31,4.72,0,3.62,1.34,5.42,4.03,5.42Z"/>
      </g>
    </g>
    <g>
      <text class="cls-2" transform="translate(260.68 867.7)"><tspan class="cls-69" x="0" y="0">A</tspan><tspan class="cls-68" x="15.9" y="0">p</tspan><tspan class="cls-52" x="29.4" y="0">r</tspan><tspan class="cls-61" x="39.25" y="0">i</tspan><tspan x="46.15" y="0">l-</tspan><tspan class="cls-34" x="68.82" y="0">j</tspan><tspan class="cls-61" x="74.45" y="0">u</tspan><tspan class="cls-33" x="89.67" y="0">n</tspan><tspan x="103.92" y="0">i </tspan><tspan class="cls-27" x="119.3" y="0">2</tspan><tspan class="cls-16" x="132.12" y="0">0</tspan><tspan class="cls-25" x="147.3" y="0">1</tspan><tspan x="157.67" y="0">5</tspan></text>
      <text class="cls-2" transform="translate(277.72 893.63)"><tspan class="cls-61" x="0" y="0">P</tspan><tspan class="cls-45" x="12.55" y="0">r</tspan><tspan class="cls-33" x="23.15" y="0">a</tspan><tspan class="cls-50" x="35.12" y="0">k</tspan><tspan class="cls-52" x="48.55" y="0">t</tspan><tspan class="cls-61" x="56.05" y="0">i</tspan><tspan x="62.95" y="0">k </tspan><tspan class="cls-29" x="84.97" y="0">h</tspan><tspan x="99.27" y="0">os </tspan><tspan class="cls-60" x="131.4" y="0">Mo</tspan><tspan class="cls-33" x="164.07" y="0">lu</tspan><tspan x="184.97" y="0">u</tspan></text>
    </g>
    <text class="cls-2" transform="translate(595.54 675.62)"><tspan class="cls-67" x="0" y="0">A</tspan><tspan class="cls-61" x="15.58" y="0">u</tspan><tspan class="cls-72" x="30.8" y="0">g</tspan><tspan class="cls-43" x="44.05" y="0">u</tspan><tspan class="cls-41" x="59.65" y="0">s</tspan><tspan x="69.62" y="0">t </tspan><tspan class="cls-27" x="85.85" y="0">2</tspan><tspan class="cls-16" x="98.68" y="0">0</tspan><tspan class="cls-23" x="113.85" y="0">1</tspan><tspan x="124.08" y="0">9</tspan></text>
    <text class="cls-2" transform="translate(607.17 701.31)"><tspan class="cls-61" x="0" y="0">Gi</tspan><tspan class="cls-51" x="21.25" y="0">f</tspan><tspan x="29" y="0">t </tspan><tspan class="cls-33" x="45.23" y="0">m</tspan><tspan x="66.45" y="0">ed </tspan><tspan class="cls-60" x="101.05" y="0">Ji</tspan><tspan x="112.83" y="0">m </tspan><tspan class="cls-70" x="143.02" y="0">A</tspan><tspan class="cls-61" x="158.93" y="0">ll</tspan><tspan class="cls-42" x="172.27" y="0">i</tspan><tspan class="cls-41" x="179.55" y="0">s</tspan><tspan class="cls-66" x="189.52" y="0">t</tspan><tspan class="cls-46" x="197.17" y="0">e</tspan><tspan x="209.32" y="0">r </tspan><tspan class="cls-61" x="0" y="30">P</tspan><tspan x="12.55" y="30">l</tspan><tspan class="cls-70" x="20.22" y="30">o</tspan><tspan class="cls-61" x="33.5" y="30">ug</tspan><tspan class="cls-13" x="61.75" y="30">f</tspan><tspan class="cls-45" x="68.75" y="30">e</tspan><tspan class="cls-33" x="80.9" y="30">l</tspan><tspan x="87.07" y="30">t</tspan></text>
    <g>
      <text class="cls-2" transform="translate(807.61 588.86)"><tspan x="0" y="0">S</tspan><tspan class="cls-45" x="13.17" y="0">e</tspan><tspan class="cls-61" x="25.33" y="0">p</tspan><tspan class="cls-66" x="38.58" y="0">t</tspan><tspan class="cls-46" x="46.23" y="0">e</tspan><tspan class="cls-33" x="58.38" y="0">m</tspan><tspan class="cls-74" x="79.6" y="0">b</tspan><tspan class="cls-46" x="93.35" y="0">e</tspan><tspan x="105.5" y="0">r </tspan><tspan class="cls-27" x="124.08" y="0">2</tspan><tspan class="cls-15" x="136.9" y="0">0</tspan><tspan class="cls-22" x="152.08" y="0">1</tspan><tspan x="162.3" y="0">9</tspan></text>
      <text class="cls-2" transform="translate(818.09 613.95)"><tspan class="cls-21" x="0" y="0">F</tspan><tspan class="cls-47" x="11.12" y="0">ø</tspan><tspan class="cls-73" x="26.18" y="0">r</tspan><tspan class="cls-41" x="37.02" y="0">s</tspan><tspan class="cls-66" x="47" y="0">t</tspan><tspan x="54.65" y="0">e s</tspan><tspan class="cls-47" x="85.3" y="0">ø</tspan><tspan x="100.35" y="0">n</tspan></text>
    </g>
    <g>
      <text class="cls-2" transform="translate(784.78 380.81)"><tspan class="cls-61" x="0" y="0">J</tspan><tspan class="cls-33" x="4.87" y="0">an</tspan><tspan class="cls-73" x="31.1" y="0">u</tspan><tspan class="cls-33" x="47.07" y="0">a</tspan><tspan x="59.05" y="0">r </tspan><tspan class="cls-27" x="77.62" y="0">2</tspan><tspan class="cls-20" x="90.45" y="0">0</tspan><tspan class="cls-52" x="106.2" y="0">2</tspan><tspan x="119.25" y="0">2</tspan></text>
      <text class="cls-2" transform="translate(795.2 407.35)"><tspan class="cls-21" x="0" y="0">F</tspan><tspan class="cls-47" x="11.12" y="0">ø</tspan><tspan class="cls-73" x="26.18" y="0">r</tspan><tspan class="cls-41" x="37.02" y="0">s</tspan><tspan class="cls-66" x="47" y="0">t</tspan><tspan x="54.65" y="0">e </tspan><tspan class="cls-73" x="74.78" y="0">d</tspan><tspan class="cls-34" x="89" y="0">a</tspan><tspan class="cls-68" x="100.98" y="0">t</tspan><tspan class="cls-65" x="108.98" y="0">t</tspan><tspan class="cls-45" x="116.63" y="0">e</tspan><tspan x="128.78" y="0">r</tspan></text>
    </g>
    <g>
      <text class="cls-2" transform="translate(609.42 192.21)"><tspan class="cls-69" x="0" y="0">A</tspan><tspan class="cls-68" x="15.9" y="0">p</tspan><tspan class="cls-52" x="29.4" y="0">r</tspan><tspan class="cls-61" x="39.25" y="0">i</tspan><tspan x="46.15" y="0">l </tspan><tspan class="cls-27" x="61.3" y="0">2</tspan><tspan class="cls-19" x="74.12" y="0">0</tspan><tspan class="cls-41" x="89.88" y="0">2</tspan><tspan x="103.63" y="0">5</tspan></text>
      <text class="cls-2" transform="translate(618.43 216.39)"><tspan class="cls-69" x="0" y="0">A</tspan><tspan class="cls-68" x="15.9" y="0">n</tspan><tspan x="30.9" y="0">d</tspan><tspan class="cls-45" x="45.37" y="0">e</tspan><tspan x="57.52" y="0">n </tspan><tspan class="cls-73" x="80.75" y="0">d</tspan><tspan class="cls-33" x="94.97" y="0">a</tspan><tspan class="cls-68" x="106.95" y="0">t</tspan><tspan class="cls-66" x="114.95" y="0">t</tspan><tspan class="cls-45" x="122.6" y="0">e</tspan><tspan class="cls-4" x="134.75" y="0">r</tspan></text>
    </g>
    <g>
      <text class="cls-2" transform="translate(24.28 907.56)"><tspan class="cls-27" x="0" y="0">2</tspan><tspan class="cls-16" x="12.83" y="0">0</tspan><tspan class="cls-39" x="28" y="0">1</tspan><tspan x="37.1" y="0">4-</tspan><tspan class="cls-27" x="67.12" y="0">2</tspan><tspan class="cls-16" x="79.95" y="0">0</tspan><tspan class="cls-26" x="95.13" y="0">1</tspan><tspan x="105.5" y="0">5</tspan></text>
      <text class="cls-2" transform="translate(35.23 932.49)"><tspan class="cls-44" x="0" y="0">P</tspan><tspan class="cls-48" x="12.88" y="0">B</tspan><tspan x="26.17" y="0">A </tspan><tspan class="cls-71" x="50.4" y="0">F</tspan><tspan class="cls-75" x="62.4" y="0">a</tspan><tspan class="cls-43" x="75.67" y="0">s</tspan><tspan class="cls-33" x="85.57" y="0">h</tspan><tspan x="99.77" y="0">i</tspan><tspan class="cls-61" x="107.67" y="0">o</tspan><tspan class="cls-5" x="120.8" y="0">n de</tspan><tspan class="cls-42" x="171.15" y="0">s</tspan><tspan class="cls-61" x="181.05" y="0">ig</tspan><tspan x="200.97" y="0">n</tspan><tspan class="cls-73" x="0" y="30">V</tspan><tspan class="cls-45" x="16.45" y="30">I</tspan><tspan x="23.5" y="30">A </tspan><tspan class="cls-73" x="47.73" y="30">D</tspan><tspan x="63.2" y="30">e</tspan><tspan class="cls-42" x="75.85" y="30">s</tspan><tspan class="cls-60" x="85.75" y="30">ig</tspan><tspan x="105.68" y="30">n &amp; </tspan><tspan class="cls-61" x="0" y="60">b</tspan><tspan class="cls-43" x="13" y="60">us</tspan><tspan class="cls-61" x="38.5" y="60">i</tspan><tspan class="cls-33" x="45.4" y="60">n</tspan><tspan x="59.65" y="60">ess</tspan></text>
    </g>
    <g>
      <text class="cls-2" transform="translate(54.92 1101.63)"><tspan class="cls-67" x="0" y="0">A</tspan><tspan class="cls-61" x="15.58" y="0">u</tspan><tspan class="cls-72" x="30.8" y="0">g</tspan><tspan class="cls-43" x="44.05" y="0">u</tspan><tspan class="cls-41" x="59.65" y="0">s</tspan><tspan x="69.62" y="0">t-</tspan><tspan class="cls-61" x="93.38" y="0">o</tspan><tspan class="cls-50" x="106.5" y="0">k</tspan><tspan class="cls-62" x="119.92" y="0">t</tspan><tspan class="cls-61" x="127.52" y="0">o</tspan><tspan class="cls-73" x="140.65" y="0">b</tspan><tspan class="cls-46" x="154.4" y="0">e</tspan><tspan x="166.55" y="0">r </tspan><tspan class="cls-27" x="0" y="30">2</tspan><tspan class="cls-16" x="12.83" y="30">0</tspan><tspan class="cls-35" x="28" y="30">1</tspan><tspan x="36.9" y="30">3</tspan></text>
      <text class="cls-2" transform="translate(62.58 1155.39)"><tspan class="cls-61" x="0" y="0">P</tspan><tspan class="cls-45" x="12.55" y="0">r</tspan><tspan class="cls-33" x="23.15" y="0">a</tspan><tspan class="cls-50" x="35.12" y="0">k</tspan><tspan class="cls-52" x="48.55" y="0">t</tspan><tspan class="cls-61" x="56.05" y="0">i</tspan><tspan x="62.95" y="0">k </tspan><tspan class="cls-29" x="84.97" y="0">h</tspan><tspan x="99.27" y="0">os </tspan><tspan x="0" y="30">La </tspan><tspan class="cls-61" x="33.87" y="30">M</tspan><tspan class="cls-33" x="53.42" y="30">a</tspan><tspan class="cls-43" x="65.4" y="30">i</tspan><tspan class="cls-76" x="72.67" y="30">s</tspan><tspan class="cls-60" x="83.55" y="30">o</tspan><tspan x="96.67" y="30">n </tspan><tspan class="cls-33" x="0" y="60">J</tspan><tspan class="cls-42" x="4.37" y="60">u</tspan><tspan class="cls-40" x="19.97" y="60">s</tspan><tspan class="cls-51" x="29.95" y="60">t</tspan><tspan class="cls-74" x="37.45" y="60">i</tspan><tspan class="cls-33" x="45.1" y="60">a</tspan><tspan x="57.07" y="60">n </tspan><tspan class="cls-54" x="80.3" y="60">K</tspan><tspan class="cls-61" x="94.12" y="60">u</tspan><tspan class="cls-34" x="109.35" y="60">n</tspan><tspan class="cls-73" x="123.6" y="60">t</tspan><tspan x="132.1" y="60">z</tspan></text>
    </g>
    <g>
      <text class="cls-2" transform="translate(309.61 1198.15)"><tspan class="cls-27" x="0" y="0">2</tspan><tspan class="cls-16" x="12.83" y="0">0</tspan><tspan class="cls-10" x="28" y="0">1</tspan><tspan x="37.48" y="0">2-</tspan><tspan class="cls-27" x="66.77" y="0">2</tspan><tspan class="cls-16" x="79.6" y="0">0</tspan><tspan class="cls-38" x="94.78" y="0">1</tspan><tspan x="103.88" y="0">4</tspan></text>
      <text class="cls-2" transform="translate(315.87 1225.39)"><tspan class="cls-73" x="0" y="0">D</tspan><tspan x="15.48" y="0">e</tspan><tspan class="cls-43" x="28.12" y="0">s</tspan><tspan class="cls-61" x="38.03" y="0">ig</tspan><tspan class="cls-33" x="57.95" y="0">n</tspan><tspan class="cls-66" x="72.2" y="0">t</tspan><tspan class="cls-45" x="79.85" y="0">e</tspan><tspan class="cls-63" x="92" y="0">k</tspan><tspan class="cls-29" x="105.4" y="0">n</tspan><tspan class="cls-61" x="119.75" y="0">o</tspan><tspan x="132.87" y="0">l</tspan><tspan class="cls-50" x="140.55" y="0">o</tspan><tspan x="153.55" y="0">g</tspan><tspan class="cls-73" x="0" y="30">TE</tspan><tspan class="cls-57" x="26.05" y="30">K</tspan><tspan x="40.02" y="30">O </tspan></text>
    </g>
    <g>
      <text class="cls-2" transform="translate(235.75 568.08)"><tspan class="cls-73" x="0" y="0">D</tspan><tspan x="15.48" y="0">ec</tspan><tspan class="cls-45" x="40.07" y="0">e</tspan><tspan class="cls-33" x="52.23" y="0">m</tspan><tspan class="cls-73" x="73.45" y="0">b</tspan><tspan class="cls-45" x="87.2" y="0">e</tspan><tspan x="99.35" y="0">r </tspan><tspan class="cls-28" x="117.93" y="0">2</tspan><tspan class="cls-19" x="130.75" y="0">0</tspan><tspan class="cls-17" x="146.5" y="0">2</tspan><tspan x="158.6" y="0">4</tspan></text>
      <text class="cls-2" transform="translate(244.38 601.46)"><tspan class="cls-37" x="0" y="0">V</tspan><tspan class="cls-45" x="13.78" y="0">e</tspan><tspan class="cls-61" x="25.93" y="0">j</tspan><tspan x="32.05" y="0">led</tspan><tspan class="cls-45" x="66.85" y="0">e</tspan><tspan x="79" y="0">r, </tspan><tspan class="cls-73" x="100.32" y="0">V</tspan><tspan class="cls-46" x="116.77" y="0">I</tspan><tspan x="123.82" y="0">A de</tspan><tspan class="cls-42" x="175.17" y="0">s</tspan><tspan class="cls-59" x="185.07" y="0">ig</tspan><tspan x="205" y="0">n </tspan><tspan x="0" y="30">&amp; </tspan><tspan class="cls-61" x="29" y="30">b</tspan><tspan class="cls-43" x="42" y="30">us</tspan><tspan class="cls-61" x="67.5" y="30">i</tspan><tspan class="cls-33" x="74.4" y="30">n</tspan><tspan x="88.65" y="30">ess</tspan></text>
    </g>
    <text class="cls-3" transform="translate(156.41 1418.44)"><tspan class="cls-24" x="0" y="0">Pr</tspan><tspan class="cls-9" x="36.58" y="0">o</tspan><tspan class="cls-31" x="56.79" y="0">f</tspan><tspan x="70.65" y="0">essi</tspan><tspan class="cls-55" x="138.11" y="0">on</tspan><tspan x="184.42" y="0">elt</tspan></text>
    <text class="cls-3" transform="translate(736.72 1008.47)"><tspan class="cls-36" x="0" y="0">P</tspan><tspan x="20.61" y="0">ers</tspan><tspan class="cls-18" x="76.67" y="0">on</tspan><tspan x="122.5" y="0">li</tspan><tspan class="cls-18" x="140.25" y="0">g</tspan><tspan x="164.27" y="0">t</tspan></text>
  </g>
</svg>